<?xml version="1.0" encoding="UTF-8"?>
<!-- Generator: visioncortex VTracer 0.6.4 -->
<svg version="1.1" xmlns="http://www.w3.org/2000/svg" width="512" height="512">
<path d="M0 0 C1.93 -0.01 3.86 -0.01 5.79 -0.02 C11.08 -0.04 16.37 -0.04 21.67 -0.03 C27.38 -0.03 33.09 -0.04 38.8 -0.06 C49.99 -0.08 61.17 -0.09 72.36 -0.08 C81.45 -0.08 90.55 -0.08 99.64 -0.09 C100.93 -0.09 102.23 -0.09 103.56 -0.1 C106.19 -0.1 108.82 -0.1 111.45 -0.1 C129.1 -0.12 146.75 -0.13 164.41 -0.12 C165.1 -0.12 165.79 -0.12 166.5 -0.12 C170 -0.12 173.49 -0.11 176.99 -0.11 C178.03 -0.11 178.03 -0.11 179.1 -0.11 C180.5 -0.11 181.91 -0.11 183.31 -0.11 C205.16 -0.1 227.02 -0.11 248.87 -0.15 C273.43 -0.19 298 -0.21 322.56 -0.21 C335.56 -0.2 348.56 -0.21 361.57 -0.24 C372.63 -0.26 383.7 -0.26 394.77 -0.24 C400.42 -0.23 406.06 -0.22 411.71 -0.25 C416.88 -0.27 422.05 -0.26 427.23 -0.24 C429.09 -0.23 430.96 -0.23 432.83 -0.25 C444.35 -0.34 453.91 0.29 463.14 8.14 C469.34 14.72 471.84 22.59 471.75 31.47 C471.75 32.32 471.76 33.17 471.77 34.05 C471.79 36.89 471.78 39.72 471.76 42.56 C471.77 44.6 471.78 46.64 471.79 48.68 C471.81 54.21 471.81 59.74 471.8 65.27 C471.8 69.89 471.8 74.51 471.81 79.12 C471.83 90.01 471.82 100.9 471.81 111.79 C471.79 123.03 471.81 134.27 471.84 145.5 C471.87 155.15 471.87 164.81 471.86 174.46 C471.86 180.22 471.86 185.98 471.88 191.75 C471.9 197.16 471.89 202.57 471.87 207.99 C471.87 209.98 471.87 211.96 471.88 213.95 C471.9 216.66 471.88 219.37 471.86 222.08 C471.87 222.87 471.88 223.66 471.9 224.47 C471.83 228.51 471.4 230.32 468.85 233.51 C466.01 235.7 464.77 236.2 461.23 236.15 C460.41 236.16 459.58 236.17 458.73 236.19 C456.23 235.52 456.23 235.52 451.23 230.52 C451.23 187.62 451.23 144.72 451.23 100.52 C295.47 100.52 139.71 100.52 -20.77 100.52 C-20.67 154.83 -20.56 209.13 -20.46 265.08 C-20.43 282.25 -20.41 299.41 -20.38 317.1 C-20.34 332.45 -20.34 332.45 -20.3 347.8 C-20.29 354.65 -20.28 361.5 -20.27 368.35 C-20.27 376.25 -20.25 384.15 -20.22 392.05 C-20.21 396.09 -20.2 400.13 -20.2 404.17 C-20.21 407.83 -20.2 411.48 -20.18 415.14 C-20.17 417.08 -20.17 419.03 -20.18 420.98 C-20.18 429.71 -20.18 429.71 -16.77 437.52 C-12.28 439.9 -7.62 439.81 -2.64 439.8 C-1.84 439.8 -1.04 439.81 -0.21 439.81 C2.47 439.83 5.15 439.83 7.83 439.83 C9.75 439.84 11.67 439.84 13.6 439.85 C18.82 439.87 24.03 439.88 29.25 439.89 C32.51 439.89 35.77 439.9 39.03 439.91 C50.41 439.93 61.78 439.94 73.15 439.95 C83.75 439.95 94.36 439.98 104.96 440.02 C114.07 440.06 123.17 440.07 132.27 440.07 C137.71 440.07 143.15 440.08 148.59 440.11 C153.7 440.14 158.81 440.14 163.92 440.12 C165.8 440.12 167.67 440.13 169.55 440.14 C172.11 440.16 174.67 440.15 177.23 440.14 C178.35 440.16 178.35 440.16 179.48 440.18 C183.45 440.11 185.1 439.62 188.24 437.11 C190.46 434.8 190.46 434.8 190.15 432.48 C189.84 431.83 189.54 431.19 189.23 430.52 C188.98 429.84 188.73 429.15 188.48 428.45 C188.19 427.73 187.9 427.01 187.6 426.26 C187.29 425.47 186.98 424.68 186.66 423.87 C185.99 422.21 185.33 420.56 184.67 418.9 C184.36 418.11 184.05 417.33 183.73 416.51 C183.44 415.8 183.15 415.08 182.86 414.34 C182.23 412.52 182.23 412.52 182.23 410.52 C180.99 410.58 179.75 410.64 178.47 410.7 C176.83 410.74 175.19 410.79 173.54 410.83 C172.73 410.88 171.91 410.92 171.07 410.96 C169.88 410.99 169.88 410.99 168.66 411.01 C167.57 411.05 167.57 411.05 166.45 411.09 C162.7 410.13 161.46 408.7 159.23 405.52 C158.48 401.48 158.53 397.5 158.57 393.4 C158.56 392.22 158.56 391.04 158.55 389.82 C158.55 387.33 158.56 384.84 158.58 382.35 C158.61 378.53 158.58 374.72 158.55 370.91 C158.55 368.49 158.56 366.07 158.57 363.65 C158.56 362.51 158.55 361.37 158.54 360.19 C158.65 352.35 158.65 352.35 161.5 348.29 C164.25 346.51 165.44 345.92 168.66 346.03 C169.45 346.05 170.25 346.07 171.07 346.08 C171.89 346.12 172.7 346.17 173.54 346.21 C174.38 346.23 175.22 346.25 176.08 346.28 C178.13 346.34 180.18 346.43 182.23 346.52 C182.39 345.93 182.55 345.33 182.71 344.72 C184.38 338.8 186.56 333.45 189.34 327.97 C190.36 325.17 190.47 324.2 189.23 321.52 C187.32 319.4 185.25 317.54 183.14 315.62 C180.15 312.34 179.25 309.61 179.17 305.21 C181.86 295.87 192.31 288.26 199.08 281.49 C200.93 279.63 202.78 277.77 204.62 275.9 C205.81 274.72 206.99 273.53 208.18 272.34 C208.73 271.79 209.28 271.23 209.84 270.66 C213.92 266.61 216.2 264.56 221.98 264.46 C227.91 265.36 232.02 269.85 235.71 274.31 C236.21 274.71 236.71 275.11 237.23 275.52 C240.12 275.01 242.77 273.98 245.49 272.89 C246.28 272.58 247.07 272.27 247.88 271.95 C249.54 271.28 251.2 270.62 252.85 269.96 C253.64 269.65 254.43 269.34 255.24 269.02 C255.96 268.73 256.68 268.44 257.42 268.15 C259.23 267.52 259.23 267.52 261.23 267.52 C261.17 266.28 261.12 265.04 261.06 263.76 C261.01 262.12 260.96 260.48 260.92 258.83 C260.88 258.02 260.84 257.2 260.79 256.36 C260.78 255.56 260.76 254.77 260.74 253.95 C260.72 253.22 260.69 252.49 260.66 251.74 C261.62 247.99 263.05 246.75 266.23 244.52 C270.27 243.77 274.26 243.82 278.36 243.86 C280.13 243.85 280.13 243.85 281.93 243.84 C284.42 243.84 286.91 243.85 289.41 243.87 C293.22 243.9 297.03 243.87 300.84 243.84 C303.26 243.84 305.68 243.85 308.11 243.86 C309.25 243.85 310.39 243.84 311.56 243.83 C319.41 243.94 319.41 243.94 323.46 246.79 C325.24 249.54 325.84 250.73 325.72 253.95 C325.7 254.74 325.69 255.54 325.67 256.36 C325.63 257.18 325.59 257.99 325.54 258.83 C325.52 259.67 325.5 260.51 325.48 261.37 C325.42 263.42 325.33 265.47 325.23 267.52 C325.91 267.68 326.59 267.84 327.29 268 C333.38 269.53 338.58 271.5 344.04 274.63 C346.15 275.67 346.15 275.67 348.27 275.41 C351.63 273.89 353.69 271.11 356.13 268.43 C359.41 265.44 362.14 264.54 366.54 264.46 C375.88 267.15 383.5 277.6 390.26 284.37 C392.12 286.22 393.98 288.07 395.85 289.91 C397.04 291.1 398.22 292.28 399.41 293.47 C399.97 294.02 400.52 294.57 401.09 295.13 C405.14 299.21 407.2 301.49 407.29 307.27 C406.4 313.2 401.9 317.31 397.44 321 C396.03 322.42 396.03 322.42 396.36 324.24 C397.86 328.17 399.44 332.06 401.06 335.95 C402.49 339.45 403.65 342.77 404.23 346.52 C405.47 346.46 406.71 346.41 407.99 346.35 C409.63 346.3 411.28 346.25 412.92 346.21 C413.74 346.17 414.55 346.13 415.39 346.08 C416.19 346.07 416.99 346.05 417.81 346.03 C418.53 346.01 419.26 345.98 420.01 345.95 C423.77 346.91 425 348.34 427.23 351.52 C427.98 355.56 427.93 359.55 427.9 363.65 C427.9 364.83 427.9 366.01 427.91 367.22 C427.91 369.71 427.9 372.2 427.88 374.7 C427.86 378.51 427.88 382.32 427.91 386.13 C427.91 388.55 427.91 390.97 427.9 393.4 C427.91 394.54 427.92 395.68 427.93 396.85 C427.81 404.7 427.81 404.7 424.97 408.75 C422.21 410.53 421.02 411.13 417.81 411.01 C416.61 410.99 416.61 410.99 415.39 410.96 C414.58 410.92 413.76 410.88 412.92 410.83 C412.08 410.81 411.25 410.79 410.39 410.77 C408.33 410.71 406.28 410.62 404.23 410.52 C404.07 411.2 403.91 411.88 403.75 412.58 C402.22 418.67 400.25 423.87 397.12 429.33 C396.08 431.44 396.08 431.44 396.34 433.56 C397.61 436.35 398.76 437.64 401.23 439.52 C404.2 440.1 407.11 440.03 410.13 439.98 C411.42 439.98 411.42 439.98 412.75 439.98 C414.58 439.97 416.41 439.96 418.24 439.93 C421.02 439.9 423.81 439.89 426.59 439.89 C428.37 439.88 430.16 439.87 431.94 439.86 C432.76 439.86 433.59 439.85 434.44 439.85 C439.3 439.77 443.77 439.6 448.23 437.52 C450.74 431.42 450.5 425.31 450.47 418.79 C450.47 417.63 450.47 416.46 450.48 415.26 C450.48 412.75 450.48 410.23 450.48 407.71 C450.47 403.73 450.48 399.74 450.49 395.76 C450.53 384.43 450.55 373.11 450.54 361.78 C450.53 355.52 450.54 349.26 450.57 342.99 C450.59 339.68 450.59 336.37 450.58 333.06 C450.56 329.37 450.58 325.68 450.6 321.99 C450.59 320.9 450.58 319.81 450.57 318.68 C450.66 311.28 450.66 311.28 453.61 307.35 C456.45 305.37 457.82 304.84 461.23 304.9 C462.06 304.88 462.88 304.87 463.73 304.86 C467.3 305.8 469.4 307.37 471.23 310.52 C472 314.56 471.92 318.55 471.89 322.65 C471.91 324.49 471.91 324.49 471.93 326.38 C471.95 329.74 471.95 333.11 471.94 336.48 C471.93 339.3 471.94 342.12 471.95 344.94 C471.97 351.6 471.96 358.26 471.94 364.93 C471.92 371.77 471.93 378.62 471.97 385.47 C472 391.37 472.01 397.26 472 403.16 C471.99 406.67 471.99 410.19 472.02 413.7 C472.04 417.63 472.02 421.56 471.99 425.49 C472.01 427.21 472.01 427.21 472.03 428.96 C471.91 437.89 469.44 445.68 463.49 452.53 C459.05 456.75 452.95 460.24 446.78 460.71 C444.13 460.6 441.51 460.37 438.87 460.11 C413.76 457.84 413.76 457.84 391.76 467.96 C385.34 473.88 379.78 480.64 374.59 487.65 C372.45 490.25 371.38 491.54 368.23 492.52 C361.65 492.63 358.7 490.8 353.99 486.31 C352.23 484.52 352.23 484.52 350.75 482.73 C349.33 481.32 349.33 481.32 347.51 481.65 C343.58 483.15 339.69 484.73 335.81 486.35 C332.3 487.78 328.98 488.94 325.23 489.52 C325.29 490.76 325.35 492 325.41 493.28 C325.45 494.93 325.5 496.57 325.54 498.21 C325.59 499.03 325.63 499.84 325.67 500.68 C325.69 501.48 325.7 502.28 325.72 503.1 C325.76 504.19 325.76 504.19 325.8 505.3 C324.84 509.06 323.41 510.29 320.23 512.52 C316.19 513.27 312.21 513.22 308.11 513.19 C306.34 513.19 306.34 513.19 304.53 513.2 C302.04 513.2 299.55 513.19 297.06 513.17 C293.24 513.15 289.43 513.17 285.62 513.2 C283.2 513.2 280.78 513.2 278.36 513.19 C277.22 513.2 276.08 513.21 274.9 513.22 C267.06 513.1 267.06 513.1 263 510.26 C261.22 507.5 260.63 506.31 260.74 503.1 C260.77 501.9 260.77 501.9 260.79 500.68 C260.83 499.87 260.88 499.05 260.92 498.21 C260.94 497.37 260.96 496.54 260.99 495.68 C261.05 493.62 261.14 491.57 261.23 489.52 C260.64 489.36 260.04 489.2 259.43 489.04 C253.51 487.37 248.16 485.2 242.68 482.41 C239.88 481.4 238.91 481.29 236.23 482.52 C234.11 484.44 232.25 486.5 230.33 488.61 C227.05 491.6 224.32 492.5 219.92 492.58 C212.67 490.49 208.36 484.84 204.05 478.89 C197.05 469.74 189.82 461.78 178 459.81 C166.1 458.39 154.05 458.83 142.1 459.18 C136.48 459.32 130.87 459.33 125.25 459.34 C114.63 459.39 104.01 459.55 93.4 459.76 C77.81 460.06 62.23 460.21 46.65 460.34 C45.5 460.35 44.35 460.36 43.17 460.37 C40.88 460.38 38.6 460.4 36.31 460.42 C29.64 460.47 22.98 460.57 16.31 460.7 C12.17 460.78 8.02 460.84 3.87 460.89 C1.96 460.91 0.05 460.95 -1.86 461 C-13.63 461.31 -23.23 460.95 -32.67 452.9 C-41.23 443.84 -41.35 433.48 -41.29 421.73 C-41.3 420.01 -41.3 418.3 -41.31 416.58 C-41.33 411.88 -41.33 407.18 -41.32 402.48 C-41.32 397.41 -41.33 392.34 -41.35 387.26 C-41.37 377.33 -41.38 367.39 -41.37 357.46 C-41.37 349.38 -41.37 341.3 -41.38 333.23 C-41.38 332.08 -41.38 330.93 -41.39 329.74 C-41.39 327.41 -41.39 325.07 -41.39 322.73 C-41.41 300.83 -41.41 278.93 -41.4 257.02 C-41.39 236.99 -41.41 216.96 -41.45 196.93 C-41.49 176.35 -41.5 155.78 -41.5 135.2 C-41.49 123.65 -41.5 112.11 -41.53 100.56 C-41.55 90.72 -41.55 80.89 -41.53 71.06 C-41.52 66.05 -41.51 61.03 -41.54 56.02 C-41.56 51.42 -41.55 46.83 -41.53 42.23 C-41.52 40.58 -41.52 38.92 -41.54 37.26 C-41.64 26.43 -40.45 17.22 -33.15 8.61 C-31.44 7.01 -29.75 5.76 -27.77 4.52 C-26.94 3.98 -26.94 3.98 -26.1 3.42 C-18.05 -0.94 -8.88 -0.04 0 0 Z M-17.77 23.52 C-25.26 41.01 -20.77 61.5 -20.77 80.52 C134.99 80.52 290.75 80.52 451.23 80.52 C453.48 51.25 453.48 51.25 448.23 23.52 C443.37 20.61 438.89 20.09 433.33 20.14 C432.18 20.14 432.18 20.14 431 20.13 C428.43 20.12 425.85 20.13 423.28 20.14 C421.41 20.14 419.55 20.13 417.68 20.13 C412.56 20.11 407.43 20.12 402.31 20.13 C396.78 20.14 391.25 20.13 385.73 20.12 C374.9 20.1 364.07 20.11 353.25 20.12 C344.45 20.12 335.65 20.12 326.85 20.12 C325.6 20.12 324.35 20.12 323.06 20.12 C320.52 20.12 317.98 20.12 315.43 20.12 C292.27 20.11 269.1 20.12 245.93 20.13 C224.79 20.15 203.64 20.14 182.49 20.13 C158.73 20.11 134.97 20.11 111.21 20.12 C108.68 20.12 106.14 20.12 103.61 20.12 C102.36 20.12 101.12 20.12 99.83 20.12 C91.04 20.12 82.25 20.12 73.47 20.11 C62.76 20.1 52.05 20.11 41.34 20.12 C35.88 20.13 30.41 20.13 24.95 20.12 C19.94 20.11 14.94 20.12 9.94 20.14 C8.13 20.14 6.32 20.14 4.51 20.13 C2.05 20.12 -0.41 20.13 -2.87 20.14 C-3.92 20.13 -3.92 20.13 -5 20.12 C-9.89 20.18 -13.57 21 -17.77 23.52 Z M281.23 264.52 C281.06 269.61 281.06 269.61 280.93 274.69 C280.78 277.83 280.46 280.15 278.8 282.83 C274.95 285.37 270.82 286.47 266.42 287.77 C258.13 290.34 250.95 293.49 243.56 298.02 C239.26 299.96 236.91 300.05 232.23 299.52 C229.84 298.06 229.84 298.06 227.98 296.15 C225.32 293.47 223.74 292.28 220.23 290.52 C215.28 295.47 210.33 300.42 205.23 305.52 C207.29 309.65 209.52 311.97 212.77 315.13 C214.86 318.55 214.88 321.67 214.23 325.52 C213.09 328.07 211.99 330.23 210.54 332.58 C206.29 339.99 203.72 347.37 201.23 355.52 C198.73 363.19 198.73 363.19 195.23 365.52 C192.47 365.82 189.81 366.03 187.04 366.15 C184.47 366.27 181.89 366.39 179.23 366.52 C179.23 374.44 179.23 382.36 179.23 390.52 C184.32 390.69 184.32 390.69 189.4 390.82 C192.54 390.97 194.86 391.29 197.54 392.95 C200.08 396.81 201.18 400.94 202.48 405.33 C205.05 413.62 208.2 420.8 212.73 428.2 C214.67 432.49 214.76 434.84 214.23 439.52 C212.77 441.91 212.77 441.91 210.86 443.77 C208.18 446.43 206.99 448.01 205.23 451.52 C210.18 456.47 215.13 461.42 220.23 466.52 C224.36 464.46 226.68 462.24 229.84 458.98 C233.26 456.89 236.38 456.88 240.23 457.52 C242.78 458.66 244.94 459.77 247.29 461.21 C254.7 465.46 262.08 468.03 270.23 470.52 C277.9 473.02 277.9 473.02 280.23 476.52 C280.53 479.28 280.74 481.94 280.86 484.71 C280.98 487.29 281.1 489.87 281.23 492.52 C289.15 492.52 297.07 492.52 305.23 492.52 C305.4 487.44 305.4 487.44 305.53 482.35 C305.68 479.21 306 476.9 307.66 474.21 C311.52 471.68 315.65 470.57 320.04 469.27 C328.33 466.7 335.51 463.55 342.91 459.03 C347.2 457.08 349.55 456.99 354.23 457.52 C356.62 458.98 356.62 458.98 358.48 460.9 C361.14 463.57 362.72 464.76 366.23 466.52 C371.18 461.57 376.13 456.62 381.23 451.52 C379.17 447.4 376.95 445.07 373.69 441.91 C371.6 438.49 371.59 435.37 372.23 431.52 C373.37 428.97 374.48 426.81 375.92 424.46 C380.17 417.05 382.74 409.68 385.23 401.52 C387.73 393.86 387.73 393.86 391.23 391.52 C393.99 391.22 396.65 391.01 399.42 390.9 C402 390.77 404.58 390.65 407.23 390.52 C407.23 382.6 407.23 374.68 407.23 366.52 C402.15 366.35 402.15 366.35 397.06 366.22 C393.92 366.07 391.61 365.75 388.92 364.09 C386.39 360.24 385.28 356.11 383.98 351.71 C381.41 343.42 378.26 336.24 373.74 328.85 C371.79 324.55 371.7 322.2 372.23 317.52 C373.69 315.13 373.69 315.13 375.61 313.27 C378.28 310.61 379.47 309.03 381.23 305.52 C376.28 300.57 371.33 295.62 366.23 290.52 C362.11 292.58 359.78 294.81 356.62 298.06 C353.2 300.15 350.08 300.17 346.23 299.52 C343.68 298.38 341.52 297.28 339.17 295.83 C331.76 291.58 324.39 289.01 316.23 286.52 C308.57 284.02 308.57 284.02 306.23 280.52 C305.93 277.76 305.72 275.1 305.61 272.33 C305.48 269.76 305.36 267.18 305.23 264.52 C297.31 264.52 289.39 264.52 281.23 264.52 Z " fill="#FD346E" transform="translate(40.76863098144531,-0.521392822265625)"/>
<path d="M0 0 C1.16 -0 2.31 -0 3.5 -0.01 C5.94 -0.01 8.38 0.01 10.82 0.03 C14.55 0.07 18.28 0.05 22.01 0.03 C24.38 0.04 26.75 0.05 29.12 0.06 C30.8 0.06 30.8 0.06 32.5 0.05 C40.2 0.16 40.2 0.16 44.18 2.48 C47.52 6.43 47.12 10.41 47.06 15.32 C47.05 16.02 47.05 16.72 47.04 17.44 C47.03 19.17 47.02 20.9 47 22.63 C47.92 22.91 48.85 23.2 49.8 23.49 C53 24.63 53 24.63 56.06 26.82 C58.76 28.89 58.76 28.89 61.38 28.41 C64.15 27.58 66.36 26.44 68.87 25 C72.27 23.27 73.91 22.63 77.81 22.5 C83.86 24.64 86.75 29.48 89.77 34.89 C90.11 35.48 90.44 36.07 90.79 36.68 C91.84 38.55 92.89 40.44 93.93 42.32 C94.97 44.17 96.02 46.03 97.06 47.88 C97.74 49.09 98.42 50.3 99.1 51.51 C101.58 55.93 104.18 60.27 106.86 64.58 C109.2 68.82 109.43 72.11 108.12 76.69 C104.48 81.72 99.15 85.44 93 86.63 C93.33 87.62 93.66 88.61 94 89.63 C94.09 91.48 94.13 93.34 94.12 95.19 C94.12 96.16 94.13 97.13 94.13 98.13 C94 100.63 94 100.63 93 102.63 C93.72 102.9 94.45 103.17 95.2 103.45 C97.9 104.59 100.23 105.86 102.68 107.44 C103.83 108.16 103.83 108.16 105.01 108.9 C107.48 111.05 108.22 112.44 109 115.63 C108.59 120.87 107.32 124.46 104.68 128.98 C104.34 129.56 104.01 130.14 103.67 130.74 C102.6 132.58 101.52 134.42 100.43 136.25 C99.73 137.46 99.04 138.67 98.34 139.88 C96.6 142.87 94.84 145.86 93.06 148.84 C91.98 150.66 90.92 152.49 89.86 154.32 C89.17 155.49 88.47 156.67 87.78 157.84 C87.17 158.88 86.56 159.92 85.94 161 C83.85 163.82 82.14 165.12 79 166.63 C73.9 167.21 69.91 165.81 65.75 162.94 C62.9 160.85 62.9 160.85 59.5 161.07 C58.67 161.58 57.85 162.1 57 162.63 C55.61 163.35 54.21 164.06 52.81 164.75 C52.13 165.11 51.46 165.46 50.77 165.82 C49 166.63 49 166.63 47 166.63 C47.04 167.73 47.09 168.82 47.14 169.95 C47.17 171.41 47.21 172.86 47.25 174.32 C47.28 175.04 47.31 175.76 47.35 176.5 C47.42 180.26 47.24 182.21 45.29 185.52 C39.99 190.38 34.3 189.94 27.47 189.93 C26.45 189.93 25.43 189.94 24.38 189.94 C22.23 189.95 20.08 189.95 17.92 189.94 C14.64 189.94 11.36 189.96 8.07 189.99 C5.98 189.99 3.88 189.99 1.79 189.99 C0.81 190 -0.17 190.01 -1.17 190.02 C-6.88 189.98 -11 189.45 -16 186.63 C-18.21 183.31 -18.06 181.87 -17.92 178.03 C-17.81 172.68 -17.74 168.97 -21.52 164.95 C-27.45 161.2 -27.45 161.2 -34.19 161.34 C-37.18 162.62 -37.18 162.62 -40.32 164.82 C-43.9 166.92 -46.72 166.91 -50.79 166.57 C-57.98 163.5 -61.77 153.39 -65.38 147 C-66.66 144.76 -67.94 142.52 -69.21 140.28 C-69.84 139.18 -70.46 138.08 -71.1 136.94 C-73.56 132.66 -76.1 128.43 -78.67 124.21 C-80.74 120.21 -80.92 118.05 -80 113.63 C-76.57 107.98 -71.84 105.5 -66 102.63 C-65.42 97.15 -65.11 92.08 -66 86.63 C-68.89 83.55 -72.18 82.28 -76 80.63 C-79.02 77.83 -79.88 76.6 -80.38 72.54 C-79.88 67.38 -77.91 63.99 -75.32 59.57 C-74.83 58.71 -74.34 57.86 -73.84 56.98 C-72.8 55.15 -71.74 53.33 -70.68 51.51 C-68.94 48.53 -67.23 45.53 -65.52 42.54 C-64.37 40.54 -63.22 38.56 -62.07 36.57 C-61.52 35.62 -60.98 34.68 -60.42 33.7 C-59.9 32.82 -59.39 31.94 -58.85 31.03 C-58.4 30.25 -57.94 29.47 -57.48 28.67 C-55.08 25.34 -52.77 23.87 -48.88 22.63 C-44.12 22.63 -41.42 24.1 -37.34 26.4 C-34.31 28.02 -34.31 28.02 -31 28.63 C-28.19 27.44 -28.19 27.44 -25.38 25.69 C-20.17 22.63 -20.17 22.63 -18 22.63 C-18.11 20.88 -18.11 20.88 -18.21 19.09 C-18.27 17.54 -18.33 15.99 -18.38 14.44 C-18.43 13.67 -18.48 12.9 -18.53 12.11 C-18.55 11.36 -18.57 10.61 -18.59 9.84 C-18.62 9.15 -18.65 8.46 -18.69 7.76 C-17.8 5 -16.34 3.38 -14.06 1.64 C-9.67 -0.51 -4.78 -0.06 0 0 Z M3 21.63 C2.69 23.71 2.38 25.8 2.06 27.94 C1.56 31.32 1.08 34.39 -0 37.63 C-1.98 38.37 -3.98 39.03 -6 39.63 C-11.82 42.21 -17.35 44.93 -22.32 48.94 C-25.86 51.71 -28.38 52.79 -33 52.63 C-35.16 51.71 -37.12 50.68 -39.11 49.44 C-41.57 48.38 -42.53 48.66 -45 49.63 C-46.46 51.4 -46.46 51.4 -47.58 53.66 C-48.02 54.47 -48.46 55.28 -48.91 56.12 C-49.35 56.97 -49.8 57.82 -50.25 58.69 C-50.71 59.55 -51.17 60.4 -51.64 61.28 C-52.78 63.39 -53.9 65.51 -55 67.63 C-52.43 69.69 -49.86 71.74 -47.25 73.75 C-45 75.63 -45 75.63 -44 77.63 C-43.89 80.14 -43.84 82.61 -43.84 85.12 C-43.83 85.86 -43.83 86.61 -43.83 87.37 C-43.82 88.94 -43.82 90.51 -43.82 92.09 C-43.82 94.49 -43.8 96.89 -43.78 99.29 C-43.78 100.82 -43.77 102.34 -43.77 103.87 C-43.77 104.59 -43.76 105.3 -43.75 106.04 C-43.77 109.72 -43.87 112.56 -46 115.63 C-48.17 117.11 -48.17 117.11 -50.63 118.38 C-51.45 118.81 -52.26 119.23 -53.11 119.68 C-53.73 119.99 -54.36 120.3 -55 120.63 C-53.3 125.36 -50.87 129.59 -48.38 133.94 C-47.75 135.05 -47.75 135.05 -47.11 136.19 C-46.07 138 -45.04 139.82 -44 141.63 C-43.48 141.35 -42.96 141.07 -42.43 140.78 C-36.78 137.81 -32.42 136.29 -26 137.63 C-23.95 138.8 -22.33 140.17 -20.55 141.72 C-16.38 144.84 -11.62 146.95 -6.91 149.12 C-3.1 150.99 -1.3 152.13 0.95 155.85 C2 159.63 2 159.63 3 168.63 C10.59 168.63 18.18 168.63 26 168.63 C26.12 166.73 26.24 164.83 26.37 162.88 C26.86 155.39 26.86 155.39 29 152.63 C31.49 151.22 33.9 149.99 36.5 148.82 C41.53 146.45 46.02 144.07 50.43 140.63 C54.29 137.8 57.02 136.73 61.81 137.12 C65.6 138.01 68.64 139.68 72 141.63 C73.27 139.57 74.54 137.5 75.81 135.44 C76.17 134.86 76.52 134.29 76.89 133.69 C77.93 132 78.96 130.32 80 128.63 C80.9 127.3 80.9 127.3 81.82 125.95 C83.17 123.74 83.17 123.74 82.93 121.47 C81.4 118.46 78.81 117.58 75.91 116.07 C73.29 114.1 72.78 112.82 72 109.63 C71.94 106.57 72.18 103.55 72.43 100.5 C72.83 95 73.09 89.81 72.37 84.32 C72.01 81.09 72.04 79.48 72.87 76.25 C75.92 72.49 79.67 70.68 84 68.63 C82.73 66.23 81.46 63.84 80.18 61.44 C79.83 60.77 79.47 60.09 79.1 59.4 C77.16 55.75 75.17 52.15 73 48.63 C69.93 49.08 67.89 49.69 65.18 51.25 C61.08 53.03 58.13 53.16 54 51.63 C51.24 49.83 48.68 47.85 46.09 45.82 C41.62 42.65 36.84 40.52 31.87 38.27 C29 36.63 29 36.63 27 32.63 C26.5 27.18 26.5 27.18 26 21.63 C18.41 21.63 10.82 21.63 3 21.63 Z " fill="#FD346E" transform="translate(120.00390625,119.37109375)"/>
<path d="M0 0 C13.74 13.13 21.52 30.49 22 49.44 C21.73 67.05 15.03 83.9 2.81 96.69 C-11.62 110.07 -28.75 115.67 -48.19 115.69 C-62.01 114.83 -74.01 109.69 -85.19 101.69 C-85.82 101.24 -86.46 100.79 -87.11 100.33 C-99.69 90.52 -107.59 74.29 -109.88 58.69 C-111.65 40.23 -106.99 23.77 -96.19 8.69 C-95.74 8.05 -95.29 7.42 -94.83 6.77 C-85.02 -5.81 -68.79 -13.72 -53.19 -16 C-32.92 -17.95 -16.29 -11.82 0 0 Z M-80.02 22.92 C-87.35 33.37 -90.58 44.85 -88.69 57.62 C-85.63 70.06 -78.87 81.01 -67.85 87.72 C-56.84 93.75 -46.68 95.96 -34.19 93.69 C-21.9 89.96 -11.66 82.57 -4.87 71.54 C0.77 60.62 2.48 48.53 -1.19 36.69 C-5.2 25.22 -13.26 15.25 -24 9.38 C-44.65 0.1 -65.74 5.47 -80.02 22.92 Z " fill="#FD346E" transform="translate(378.1875,328.3125)"/>
<path d="M0 0 C0.92 -0.01 1.85 -0.02 2.8 -0.02 C5.9 -0.04 8.99 -0.03 12.09 -0.01 C14.31 -0.02 16.53 -0.03 18.74 -0.04 C24.77 -0.06 30.8 -0.05 36.83 -0.04 C43.14 -0.02 49.44 -0.04 55.75 -0.04 C67.01 -0.05 78.28 -0.04 89.55 -0.01 C99.76 0.01 109.98 0.01 120.19 -0.02 C132.06 -0.04 143.92 -0.05 155.78 -0.04 C162.06 -0.03 168.34 -0.03 174.62 -0.05 C180.53 -0.06 186.43 -0.05 192.33 -0.02 C194.5 -0.02 196.67 -0.02 198.84 -0.03 C201.79 -0.04 204.75 -0.02 207.71 0 C209 -0.02 209 -0.02 210.32 -0.03 C214.67 0.04 216.35 0.24 219.88 3.02 C222.02 5.86 222.53 7.13 222.48 10.63 C222.49 11.46 222.5 12.28 222.52 13.13 C221.53 16.87 219.88 18.26 216.85 20.63 C213.8 21.36 210.83 21.31 207.71 21.27 C206.78 21.28 205.86 21.29 204.91 21.29 C201.81 21.31 198.71 21.3 195.62 21.28 C193.4 21.29 191.18 21.3 188.96 21.31 C182.93 21.33 176.9 21.32 170.87 21.31 C164.57 21.29 158.26 21.31 151.96 21.31 C140.69 21.32 129.42 21.31 118.16 21.28 C107.94 21.26 97.73 21.26 87.51 21.29 C75.65 21.31 63.79 21.32 51.92 21.31 C45.64 21.3 39.36 21.3 33.08 21.32 C27.18 21.33 21.28 21.32 15.37 21.29 C13.2 21.29 11.04 21.29 8.87 21.3 C5.91 21.31 2.96 21.29 0 21.27 C-1.29 21.29 -1.29 21.29 -2.61 21.3 C-6.96 21.23 -8.64 21.03 -12.18 18.25 C-14.32 15.41 -14.83 14.14 -14.77 10.63 C-14.79 9.81 -14.8 8.98 -14.81 8.13 C-12.74 0.33 -6.85 -0.09 0 0 Z " fill="#FD346E" transform="translate(236.1474609375,39.365081787109375)"/>
<path d="M0 0 C8.36 5.99 12.6 13.41 14.57 23.46 C15.7 33.37 13.15 42.27 7.37 50.35 C0.79 58.06 -6.88 62.03 -16.8 63.27 C-27 63.93 -35.35 61.25 -43.37 54.93 C-49.79 49.04 -54.07 41.05 -54.63 32.32 C-54.79 20.15 -52.89 12.44 -44.43 3.46 C-31.85 -8.09 -14.32 -9.09 0 0 Z M-32.3 21.71 C-33.8 25.35 -34.12 28.61 -33.43 32.46 C-30.78 37.48 -28.12 40.6 -22.68 42.33 C-17.19 42.54 -13.07 40.93 -8.99 37.27 C-6.98 33.64 -6.23 30.6 -6.43 26.46 C-8.14 21.32 -10.86 18.33 -15.43 15.46 C-22.6 13.98 -27.61 16.07 -32.3 21.71 Z " fill="#FD346E" transform="translate(154.4296875,185.54296875)"/>
<path d="M0 0 C0.93 -0.01 1.86 -0.02 2.82 -0.03 C3.84 -0.03 4.86 -0.03 5.91 -0.03 C6.98 -0.04 8.06 -0.05 9.17 -0.06 C12.73 -0.08 16.29 -0.09 19.86 -0.1 C22.33 -0.11 24.8 -0.12 27.27 -0.12 C32.46 -0.14 37.65 -0.15 42.83 -0.15 C49.49 -0.16 56.14 -0.19 62.79 -0.24 C67.89 -0.27 73 -0.28 78.11 -0.28 C80.56 -0.28 83.01 -0.29 85.47 -0.32 C88.89 -0.34 92.32 -0.34 95.75 -0.33 C96.76 -0.34 97.78 -0.35 98.83 -0.37 C103.53 -0.32 105.73 -0.28 109.57 2.63 C111.8 5.75 112.46 7.43 112.46 11.27 C111.01 15.62 110.31 17.71 106.46 20.27 C104.37 20.53 104.37 20.53 101.92 20.54 C100.99 20.55 100.06 20.56 99.1 20.57 C97.57 20.57 97.57 20.57 96.01 20.56 C94.4 20.57 94.4 20.57 92.75 20.59 C89.19 20.6 85.62 20.61 82.06 20.61 C79.59 20.62 77.12 20.62 74.64 20.63 C69.46 20.64 64.27 20.65 59.08 20.64 C52.43 20.64 45.78 20.67 39.13 20.71 C34.02 20.73 28.92 20.73 23.81 20.73 C21.36 20.73 18.9 20.74 16.45 20.76 C13.02 20.78 9.6 20.77 6.17 20.76 C5.15 20.77 4.14 20.78 3.09 20.79 C-1.31 20.75 -3.84 20.7 -7.66 18.38 C-10.32 15.41 -10.45 13.32 -10.68 9.46 C-10.48 6.37 -9.53 4.62 -7.54 2.27 C-4.38 0.17 -3.61 0.02 0 0 Z " fill="#FD346E" transform="translate(288.5411071777344,197.72584533691406)"/>
<path d="M0 0 C0.93 -0.01 1.86 -0.02 2.81 -0.03 C5.89 -0.05 8.97 -0.06 12.04 -0.06 C14.18 -0.07 16.32 -0.08 18.45 -0.09 C22.93 -0.11 27.41 -0.12 31.89 -0.12 C37.64 -0.12 43.38 -0.16 49.12 -0.21 C53.53 -0.24 57.95 -0.24 62.36 -0.25 C64.48 -0.25 66.59 -0.26 68.71 -0.28 C71.67 -0.31 74.63 -0.31 77.59 -0.29 C78.47 -0.31 79.34 -0.32 80.25 -0.34 C84.65 -0.28 86.39 -0.12 89.97 2.69 C92.09 5.53 92.61 6.81 92.55 10.31 C92.57 11.54 92.57 11.54 92.59 12.81 C91.6 16.54 89.96 17.93 86.93 20.31 C83.82 21.03 80.8 20.98 77.63 20.94 C76.7 20.94 75.77 20.95 74.81 20.96 C71.74 20.98 68.68 20.96 65.61 20.94 C63.48 20.94 61.35 20.94 59.21 20.94 C54.75 20.95 50.28 20.93 45.81 20.9 C40.08 20.87 34.36 20.88 28.63 20.89 C24.22 20.9 19.82 20.9 15.42 20.88 C13.3 20.88 11.19 20.88 9.08 20.88 C6.13 20.89 3.18 20.87 0.23 20.84 C-0.64 20.85 -1.52 20.85 -2.41 20.86 C-6.49 20.8 -8.57 20.62 -12.1 18.41 C-14.87 15.46 -14.98 13.41 -15.21 9.49 C-15.02 6.4 -14.06 4.65 -12.07 2.31 C-8.1 -0.35 -4.62 0 0 0 Z " fill="#FD346E" transform="translate(366.07373046875,149.693603515625)"/>
<path d="M0 0 C0.67 -0.01 1.33 -0.01 2.02 -0.02 C4.21 -0.04 6.39 -0.02 8.58 0 C10.11 0 11.64 -0 13.17 -0.01 C16.37 -0.01 19.56 0.01 22.76 0.03 C26.85 0.07 30.94 0.06 35.04 0.04 C38.19 0.03 41.34 0.04 44.5 0.06 C46.01 0.06 47.51 0.06 49.02 0.06 C51.13 0.05 53.24 0.07 55.36 0.1 C56.56 0.1 57.75 0.11 58.99 0.12 C62.79 0.73 64.45 1.96 67.18 4.63 C68.78 7.83 68.68 11.16 68.18 14.63 C66.38 17.44 65.16 19.14 62.18 20.63 C60.02 20.75 57.86 20.8 55.7 20.82 C55.03 20.83 54.37 20.84 53.68 20.85 C51.47 20.87 49.27 20.89 47.06 20.9 C46.31 20.91 45.56 20.92 44.78 20.92 C40.8 20.95 36.81 20.97 32.82 20.98 C28.71 21 24.59 21.04 20.47 21.09 C17.31 21.13 14.14 21.14 10.97 21.14 C9.46 21.15 7.94 21.17 6.42 21.19 C4.3 21.22 2.17 21.22 0.05 21.21 C-1.77 21.23 -1.77 21.23 -3.61 21.24 C-7.74 20.46 -9.22 18.86 -11.82 15.63 C-12.49 13.13 -12.49 13.13 -12.45 10.63 C-12.46 9.81 -12.47 8.98 -12.49 8.13 C-10.77 1.66 -6.16 0 0 0 Z " fill="#FD346E" transform="translate(65.822265625,393.368896484375)"/>
<path d="M0 0 C1.29 -0 2.58 -0.01 3.91 -0.01 C6.64 -0.02 9.36 -0.01 12.09 0.01 C15.58 0.04 19.06 0.02 22.55 -0.01 C25.89 -0.03 29.23 -0.01 32.56 0 C33.81 -0.01 35.06 -0.02 36.35 -0.03 C45.97 0.1 45.97 0.1 49.04 3.08 C51.63 6.93 52.23 8.98 51.78 13.66 C48.62 19.24 48.62 19.24 45.78 20.66 C43.93 20.78 42.07 20.83 40.22 20.86 C38.47 20.88 38.47 20.88 36.69 20.91 C31.36 20.95 26.03 20.99 20.7 21.01 C17.88 21.03 15.07 21.06 12.26 21.1 C8.21 21.15 4.16 21.17 0.11 21.19 C-1.15 21.21 -2.41 21.23 -3.71 21.26 C-13.42 21.23 -13.42 21.23 -16.51 18.29 C-18.35 15.46 -18.9 14.01 -18.84 10.66 C-18.86 9.84 -18.87 9.01 -18.88 8.16 C-18.16 5.43 -17.18 3.69 -15.12 1.73 C-10.65 -0.78 -4.98 -0.04 0 0 Z " fill="#FD346E" transform="translate(117.21875,345.3359375)"/>
<path d="M0 0 C1.07 -0.01 1.07 -0.01 2.17 -0.03 C3.69 -0.04 5.2 -0.05 6.71 -0.05 C9.02 -0.07 11.33 -0.12 13.64 -0.17 C15.11 -0.18 16.59 -0.18 18.06 -0.19 C18.75 -0.21 19.44 -0.23 20.14 -0.25 C24.02 -0.21 25.55 0.27 28.58 2.78 C31.61 6.55 32.13 8.53 31.66 13.37 C28.51 18.95 28.51 18.95 25.66 20.37 C23.24 20.51 20.85 20.58 18.43 20.61 C17.71 20.62 16.99 20.63 16.25 20.63 C14.73 20.65 13.21 20.66 11.69 20.67 C9.37 20.68 7.05 20.73 4.74 20.77 C3.26 20.78 1.78 20.79 0.3 20.8 C-0.73 20.82 -0.73 20.82 -1.79 20.85 C-5.36 20.83 -7.24 20.44 -10.26 18.48 C-13.15 15.54 -13.24 13.53 -13.48 9.56 C-13.28 6.47 -12.32 4.71 -10.34 2.37 C-6.76 -0.01 -4.13 0.03 0 0 Z " fill="#FD346E" transform="translate(291.3359375,149.62890625)"/>
<path d="M0 0 C1.19 -0.04 2.38 -0.07 3.6 -0.11 C12.33 -0.2 12.33 -0.2 16.47 2.59 C18.26 5.49 18.87 6.99 18.81 10.38 C18.83 11.2 18.84 12.03 18.85 12.88 C17.8 16.82 16.6 18.06 13.19 20.38 C8.84 21.09 4.58 21.03 0.19 20.94 C-0.99 20.95 -2.16 20.96 -3.38 20.97 C-13.09 20.89 -13.09 20.89 -17.81 16.38 C-19.41 13.17 -19.31 9.85 -18.81 6.38 C-13.99 -1.19 -8.27 0.1 0 0 Z " fill="#FD346E" transform="translate(439.8125,197.625)"/>
<path d="M0 0 C3.16 2.26 4.55 3.83 5.94 7.44 C6.04 11.73 4.77 14.78 2.5 18.38 C-1.49 20.97 -5.39 20.83 -10 20 C-13.12 18.12 -13.12 18.12 -15 15 C-15.99 9.97 -15.78 6.29 -13.12 1.88 C-8.73 -0.76 -5 -1.03 0 0 Z " fill="#FD346E" transform="translate(69,346)"/>
<path d="M0 0 C3.12 1.88 3.12 1.88 5 5 C5.99 10.03 5.78 13.71 3.12 18.12 C-1.29 20.78 -4.97 20.99 -10 20 C-13.12 18.12 -13.12 18.12 -15 15 C-15.99 9.97 -15.78 6.29 -13.12 1.88 C-8.71 -0.78 -5.03 -0.99 0 0 Z " fill="#FD346E" transform="translate(507,260)"/>
<path d="M0 0 C3.12 1.88 3.12 1.88 5 5 C5.99 10.03 5.78 13.71 3.12 18.12 C-1.29 20.78 -4.97 20.99 -10 20 C-13.12 18.12 -13.12 18.12 -15 15 C-15.99 9.97 -15.78 6.29 -13.12 1.88 C-8.71 -0.78 -5.03 -0.99 0 0 Z " fill="#FD346E" transform="translate(157,40)"/>
<path d="M0 0 C3.12 1.88 3.12 1.88 5 5 C5.99 10.03 5.78 13.71 3.12 18.12 C-1.29 20.78 -4.97 20.99 -10 20 C-13.12 18.12 -13.12 18.12 -15 15 C-15.99 9.97 -15.78 6.29 -13.12 1.88 C-8.71 -0.78 -5.03 -0.99 0 0 Z " fill="#FD346E" transform="translate(113,40)"/>
<path d="M0 0 C3.12 1.88 3.12 1.88 5 5 C5.99 10.03 5.78 13.71 3.12 18.12 C-1.29 20.78 -4.97 20.99 -10 20 C-13.12 18.12 -13.12 18.12 -15 15 C-15.99 9.97 -15.78 6.29 -13.12 1.88 C-8.71 -0.78 -5.03 -0.99 0 0 Z " fill="#FD346E" transform="translate(69,40)"/>
</svg>
