<?xml version="1.0" encoding="UTF-8"?>
<!-- Generator: visioncortex VTracer 0.6.4 -->
<svg version="1.1" xmlns="http://www.w3.org/2000/svg" width="512" height="512">
    <path
        d="M0 0 C0.96 -0 1.93 -0.01 2.92 -0.01 C6.15 -0.02 9.37 -0.02 12.6 -0.01 C14.91 -0.02 17.23 -0.02 19.54 -0.03 C25.83 -0.04 32.11 -0.04 38.4 -0.04 C43.65 -0.04 48.89 -0.04 54.14 -0.05 C67.22 -0.06 80.3 -0.06 93.39 -0.05 C104.74 -0.05 116.1 -0.06 127.46 -0.08 C139.12 -0.1 150.79 -0.11 162.46 -0.1 C169.01 -0.1 175.56 -0.1 182.1 -0.12 C188.26 -0.13 194.42 -0.13 200.57 -0.12 C202.83 -0.11 205.09 -0.12 207.35 -0.12 C210.44 -0.13 213.52 -0.13 216.61 -0.11 C217.5 -0.12 218.39 -0.13 219.31 -0.14 C226.19 -0.08 231.67 1.4 237.05 5.95 C237.59 6.39 238.13 6.82 238.69 7.27 C243.78 13.31 244.95 19.17 244.82 26.89 C244.82 27.82 244.82 28.75 244.82 29.7 C244.82 32.74 244.79 35.78 244.76 38.82 C244.75 40.94 244.74 43.06 244.74 45.18 C244.72 50.74 244.69 56.29 244.64 61.85 C244.6 67.53 244.58 73.2 244.56 78.88 C244.52 90.01 244.45 101.13 244.37 112.26 C244.96 112.25 245.55 112.24 246.15 112.23 C252.33 112.14 258.51 112.08 264.7 112.04 C267 112.02 269.3 111.99 271.6 111.96 C274.93 111.91 278.25 111.89 281.57 111.87 C282.59 111.85 283.6 111.83 284.65 111.81 C295.97 111.8 305.16 115.43 313.37 123.26 C323.9 134.29 324.94 145.8 324.62 160.45 C324.53 165.67 324.45 170.88 324.37 176.26 C334.93 176.26 345.49 176.26 356.37 176.26 C356.37 223.78 356.37 271.3 356.37 320.26 C345.81 320.26 335.25 320.26 324.37 320.26 C324.41 324.83 324.46 329.39 324.51 334.09 C324.53 337 324.55 339.92 324.56 342.83 C324.59 347.44 324.61 352.05 324.67 356.66 C324.71 360.38 324.74 364.1 324.75 367.83 C324.75 369.24 324.77 370.65 324.79 372.06 C324.98 385.29 322.67 395.51 313.37 405.26 C304.47 413.75 294.62 416.9 282.48 416.71 C280.94 416.72 280.94 416.72 279.37 416.72 C276.02 416.71 272.67 416.68 269.32 416.65 C266.98 416.64 264.65 416.64 262.31 416.63 C256.18 416.62 250.06 416.58 243.94 416.54 C237.68 416.49 231.41 416.48 225.15 416.46 C212.89 416.41 200.63 416.34 188.37 416.26 C188.37 426.82 188.37 437.38 188.37 448.26 C190.94 448.18 193.52 448.1 196.18 448.01 C207.95 447.9 216.75 451.04 225.37 459.26 C236.21 470.62 236.37 480.07 236.37 496.26 C151.89 496.26 67.41 496.26 -19.63 496.26 C-19.63 480.07 -19.48 470.62 -8.63 459.26 C-0.02 451.04 8.79 447.9 20.55 448.01 C23.13 448.09 25.71 448.18 28.37 448.26 C28.37 437.7 28.37 427.14 28.37 416.26 C25.24 416.28 22.12 416.3 18.9 416.32 C8.56 416.39 -1.79 416.43 -12.13 416.47 C-18.4 416.49 -24.67 416.52 -30.94 416.56 C-37 416.61 -43.05 416.63 -49.11 416.64 C-51.42 416.65 -53.72 416.66 -56.03 416.68 C-59.27 416.71 -62.51 416.72 -65.75 416.71 C-66.69 416.73 -67.63 416.74 -68.6 416.76 C-79.59 416.69 -88.7 412.84 -96.63 405.26 C-106.33 395.1 -108.21 384.4 -107.91 370.82 C-107.86 368.45 -107.84 366.07 -107.83 363.69 C-107.8 356.94 -107.73 350.2 -107.6 343.45 C-107.52 339.3 -107.49 335.15 -107.49 331 C-107.49 329.43 -107.46 327.86 -107.41 326.29 C-106.96 317.3 -106.96 317.3 -111 309.63 C-113.84 307.49 -113.84 307.49 -116.81 305.88 C-127.79 299.58 -134.99 285.5 -138.63 273.7 C-142.56 254.89 -139.78 236.32 -129.8 220.03 C-126.25 214.64 -121.93 209.06 -116.2 205.93 C-110.72 202.82 -110.72 202.82 -107.74 197.51 C-107.45 194.13 -107.46 190.88 -107.58 187.5 C-107.58 185.65 -107.58 185.65 -107.58 183.77 C-107.6 179.85 -107.67 175.93 -107.76 172.01 C-107.81 168.1 -107.85 164.2 -107.87 160.29 C-107.88 157.87 -107.92 155.44 -107.98 153.02 C-108.12 141.17 -104.87 131.88 -96.63 123.26 C-87.4 114.44 -77.4 111.61 -64.84 111.87 C-63.77 111.88 -62.7 111.88 -61.59 111.89 C-58.21 111.91 -54.83 111.96 -51.45 112.01 C-49.14 112.03 -46.83 112.05 -44.51 112.07 C-38.89 112.11 -33.26 112.18 -27.63 112.26 C-27.64 111.09 -27.65 109.92 -27.66 108.71 C-27.74 97.64 -27.8 86.58 -27.84 75.52 C-27.86 69.83 -27.89 64.14 -27.94 58.45 C-27.98 52.96 -28 47.47 -28.01 41.98 C-28.02 39.88 -28.04 37.79 -28.06 35.7 C-28.09 32.76 -28.09 29.83 -28.09 26.89 C-28.1 26.03 -28.12 25.17 -28.13 24.28 C-28.08 17.42 -26.2 12.25 -21.7 7.02 C-21.06 6.48 -20.42 5.94 -19.76 5.39 C-18.8 4.55 -18.8 4.55 -17.83 3.71 C-12.17 -0.02 -6.53 -0.03 0 0 Z M-10.63 21.26 C-11.97 25.28 -11.78 29.15 -11.78 33.33 C-11.78 34.26 -11.79 35.19 -11.79 36.15 C-11.8 39.23 -11.8 42.3 -11.8 45.38 C-11.81 47.51 -11.81 49.65 -11.81 51.79 C-11.82 56.27 -11.82 60.75 -11.82 65.23 C-11.82 70.97 -11.83 76.71 -11.85 82.45 C-11.86 86.87 -11.86 91.28 -11.86 95.69 C-11.86 97.81 -11.87 99.93 -11.88 102.04 C-11.89 105.01 -11.88 107.97 -11.88 110.93 C-11.88 111.8 -11.89 112.68 -11.89 113.58 C-11.9 119.69 -11.9 119.69 -9.63 125.26 C-5.48 128.84 -1.13 128.67 4.1 128.6 C4.97 128.6 5.84 128.6 6.74 128.6 C9.6 128.6 12.46 128.58 15.32 128.55 C17.31 128.55 19.3 128.54 21.29 128.54 C26.51 128.53 31.74 128.5 36.97 128.47 C42.3 128.44 47.64 128.42 52.97 128.41 C63.44 128.38 73.9 128.32 84.37 128.26 C84.36 129.06 84.35 129.85 84.33 130.68 C84.29 134.29 84.27 137.9 84.24 141.51 C84.22 143.39 84.22 143.39 84.19 145.31 C84.18 146.52 84.18 147.72 84.17 148.96 C84.16 150.07 84.15 151.18 84.14 152.33 C84.36 155.2 84.87 156.83 86.37 159.26 C90.45 159.57 92.49 158.92 95.85 156.61 C96.7 156.04 97.56 155.46 98.44 154.86 C99.35 154.23 100.25 153.6 101.19 152.95 C102.13 152.31 103.08 151.67 104.05 151.01 C107.06 148.96 110.06 146.89 113.05 144.82 C116.07 142.76 119.08 140.71 122.09 138.65 C123.97 137.37 125.84 136.08 127.71 134.8 C128.56 134.21 129.4 133.63 130.27 133.04 C131.02 132.52 131.76 132.01 132.53 131.48 C136.41 128.9 139.78 129.11 144.32 129.1 C145.14 129.1 145.96 129.09 146.81 129.09 C148.59 129.08 150.38 129.07 152.17 129.06 C155 129.05 157.82 129.03 160.65 129.01 C168.7 128.95 176.74 128.89 184.78 128.86 C189.7 128.84 194.62 128.8 199.53 128.76 C201.41 128.74 203.28 128.74 205.16 128.73 C207.78 128.73 210.4 128.7 213.03 128.68 C213.8 128.68 214.57 128.68 215.37 128.69 C219.85 128.62 222.9 128.2 226.37 125.26 C229.07 120.87 228.65 115.97 228.64 110.98 C228.65 110.05 228.65 109.12 228.66 108.17 C228.67 105.1 228.67 102.04 228.67 98.98 C228.67 96.85 228.68 94.72 228.68 92.59 C228.69 88.13 228.69 83.66 228.68 79.2 C228.68 73.48 228.69 67.76 228.72 62.04 C228.73 57.64 228.73 53.24 228.73 48.84 C228.73 46.74 228.73 44.63 228.74 42.52 C228.76 39.57 228.75 36.62 228.74 33.68 C228.75 32.81 228.75 31.94 228.76 31.04 C228.72 26.05 228.16 22.58 225.37 18.26 C221.98 16.57 218.14 17.11 214.42 17.11 C213.48 17.11 212.54 17.11 211.58 17.1 C208.42 17.09 205.25 17.09 202.09 17.08 C199.83 17.08 197.57 17.07 195.31 17.06 C189.16 17.05 183 17.04 176.85 17.03 C173.01 17.02 169.17 17.02 165.33 17.01 C154.7 16.99 144.07 16.98 133.44 16.97 C130.69 16.97 127.93 16.97 125.17 16.97 C124.48 16.97 123.8 16.96 123.09 16.96 C111.98 16.96 100.86 16.93 89.75 16.9 C78.35 16.86 66.94 16.85 55.54 16.84 C49.13 16.84 42.73 16.83 36.32 16.81 C30.3 16.78 24.28 16.78 18.25 16.79 C16.04 16.79 13.83 16.78 11.61 16.77 C8.6 16.75 5.58 16.76 2.57 16.77 C1.68 16.76 0.8 16.75 -0.11 16.74 C-4.97 16.79 -7.68 16.98 -10.63 21.26 Z M-85.88 137.7 C-91.76 144.91 -91.78 152.89 -91.73 161.82 C-91.73 162.72 -91.73 163.62 -91.73 164.55 C-91.72 167.41 -91.71 170.27 -91.7 173.14 C-91.69 175.08 -91.69 177.03 -91.68 178.98 C-91.67 183.74 -91.65 188.5 -91.63 193.26 C-90.88 193.24 -90.12 193.23 -89.35 193.21 C-85.86 193.15 -82.37 193.11 -78.88 193.07 C-77.7 193.05 -76.51 193.02 -75.29 193 C-64.42 192.91 -54.56 194.55 -45.01 199.89 C-44.38 200.23 -43.75 200.58 -43.1 200.94 C-29.08 208.94 -20.2 221.26 -14.63 236.26 C-13.64 240.22 -12.65 244.18 -11.63 248.26 C-1.07 248.26 9.49 248.26 20.37 248.26 C20.37 240.34 20.37 232.42 20.37 224.26 C36.21 224.26 52.05 224.26 68.37 224.26 C68.37 250.66 68.37 277.06 68.37 304.26 C73.65 304.26 78.93 304.26 84.37 304.26 C84.37 267.3 84.37 230.34 84.37 192.26 C100.21 192.26 116.05 192.26 132.37 192.26 C132.37 229.22 132.37 266.18 132.37 304.26 C137.65 304.26 142.93 304.26 148.37 304.26 C148.37 272.58 148.37 240.9 148.37 208.26 C164.21 208.26 180.05 208.26 196.37 208.26 C196.37 221.46 196.37 234.66 196.37 248.26 C212.21 248.26 228.05 248.26 244.37 248.26 C244.37 224.5 244.37 200.74 244.37 176.26 C265.49 176.26 286.61 176.26 308.37 176.26 C309.85 155.64 309.85 155.64 302.37 137.26 C292.14 127.11 280.26 127.92 266.67 127.75 C264.76 127.71 262.84 127.67 260.93 127.6 C258.16 127.51 255.39 127.47 252.61 127.44 C251.76 127.41 250.91 127.37 250.03 127.33 C247.56 127.34 245.69 127.43 243.37 128.26 C241.64 130.15 240.54 131.98 239.4 134.26 C236.7 139.46 231.75 141.95 226.37 143.66 C220.3 144.87 214.09 144.54 207.93 144.43 C205.31 144.38 202.7 144.37 200.08 144.36 C192.64 144.34 185.2 144.3 177.76 144.17 C173.19 144.09 168.63 144.07 164.06 144.08 C162.33 144.08 160.61 144.05 158.89 144 C145.69 143.66 137.72 146.9 127.23 154.87 C124.3 157.05 121.24 159 118.16 160.98 C114 163.71 114 163.71 109.84 166.45 C108.18 167.55 106.51 168.64 104.85 169.73 C103.89 170.37 102.93 171 101.94 171.65 C95.39 175.76 90.07 175.91 82.37 175.26 C78.74 173.82 78.74 173.82 76.37 172.26 C75.38 171.93 74.39 171.6 73.37 171.26 C72.3 169.51 72.3 169.51 71.37 167.26 C71.03 166.57 70.69 165.88 70.35 165.17 C69.03 161.26 68.91 157.55 68.74 153.45 C68.7 152.66 68.66 151.87 68.62 151.06 C68.53 149.13 68.45 147.19 68.37 145.26 C67.45 145.25 66.53 145.25 65.58 145.24 C56.88 145.18 48.19 145.11 39.5 145.02 C35.03 144.98 30.56 144.94 26.09 144.91 C21.77 144.89 17.45 144.85 13.13 144.8 C11.49 144.78 9.85 144.77 8.21 144.76 C-12.68 144.68 -12.68 144.68 -20.01 137.95 C-20.64 137.4 -21.26 136.84 -21.91 136.27 C-24.02 133.81 -25.22 131.17 -26.63 128.26 C-32.31 128.21 -37.98 128.17 -43.66 128.15 C-45.58 128.14 -47.51 128.13 -49.44 128.11 C-52.22 128.09 -55 128.07 -57.79 128.07 C-58.64 128.06 -59.49 128.04 -60.36 128.03 C-70.73 128.03 -78.71 129.74 -85.88 137.7 Z M260.37 192.26 C260.37 229.22 260.37 266.18 260.37 304.26 C286.77 304.26 313.17 304.26 340.37 304.26 C340.37 267.3 340.37 230.34 340.37 192.26 C313.97 192.26 287.57 192.26 260.37 192.26 Z M100.37 208.26 C100.37 239.94 100.37 271.62 100.37 304.26 C105.65 304.26 110.93 304.26 116.37 304.26 C116.37 272.58 116.37 240.9 116.37 208.26 C111.09 208.26 105.81 208.26 100.37 208.26 Z M-112.04 225.32 C-121.88 237.29 -124.1 250.19 -122.63 265.26 C-120.29 277.66 -112.53 288.61 -102.32 295.92 C-90.24 303.62 -77.16 305.25 -63.16 302.6 C-50.13 298.7 -39.51 289.61 -32.92 277.83 C-27.3 266.6 -26.58 252.81 -30.2 240.76 C-35.14 228.17 -44.49 218.12 -56.63 212.26 C-62.78 209.73 -68.31 208.74 -74.95 208.82 C-76.19 208.84 -76.19 208.84 -77.46 208.85 C-91.42 209.23 -102.5 215.24 -112.04 225.32 Z M164.37 224.26 C164.37 250.66 164.37 277.06 164.37 304.26 C169.65 304.26 174.93 304.26 180.37 304.26 C180.37 277.86 180.37 251.46 180.37 224.26 C175.09 224.26 169.81 224.26 164.37 224.26 Z M36.37 240.26 C36.37 261.38 36.37 282.5 36.37 304.26 C41.65 304.26 46.93 304.26 52.37 304.26 C52.37 283.14 52.37 262.02 52.37 240.26 C47.09 240.26 41.81 240.26 36.37 240.26 Z M-11.63 264.26 C-12.95 268.88 -14.27 273.5 -15.63 278.26 C-16.8 281.14 -17.91 283.78 -19.32 286.51 C-19.66 287.18 -20 287.85 -20.36 288.53 C-28.19 303.21 -41.81 312.88 -57.55 317.87 C-64.53 319.7 -71.52 319.48 -78.7 319.39 C-79.94 319.38 -81.19 319.37 -82.48 319.36 C-85.53 319.33 -88.58 319.3 -91.63 319.26 C-91.63 324.87 -91.63 330.48 -91.63 336.26 C40.37 336.26 172.37 336.26 308.37 336.26 C308.37 330.98 308.37 325.7 308.37 320.26 C287.25 320.26 266.13 320.26 244.37 320.26 C244.37 301.78 244.37 283.3 244.37 264.26 C228.53 264.26 212.69 264.26 196.37 264.26 C196.37 277.46 196.37 290.66 196.37 304.26 C201.65 304.26 206.93 304.26 212.37 304.26 C212.37 309.54 212.37 314.82 212.37 320.26 C143.73 320.26 75.09 320.26 4.37 320.26 C4.37 314.98 4.37 309.7 4.37 304.26 C9.65 304.26 14.93 304.26 20.37 304.26 C20.37 291.06 20.37 277.86 20.37 264.26 C9.81 264.26 -0.75 264.26 -11.63 264.26 Z M-91.63 352.26 C-93.12 372.89 -93.12 372.89 -85.63 391.26 C-78.4 398.44 -71.59 400.38 -61.42 400.39 C-59.57 400.39 -59.57 400.39 -57.69 400.4 C-56.33 400.4 -54.97 400.4 -53.61 400.39 C-52.16 400.4 -50.71 400.4 -49.26 400.4 C-45.28 400.41 -41.29 400.41 -37.31 400.41 C-33.01 400.41 -28.72 400.41 -24.42 400.42 C-16 400.42 -7.59 400.43 0.83 400.43 C7.67 400.43 14.51 400.43 21.35 400.43 C40.75 400.44 60.15 400.45 79.55 400.45 C81.11 400.45 81.11 400.45 82.71 400.45 C83.76 400.45 84.81 400.45 85.89 400.45 C102.86 400.45 119.82 400.46 136.79 400.47 C154.22 400.48 171.64 400.49 189.06 400.49 C198.85 400.49 208.63 400.49 218.41 400.5 C226.74 400.51 235.07 400.51 243.39 400.51 C247.64 400.5 251.89 400.5 256.14 400.51 C260.03 400.52 263.92 400.52 267.81 400.51 C269.22 400.51 270.62 400.51 272.03 400.52 C286.63 400.69 286.63 400.69 299.37 394.26 C311.42 382.12 308.37 370 308.37 352.26 C176.37 352.26 44.37 352.26 -91.63 352.26 Z M44.37 416.26 C44.37 426.82 44.37 437.38 44.37 448.26 C86.61 448.26 128.85 448.26 172.37 448.26 C172.37 437.7 172.37 427.14 172.37 416.26 C130.13 416.26 87.89 416.26 44.37 416.26 Z M3.7 471.97 C1.24 474.74 -0.45 476.71 -1.63 480.26 C70.97 480.26 143.57 480.26 218.37 480.26 C215.01 473.55 211.39 469.37 204.74 465.89 C199.48 464.5 194.46 464.13 189.02 464.13 C187.95 464.12 187.95 464.12 186.85 464.12 C184.46 464.11 182.06 464.11 179.67 464.12 C177.95 464.11 176.23 464.11 174.51 464.11 C169.85 464.1 165.18 464.09 160.51 464.09 C157.6 464.09 154.68 464.09 151.76 464.09 C141.58 464.08 131.4 464.07 121.21 464.08 C111.73 464.08 102.25 464.07 92.77 464.05 C84.62 464.04 76.47 464.03 68.32 464.03 C63.46 464.03 58.59 464.03 53.73 464.02 C49.15 464.01 44.58 464.01 40 464.02 C38.33 464.02 36.65 464.01 34.98 464.01 C17.93 463.58 17.93 463.58 3.7 471.97 Z "
        fill="#8B40E5" transform="translate(147.63389587402344,7.7393035888671875)" />
    <path
        d="M0 0 C1.87 -0.02 1.87 -0.02 3.79 -0.05 C13.23 -0.05 19.39 1.11 26.48 7.58 C31.74 13.35 32.06 17.36 32.06 25.31 C26.78 25.31 21.5 25.31 16.06 25.31 C15.07 23.33 14.08 21.35 13.06 19.31 C9.18 17.37 4.39 18.08 0.12 18.06 C-0.89 18.04 -1.91 18.02 -2.95 18 C-3.93 17.99 -4.9 17.99 -5.9 17.98 C-6.8 17.98 -7.69 17.97 -8.61 17.96 C-10.98 18.14 -10.98 18.14 -12.72 19.61 C-14.8 22.51 -14.43 24.89 -13.94 28.31 C-9.39 32.53 -3.39 31.76 2.44 31.81 C12.2 31.9 19.08 32.75 26.48 39.61 C32.12 45.71 32.7 51.8 32.45 59.96 C31.63 67.04 28.51 71.76 23.06 76.31 C15.67 81.35 8.98 81.52 0.31 81.56 C-0.64 81.58 -1.59 81.6 -2.57 81.62 C-11.28 81.67 -19.13 80.04 -25.94 74.31 C-30.53 68.16 -31.94 64.24 -31.94 56.31 C-26.33 56.31 -20.72 56.31 -14.94 56.31 C-14.28 57.96 -13.62 59.61 -12.94 61.31 C-9.35 64.27 -4.41 63.64 0 63.62 C0.8 63.64 1.6 63.66 2.42 63.67 C7.06 63.68 10.4 63.48 14.06 60.31 C14.74 55.7 14.74 55.7 12.83 51.62 C10.53 49.92 9.12 49.93 6.27 49.91 C4.86 49.87 4.86 49.87 3.42 49.84 C2.43 49.83 1.45 49.82 0.44 49.81 C-9.31 49.72 -18.2 48.81 -25.94 42.31 C-31.94 34.27 -32.7 27.27 -31.94 17.31 C-30.29 10.72 -25.51 5.98 -19.94 2.31 C-13.31 -0.29 -7.03 -0.02 0 0 Z "
        fill="#8B40E5" transform="translate(183.9375,39.6875)" />
    <path
        d="M0 0 C1.87 -0.02 1.87 -0.02 3.79 -0.05 C12.1 -0.05 18.21 0.48 24.75 6 C25.29 6.44 25.83 6.87 26.39 7.32 C31.72 13.65 32.66 19.8 32.59 27.88 C32.6 29.36 32.6 29.36 32.61 30.88 C32.61 32.96 32.6 35.05 32.58 37.13 C32.56 40.3 32.58 43.47 32.61 46.65 C32.61 48.68 32.6 50.72 32.59 52.75 C32.6 53.69 32.61 54.63 32.62 55.6 C32.51 63.13 30.6 68.3 25.75 74.06 C17.72 80.78 10.45 81.51 0.31 81.56 C-0.64 81.58 -1.59 81.6 -2.57 81.62 C-11.28 81.67 -19.13 80.04 -25.94 74.31 C-29.58 69.44 -32.04 65.06 -32.11 58.88 C-32.13 57.98 -32.14 57.09 -32.15 56.16 C-32.16 55.2 -32.17 54.23 -32.18 53.24 C-32.18 52.24 -32.19 51.24 -32.2 50.21 C-32.21 48.1 -32.22 45.99 -32.23 43.87 C-32.25 40.65 -32.29 37.44 -32.34 34.22 C-32.35 32.16 -32.36 30.11 -32.36 28.05 C-32.38 27.1 -32.4 26.14 -32.42 25.16 C-32.39 17.89 -30.78 12.62 -26.01 7.07 C-25.37 6.53 -24.72 5.99 -24.06 5.44 C-23.43 4.88 -22.79 4.33 -22.13 3.76 C-15.35 -0.71 -7.79 -0.02 0 0 Z M-13.57 19.14 C-17.13 24.79 -16.12 31.5 -16.12 37.94 C-16.12 40.17 -16.14 42.41 -16.16 44.64 C-16.17 46.07 -16.17 47.5 -16.17 48.93 C-16.17 50.87 -16.17 50.87 -16.18 52.85 C-15.95 56.18 -15.46 58.37 -13.94 61.31 C-9.68 65.01 -5.29 64.77 0.06 64.69 C0.86 64.7 1.65 64.71 2.47 64.72 C7.09 64.7 10.42 64.47 14.06 61.31 C17.08 55.45 16.4 49.01 16.38 42.59 C16.38 40.39 16.4 38.18 16.42 35.97 C16.43 34.55 16.43 33.14 16.43 31.72 C16.43 30.45 16.43 29.17 16.43 27.85 C16.03 24.01 15.08 21.58 13.06 18.31 C9.19 16.38 4.45 17.04 0.19 17 C-0.82 16.97 -1.83 16.94 -2.86 16.91 C-8.57 16.76 -8.57 16.76 -13.57 19.14 Z "
        fill="#8B40E5" transform="translate(327.9375,39.6875)" />
    <path
        d="M0 0 C0.99 0 0.99 0 1.99 0.01 C4.07 0.02 6.15 0.04 8.23 0.07 C9.64 0.08 11.06 0.09 12.48 0.1 C15.94 0.12 19.39 0.16 22.85 0.2 C22.85 5.81 22.85 11.42 22.85 17.2 C20.94 17.23 19.02 17.27 17.05 17.31 C14.55 17.37 12.04 17.44 9.54 17.51 C7.65 17.54 7.65 17.54 5.71 17.58 C4.5 17.61 3.3 17.65 2.05 17.68 C0.94 17.71 -0.18 17.74 -1.33 17.76 C-4.51 17.97 -4.51 17.97 -7.15 21.2 C-7.81 24.83 -8.47 28.46 -9.15 32.2 C1.41 32.2 11.97 32.2 22.85 32.2 C22.85 37.81 22.85 43.42 22.85 49.2 C12.29 49.2 1.73 49.2 -9.15 49.2 C-8.4 59.42 -8.4 59.42 -4.9 62.35 C-1.88 63.28 0.66 63.63 3.81 63.71 C5.48 63.76 5.48 63.76 7.18 63.81 C8.33 63.84 9.48 63.86 10.66 63.88 C12.42 63.93 12.42 63.93 14.21 63.99 C17.09 64.07 19.97 64.13 22.85 64.2 C22.85 69.81 22.85 75.42 22.85 81.2 C18.54 81.28 14.23 81.34 9.91 81.38 C8.7 81.41 7.49 81.43 6.24 81.46 C-3.32 81.54 -11.61 80.54 -19.15 74.2 C-22.79 69.32 -25.25 64.94 -25.33 58.76 C-25.34 57.86 -25.35 56.97 -25.36 56.05 C-25.37 55.08 -25.38 54.12 -25.39 53.12 C-25.39 52.12 -25.4 51.13 -25.41 50.1 C-25.43 47.98 -25.44 45.87 -25.44 43.76 C-25.46 40.54 -25.5 37.32 -25.55 34.1 C-25.56 32.05 -25.57 29.99 -25.57 27.93 C-25.59 26.98 -25.61 26.02 -25.63 25.04 C-25.6 17.78 -23.99 12.5 -19.22 6.95 C-18.58 6.41 -17.93 5.88 -17.27 5.32 C-16.64 4.77 -16 4.21 -15.34 3.64 C-10.46 0.43 -5.74 -0.05 0 0 Z "
        fill="#8B40E5" transform="translate(257.1484375,39.8046875)" />
    <path
        d="M0 0 C8.34 4.98 13.53 11.86 16.11 21.26 C17.11 32.36 16.46 41.99 9.36 51.07 C3.69 57.14 -3.36 60.85 -11.66 61.59 C-19.44 61.77 -26.17 61.59 -32.89 57.26 C-33.6 56.82 -34.3 56.39 -35.03 55.94 C-41.94 51.26 -45.69 45.26 -47.89 37.26 C-48.89 26.16 -48.24 16.52 -41.14 7.45 C-30.84 -3.58 -13.59 -6.52 0 0 Z M-29.27 20.88 C-31.47 25.46 -31.69 29.26 -30.89 34.26 C-28.56 39.1 -25.73 41.93 -20.89 44.26 C-15.9 45.05 -12.09 44.84 -7.52 42.63 C-3.93 39.39 -1.3 36.79 -0.51 31.86 C-0.25 26.18 -0.95 22.61 -4.89 18.26 C-9.24 14.32 -12.81 13.62 -18.49 13.88 C-23.43 14.66 -26.02 17.3 -29.27 20.88 Z "
        fill="#8B40E5" transform="translate(87.890625,234.7421875)" />
    <path
        d="M0 0 C15.84 0 31.68 0 48 0 C48 5.28 48 10.56 48 16 C32.16 16 16.32 16 0 16 C0 10.72 0 5.44 0 0 Z "
        fill="#8B40E5" transform="translate(424,280)" />
    <path
        d="M0 0 C15.84 0 31.68 0 48 0 C48 5.28 48 10.56 48 16 C32.16 16 16.32 16 0 16 C0 10.72 0 5.44 0 0 Z "
        fill="#8B40E5" transform="translate(424,248)" />
    <path
        d="M0 0 C15.84 0 31.68 0 48 0 C48 5.28 48 10.56 48 16 C32.16 16 16.32 16 0 16 C0 10.72 0 5.44 0 0 Z "
        fill="#8B40E5" transform="translate(424,216)" />
    <path
        d="M0 0 C2.5 1.5 2.5 1.5 4 4 C4.79 8.02 4.62 10.96 2.5 14.5 C-1.04 16.62 -3.98 16.79 -8 16 C-10.5 14.5 -10.5 14.5 -12 12 C-12.79 7.98 -12.62 5.04 -10.5 1.5 C-6.96 -0.62 -4.02 -0.79 0 0 Z "
        fill="#8B40E5" transform="translate(292,376)" />
    <path
        d="M0 0 C2.5 1.5 2.5 1.5 4 4 C4.79 8.02 4.62 10.96 2.5 14.5 C-1.04 16.62 -3.98 16.79 -8 16 C-10.5 14.5 -10.5 14.5 -12 12 C-12.79 7.98 -12.62 5.04 -10.5 1.5 C-6.96 -0.62 -4.02 -0.79 0 0 Z "
        fill="#8B40E5" transform="translate(260,376)" />
    <path
        d="M0 0 C2.5 1.5 2.5 1.5 4 4 C4.79 8.02 4.62 10.96 2.5 14.5 C-1.04 16.62 -3.98 16.79 -8 16 C-10.5 14.5 -10.5 14.5 -12 12 C-12.79 7.98 -12.62 5.04 -10.5 1.5 C-6.96 -0.62 -4.02 -0.79 0 0 Z "
        fill="#8B40E5" transform="translate(228,376)" />
</svg>