<?xml version="1.0" encoding="UTF-8"?>
<!-- Generator: visioncortex VTracer 0.6.4 -->
<svg version="1.1" xmlns="http://www.w3.org/2000/svg" width="512" height="512">
<path d="M0 0 C1.36 -0.01 1.36 -0.01 2.74 -0.01 C5.78 -0.03 8.81 -0.02 11.84 -0.02 C14.02 -0.03 16.19 -0.04 18.37 -0.04 C24.28 -0.06 30.19 -0.07 36.1 -0.07 C41.03 -0.07 45.96 -0.08 50.89 -0.08 C62.53 -0.1 74.17 -0.1 85.81 -0.1 C97.82 -0.1 109.82 -0.12 121.83 -0.15 C132.13 -0.18 142.44 -0.19 152.75 -0.19 C158.91 -0.19 165.06 -0.2 171.22 -0.22 C177.01 -0.24 182.8 -0.24 188.59 -0.22 C190.71 -0.22 192.84 -0.22 194.96 -0.24 C197.86 -0.25 200.77 -0.24 203.67 -0.23 C204.51 -0.24 205.34 -0.25 206.2 -0.26 C212.96 -0.18 218.16 1.76 223.27 6.23 C223.81 6.88 224.34 7.53 224.9 8.2 C225.45 8.85 226.01 9.5 226.58 10.17 C230 15.14 230.32 19.74 230.29 25.64 C230.3 26.48 230.3 27.32 230.31 28.18 C230.32 30.99 230.32 33.81 230.32 36.62 C230.32 38.64 230.33 40.65 230.34 42.67 C230.35 48.15 230.36 53.63 230.36 59.11 C230.36 63.68 230.37 68.26 230.38 72.83 C230.39 83.63 230.4 94.42 230.4 105.22 C230.39 116.35 230.42 127.48 230.45 138.62 C230.47 148.18 230.48 157.74 230.48 167.3 C230.48 173.01 230.49 178.72 230.51 184.42 C230.53 189.79 230.53 195.16 230.51 200.54 C230.51 202.5 230.52 204.47 230.53 206.44 C230.54 209.13 230.53 211.83 230.52 214.52 C230.53 215.29 230.54 216.07 230.55 216.87 C230.47 223.42 228.39 228.57 224.06 233.51 C223.41 234.05 222.76 234.59 222.09 235.14 C221.44 235.7 220.79 236.25 220.12 236.82 C214.88 240.43 210.21 240.56 204.05 240.53 C202.69 240.54 202.69 240.54 201.31 240.55 C198.27 240.56 195.24 240.56 192.21 240.56 C190.03 240.56 187.86 240.57 185.68 240.58 C179.77 240.6 173.86 240.6 167.95 240.6 C163.02 240.6 158.09 240.61 153.15 240.62 C141.52 240.63 129.88 240.64 118.24 240.64 C106.23 240.64 94.23 240.66 82.22 240.69 C71.91 240.72 61.61 240.73 51.3 240.73 C45.14 240.72 38.99 240.73 32.83 240.75 C27.04 240.77 21.25 240.77 15.46 240.76 C13.34 240.75 11.21 240.76 9.09 240.77 C6.19 240.79 3.28 240.78 0.38 240.76 C-0.46 240.77 -1.29 240.78 -2.16 240.79 C-8.91 240.71 -14.11 238.78 -19.22 234.3 C-20.03 233.33 -20.03 233.33 -20.85 232.33 C-21.4 231.68 -21.96 231.03 -22.53 230.37 C-25.95 225.4 -26.27 220.8 -26.24 214.9 C-26.25 214.06 -26.25 213.22 -26.26 212.35 C-26.27 209.54 -26.27 206.73 -26.27 203.92 C-26.27 201.9 -26.28 199.88 -26.29 197.86 C-26.3 192.39 -26.31 186.91 -26.31 181.43 C-26.31 176.85 -26.32 172.28 -26.33 167.7 C-26.34 156.91 -26.35 146.11 -26.35 135.32 C-26.34 124.18 -26.37 113.05 -26.4 101.92 C-26.42 92.36 -26.43 82.8 -26.43 73.24 C-26.43 67.53 -26.44 61.82 -26.46 56.11 C-26.48 50.74 -26.48 45.37 -26.46 40 C-26.46 38.03 -26.47 36.06 -26.48 34.09 C-26.49 31.4 -26.49 28.71 -26.47 26.02 C-26.48 25.24 -26.49 24.47 -26.5 23.67 C-26.42 17.12 -24.34 11.96 -20.01 7.03 C-19.36 6.49 -18.71 5.95 -18.04 5.39 C-17.39 4.84 -16.74 4.28 -16.07 3.71 C-10.83 0.1 -6.16 -0.02 0 0 Z M-7.98 19.27 C-10.45 23.27 -10.26 27.54 -10.24 32.12 C-10.24 32.9 -10.24 33.69 -10.25 34.49 C-10.26 37.12 -10.25 39.74 -10.25 42.36 C-10.25 44.25 -10.26 46.13 -10.27 48.01 C-10.28 53.12 -10.28 58.24 -10.28 63.35 C-10.28 67.61 -10.28 71.88 -10.29 76.15 C-10.3 86.21 -10.3 96.28 -10.29 106.35 C-10.29 116.73 -10.3 127.12 -10.32 137.5 C-10.34 146.42 -10.34 155.34 -10.34 164.25 C-10.34 169.58 -10.34 174.9 -10.35 180.23 C-10.37 185.24 -10.36 190.24 -10.35 195.25 C-10.35 197.09 -10.35 198.93 -10.36 200.76 C-10.37 203.27 -10.36 205.78 -10.35 208.29 C-10.36 209.02 -10.36 209.74 -10.37 210.49 C-10.32 215.13 -9.6 218.41 -6.98 222.27 C-2.84 224.87 1.74 224.55 6.48 224.53 C7.33 224.53 8.18 224.54 9.06 224.54 C11.9 224.55 14.75 224.55 17.59 224.54 C19.63 224.55 21.67 224.55 23.71 224.56 C29.25 224.57 34.79 224.57 40.34 224.57 C44.96 224.57 49.58 224.57 54.21 224.58 C65.12 224.59 76.03 224.59 86.94 224.58 C98.2 224.58 109.46 224.59 120.71 224.61 C130.38 224.63 140.04 224.63 149.7 224.63 C155.48 224.63 161.25 224.63 167.02 224.65 C172.45 224.66 177.88 224.66 183.31 224.64 C185.3 224.64 187.29 224.64 189.28 224.65 C192 224.66 194.72 224.65 197.44 224.64 C198.23 224.65 199.02 224.66 199.83 224.66 C204.62 224.62 208.05 224.01 212.02 221.27 C214.5 217.26 214.31 213 214.29 208.42 C214.29 207.63 214.29 206.85 214.3 206.04 C214.31 203.42 214.3 200.79 214.3 198.17 C214.3 196.29 214.31 194.4 214.31 192.52 C214.33 187.41 214.33 182.3 214.33 177.19 C214.33 172.92 214.33 168.65 214.33 164.39 C214.35 154.32 214.35 144.25 214.34 134.19 C214.33 123.8 214.35 113.42 214.37 103.03 C214.39 94.12 214.39 85.2 214.39 76.28 C214.39 70.96 214.39 65.63 214.4 60.31 C214.42 55.3 214.41 50.29 214.4 45.28 C214.4 43.45 214.4 41.61 214.41 39.77 C214.42 37.26 214.41 34.75 214.4 32.24 C214.41 31.52 214.41 30.79 214.42 30.04 C214.37 25.4 213.65 22.12 211.02 18.27 C206.89 15.67 202.31 15.98 197.57 16.01 C196.29 16 196.29 16 194.99 16 C192.15 15.98 189.3 15.99 186.46 15.99 C184.42 15.99 182.38 15.98 180.34 15.98 C174.8 15.96 169.26 15.96 163.71 15.97 C159.09 15.97 154.46 15.96 149.84 15.96 C138.93 15.95 128.02 15.95 117.11 15.95 C105.85 15.96 94.59 15.95 83.34 15.92 C73.67 15.91 64.01 15.9 54.34 15.9 C48.57 15.91 42.8 15.9 37.03 15.89 C31.6 15.88 26.17 15.88 20.74 15.89 C18.75 15.89 16.76 15.89 14.77 15.88 C12.05 15.87 9.33 15.88 6.61 15.89 C5.43 15.88 5.43 15.88 4.22 15.87 C-0.57 15.92 -4 16.52 -7.98 19.27 Z " fill="#FCDC02" transform="translate(33.97541809082031,31.732574462890625)"/>
<path d="M0 0 C0.82 -0.01 1.63 -0.01 2.48 -0.02 C5.22 -0.03 7.96 -0.02 10.7 -0.01 C12.67 -0.02 14.63 -0.02 16.6 -0.03 C21.94 -0.05 27.27 -0.04 32.61 -0.03 C38.19 -0.02 43.78 -0.03 49.36 -0.03 C58.73 -0.04 68.11 -0.03 77.48 -0.01 C88.33 0.01 99.17 0 110.02 -0.02 C119.32 -0.04 128.63 -0.04 137.93 -0.03 C143.49 -0.02 149.05 -0.02 154.61 -0.04 C159.84 -0.05 165.07 -0.04 170.29 -0.02 C172.21 -0.01 174.13 -0.01 176.06 -0.02 C178.67 -0.03 181.29 -0.02 183.91 0 C184.67 -0.01 185.43 -0.02 186.22 -0.03 C189.39 0.02 191.64 0.34 194.42 1.88 C196.87 6.09 196.5 10.21 196.46 14.98 C196.47 16.06 196.47 17.14 196.48 18.25 C196.5 21.88 196.48 25.51 196.47 29.13 C196.48 31.73 196.48 34.32 196.49 36.92 C196.51 43.24 196.51 49.57 196.49 55.89 C196.49 61.03 196.48 66.17 196.49 71.31 C196.49 72.04 196.49 72.77 196.49 73.52 C196.49 75.01 196.49 76.49 196.49 77.98 C196.51 91.91 196.49 105.84 196.47 119.77 C196.45 131.72 196.46 143.68 196.47 155.63 C196.5 169.51 196.5 183.39 196.49 197.27 C196.49 198.75 196.49 200.23 196.49 201.71 C196.49 202.8 196.49 202.8 196.49 203.91 C196.48 209.05 196.49 214.18 196.5 219.32 C196.51 226.22 196.5 233.13 196.48 240.04 C196.47 242.58 196.47 245.12 196.48 247.66 C196.49 251.12 196.48 254.57 196.46 258.03 C196.47 259.04 196.48 260.06 196.49 261.1 C196.41 267.72 196.41 267.72 194.42 271.13 C190.95 273.07 187.78 273.06 183.91 273.02 C182.68 273.03 182.68 273.03 181.43 273.03 C178.69 273.05 175.95 273.04 173.2 273.03 C171.24 273.03 169.27 273.04 167.31 273.05 C161.97 273.07 156.63 273.06 151.29 273.05 C145.71 273.04 140.13 273.04 134.55 273.05 C125.17 273.06 115.8 273.05 106.42 273.03 C95.58 273.01 84.73 273.01 73.89 273.04 C64.58 273.05 55.28 273.06 45.97 273.05 C40.41 273.04 34.85 273.04 29.29 273.05 C24.07 273.06 18.84 273.06 13.61 273.03 C11.69 273.03 9.77 273.03 7.85 273.04 C5.23 273.05 2.62 273.04 0 273.02 C-0.76 273.02 -1.53 273.03 -2.31 273.04 C-5.48 273 -7.74 272.68 -10.52 271.13 C-12.97 266.93 -12.6 262.81 -12.55 258.03 C-12.56 256.41 -12.56 256.41 -12.57 254.76 C-12.59 251.14 -12.58 247.51 -12.56 243.88 C-12.57 241.29 -12.58 238.69 -12.59 236.1 C-12.6 229.77 -12.6 223.45 -12.59 217.13 C-12.58 211.99 -12.58 206.85 -12.58 201.71 C-12.58 200.98 -12.58 200.25 -12.58 199.49 C-12.59 198.01 -12.59 196.52 -12.59 195.04 C-12.6 181.11 -12.59 167.18 -12.56 153.25 C-12.55 141.29 -12.55 129.34 -12.57 117.38 C-12.59 103.5 -12.6 89.63 -12.59 75.75 C-12.58 74.27 -12.58 72.79 -12.58 71.31 C-12.58 70.58 -12.58 69.85 -12.58 69.1 C-12.58 63.97 -12.58 58.83 -12.59 53.7 C-12.6 46.79 -12.6 39.88 -12.57 32.98 C-12.57 30.44 -12.57 27.9 -12.58 25.36 C-12.59 21.9 -12.57 18.44 -12.55 14.98 C-12.56 13.97 -12.57 12.96 -12.58 11.92 C-12.51 5.3 -12.51 5.3 -10.52 1.88 C-7.05 -0.05 -3.87 -0.05 0 0 Z M3.95 16.51 C3.95 95.71 3.95 174.91 3.95 256.51 C62.03 256.51 120.11 256.51 179.95 256.51 C179.95 177.31 179.95 98.11 179.95 16.51 C121.87 16.51 63.79 16.51 3.95 16.51 Z " fill="#FCDC02" transform="translate(308.046875,7.4920654296875)"/>
<path d="M0 0 C1.36 -0.01 1.36 -0.01 2.74 -0.01 C5.78 -0.03 8.81 -0.02 11.84 -0.02 C14.02 -0.03 16.19 -0.04 18.37 -0.04 C24.28 -0.06 30.19 -0.07 36.1 -0.07 C41.03 -0.07 45.96 -0.08 50.89 -0.08 C62.53 -0.1 74.17 -0.1 85.81 -0.1 C97.82 -0.1 109.82 -0.12 121.83 -0.15 C132.13 -0.18 142.44 -0.19 152.75 -0.19 C158.91 -0.19 165.06 -0.2 171.22 -0.22 C177.01 -0.24 182.8 -0.24 188.59 -0.22 C190.71 -0.22 192.84 -0.22 194.96 -0.24 C197.86 -0.25 200.77 -0.24 203.67 -0.23 C204.51 -0.24 205.34 -0.25 206.2 -0.26 C212.96 -0.18 218.16 1.76 223.27 6.23 C223.81 6.88 224.34 7.53 224.9 8.2 C225.45 8.85 226.01 9.5 226.58 10.17 C229.72 14.73 230.28 18.63 230.29 24.12 C230.3 24.79 230.3 25.47 230.31 26.17 C230.32 28.43 230.32 30.69 230.32 32.95 C230.32 34.57 230.33 36.19 230.34 37.82 C230.35 42.22 230.36 46.63 230.36 51.03 C230.36 53.78 230.36 56.54 230.37 59.29 C230.39 68.9 230.4 78.52 230.4 88.13 C230.39 97.08 230.42 106.03 230.45 114.98 C230.47 122.67 230.48 130.37 230.48 138.06 C230.48 142.65 230.49 147.24 230.51 151.83 C230.53 156.15 230.53 160.47 230.51 164.79 C230.51 166.37 230.52 167.96 230.53 169.54 C230.6 178.9 230.51 186.15 224.06 193.51 C223.41 194.05 222.76 194.59 222.09 195.14 C221.44 195.7 220.79 196.25 220.12 196.82 C214.88 200.43 210.21 200.56 204.05 200.53 C202.69 200.54 202.69 200.54 201.31 200.55 C198.27 200.56 195.24 200.56 192.21 200.56 C190.03 200.56 187.86 200.57 185.68 200.58 C179.77 200.6 173.86 200.6 167.95 200.6 C163.02 200.6 158.09 200.61 153.15 200.62 C141.52 200.63 129.88 200.64 118.24 200.64 C106.23 200.64 94.23 200.66 82.22 200.69 C71.91 200.72 61.61 200.73 51.3 200.73 C45.14 200.72 38.99 200.73 32.83 200.75 C27.04 200.77 21.25 200.77 15.46 200.76 C13.34 200.75 11.21 200.76 9.09 200.77 C6.19 200.79 3.28 200.78 0.38 200.76 C-0.46 200.77 -1.29 200.78 -2.16 200.79 C-8.91 200.71 -14.11 198.78 -19.22 194.3 C-20.03 193.33 -20.03 193.33 -20.85 192.33 C-21.4 191.68 -21.96 191.03 -22.53 190.37 C-25.67 185.81 -26.23 181.9 -26.24 176.42 C-26.25 175.74 -26.25 175.06 -26.26 174.37 C-26.27 172.11 -26.27 169.85 -26.27 167.59 C-26.27 165.97 -26.28 164.34 -26.29 162.72 C-26.3 158.31 -26.31 153.91 -26.31 149.5 C-26.31 146.75 -26.32 144 -26.32 141.24 C-26.34 131.63 -26.35 122.02 -26.35 112.41 C-26.34 103.46 -26.37 94.5 -26.4 85.55 C-26.42 77.86 -26.43 70.17 -26.43 62.48 C-26.43 57.89 -26.44 53.29 -26.46 48.7 C-26.48 44.38 -26.48 40.06 -26.46 35.74 C-26.46 34.16 -26.47 32.58 -26.48 31 C-26.55 21.63 -26.46 14.39 -20.01 7.03 C-19.36 6.49 -18.71 5.95 -18.04 5.39 C-17.39 4.84 -16.74 4.28 -16.07 3.71 C-10.83 0.1 -6.16 -0.02 0 0 Z M-7.98 19.27 C-10.17 22.97 -10.23 26.36 -10.24 30.6 C-10.24 31.88 -10.25 33.15 -10.26 34.47 C-10.26 35.88 -10.25 37.28 -10.25 38.69 C-10.25 40.18 -10.26 41.67 -10.27 43.16 C-10.28 47.2 -10.28 51.23 -10.28 55.27 C-10.28 58.64 -10.28 62.01 -10.29 65.39 C-10.3 73.34 -10.3 81.3 -10.29 89.26 C-10.29 97.46 -10.3 105.66 -10.32 113.87 C-10.34 120.92 -10.34 127.97 -10.34 135.01 C-10.34 139.22 -10.34 143.43 -10.35 147.64 C-10.37 151.59 -10.36 155.55 -10.35 159.51 C-10.35 160.96 -10.35 162.41 -10.36 163.86 C-10.37 165.84 -10.36 167.83 -10.35 169.81 C-10.35 170.92 -10.35 172.03 -10.35 173.17 C-9.91 176.84 -9.01 179.18 -6.98 182.27 C-2.84 184.87 1.74 184.55 6.48 184.53 C7.33 184.53 8.18 184.54 9.06 184.54 C11.9 184.55 14.75 184.55 17.59 184.54 C19.63 184.55 21.67 184.55 23.71 184.56 C29.25 184.57 34.79 184.57 40.34 184.57 C44.96 184.57 49.58 184.57 54.21 184.58 C65.12 184.59 76.03 184.59 86.94 184.58 C98.2 184.58 109.46 184.59 120.71 184.61 C130.38 184.63 140.04 184.63 149.7 184.63 C155.48 184.63 161.25 184.63 167.02 184.65 C172.45 184.66 177.88 184.66 183.31 184.64 C185.3 184.64 187.29 184.64 189.28 184.65 C192 184.66 194.72 184.65 197.44 184.64 C198.23 184.65 199.02 184.66 199.83 184.66 C204.62 184.62 208.05 184.01 212.02 181.27 C214.22 177.57 214.28 174.17 214.29 169.94 C214.29 168.66 214.3 167.38 214.31 166.07 C214.3 164.66 214.3 163.25 214.3 161.84 C214.3 160.35 214.31 158.86 214.31 157.38 C214.33 153.34 214.33 149.3 214.33 145.26 C214.33 141.89 214.33 138.52 214.33 135.15 C214.35 127.19 214.35 119.23 214.34 111.28 C214.33 103.07 214.35 94.87 214.37 86.67 C214.39 79.62 214.39 72.57 214.39 65.52 C214.39 61.31 214.39 57.11 214.4 52.9 C214.42 48.94 214.41 44.98 214.4 41.03 C214.4 39.58 214.4 38.13 214.41 36.68 C214.42 34.69 214.41 32.71 214.4 30.73 C214.4 29.62 214.4 28.51 214.4 27.37 C213.95 23.69 213.06 21.36 211.02 18.27 C206.89 15.67 202.31 15.98 197.57 16.01 C196.29 16 196.29 16 194.99 16 C192.15 15.98 189.3 15.99 186.46 15.99 C184.42 15.99 182.38 15.98 180.34 15.98 C174.8 15.96 169.26 15.96 163.71 15.97 C159.09 15.97 154.46 15.96 149.84 15.96 C138.93 15.95 128.02 15.95 117.11 15.95 C105.85 15.96 94.59 15.95 83.34 15.92 C73.67 15.91 64.01 15.9 54.34 15.9 C48.57 15.91 42.8 15.9 37.03 15.89 C31.6 15.88 26.17 15.88 20.74 15.89 C18.75 15.89 16.76 15.89 14.77 15.88 C12.05 15.87 9.33 15.88 6.61 15.89 C5.43 15.88 5.43 15.88 4.22 15.87 C-0.57 15.92 -4 16.52 -7.98 19.27 Z " fill="#FCDC02" transform="translate(273.9754180908203,303.7325744628906)"/>
<path d="M0 0 C1.12 0 1.12 0 2.27 0 C31.38 0.11 60.16 7.97 82.56 27.38 C83.37 28.04 84.18 28.7 85.01 29.39 C98.37 40.77 110.61 58.47 112.56 76.38 C114 101 109.3 121.04 92.9 139.88 C73.26 161.7 42.96 174.9 13.77 176.6 C10.3 176.72 6.82 176.75 3.34 176.75 C1.22 176.75 -0.89 176.79 -3 176.82 C-4.43 176.83 -5.85 176.84 -7.27 176.84 C-8.35 176.84 -8.35 176.84 -9.46 176.85 C-13.83 176.76 -17.59 176.13 -21.78 174.85 C-31.41 171.79 -31.41 171.79 -40.98 173.59 C-47.27 178.01 -52.18 183.79 -57.19 189.56 C-58.75 191.26 -60.32 192.96 -61.89 194.65 C-65.33 198.35 -68.7 202.1 -72.02 205.9 C-74.79 208.78 -77.51 208.59 -81.37 208.8 C-84.41 208.17 -85.5 206.77 -87.44 204.38 C-87.9 201.64 -87.9 201.64 -87.86 198.46 C-87.85 197.27 -87.84 196.08 -87.84 194.85 C-87.81 193.57 -87.79 192.28 -87.77 190.96 C-87.76 189.62 -87.76 188.28 -87.76 186.94 C-87.76 181.26 -87.71 175.58 -87.63 169.9 C-87.58 166.42 -87.57 162.94 -87.58 159.46 C-87.58 157.5 -87.53 155.55 -87.48 153.59 C-87.52 147.09 -87.93 143.16 -92.34 138.2 C-93.7 136.92 -95.06 135.64 -96.44 134.38 C-110.7 115.98 -113.46 95.22 -111.04 72.71 C-106.46 51.25 -90.62 32.27 -72.71 20.41 C-50.59 6.35 -26.11 -0.07 0 0 Z M-69.44 39.38 C-70.5 40.13 -70.5 40.13 -71.59 40.89 C-82.78 49.59 -91.97 64.55 -94.44 78.38 C-96.28 96.14 -92.77 111.2 -81.44 125.38 C-79.36 127.63 -77.25 129.77 -75 131.85 C-72.43 134.36 -72.3 136.17 -72.23 139.64 C-72.21 140.52 -72.19 141.4 -72.17 142.31 C-72.16 143.26 -72.14 144.21 -72.12 145.2 C-72.1 146.17 -72.08 147.14 -72.06 148.15 C-71.99 151.26 -71.93 154.38 -71.88 157.5 C-71.83 159.61 -71.79 161.72 -71.74 163.83 C-71.64 169.01 -71.54 174.19 -71.44 179.38 C-67.44 176.01 -63.55 172.61 -59.89 168.89 C-59.11 168.1 -58.33 167.31 -57.52 166.5 C-56.73 165.69 -55.94 164.89 -55.12 164.06 C-53.53 162.44 -51.93 160.82 -50.32 159.2 C-49.63 158.49 -48.93 157.78 -48.21 157.05 C-45.72 154.69 -44.75 154.39 -41.26 154.2 C-37.31 154.38 -34.1 155.15 -30.31 156.25 C-0.38 164.28 32.71 160.55 59.7 145.09 C75.71 135.28 89.46 120.98 94.68 102.6 C98.44 86.76 95.54 71.15 87.12 57.38 C85.96 55.69 84.78 54.02 83.56 52.38 C83.1 51.74 82.64 51.11 82.17 50.46 C66.01 30.06 39.32 20.47 14.4 17.08 C-15.64 13.6 -45.12 21.75 -69.44 39.38 Z " fill="#FCDC02" transform="translate(119.4375,295.625)"/>
<path d="M0 0 C1.82 1.23 1.82 1.23 3.64 2.9 C4.33 3.54 5.03 4.18 5.74 4.84 C9.95 8.87 14.08 12.96 18.19 17.09 C19.14 18.04 20.09 19 21.05 19.95 C23.53 22.44 26 24.93 28.48 27.41 C31.02 29.96 33.56 32.51 36.11 35.06 C41.07 40.03 46.04 45.02 51 50 C54.83 48.22 57.44 45.8 60.35 42.81 C60.85 42.3 61.35 41.8 61.87 41.28 C63.46 39.67 65.04 38.05 66.62 36.44 C68.22 34.82 69.81 33.2 71.4 31.59 C72.4 30.58 73.38 29.58 74.37 28.57 C77.57 25.32 79.03 24.13 83.62 23.5 C92.93 23.72 101.77 36.58 108.03 42.84 C109.89 44.7 111.75 46.55 113.62 48.39 C114.81 49.58 115.99 50.76 117.18 51.95 C118.01 52.77 118.01 52.77 118.86 53.61 C123.82 58.59 123.82 58.59 125 62 C124.85 65.56 124.41 67.46 122.25 70.31 C119.64 72.27 118.27 72.92 115 73 C110.15 71.01 106.77 68.17 103.16 64.46 C102.64 63.93 102.12 63.4 101.58 62.86 C99.92 61.18 98.27 59.5 96.62 57.81 C95.5 56.67 94.37 55.53 93.24 54.38 C90.48 51.6 87.74 48.8 85 46 C81.11 47.58 78.52 50.24 75.65 53.19 C75.15 53.7 74.65 54.2 74.13 54.72 C72.54 56.33 70.96 57.95 69.38 59.56 C67.78 61.18 66.19 62.8 64.6 64.41 C63.6 65.42 62.62 66.42 61.63 67.43 C58.43 70.68 56.97 71.87 52.38 72.5 C48.69 72.44 47.05 71.58 44.36 69.1 C43.67 68.46 42.97 67.82 42.26 67.16 C38.05 63.13 33.92 59.04 29.81 54.91 C28.86 53.96 27.91 53 26.95 52.05 C24.47 49.56 22 47.07 19.52 44.59 C16.98 42.04 14.44 39.49 11.89 36.94 C6.93 31.97 1.96 26.98 -3 22 C-6.64 23.53 -8.91 25.7 -11.66 28.51 C-12.58 29.44 -13.49 30.38 -14.44 31.34 C-14.93 31.84 -15.41 32.34 -15.91 32.85 C-17.44 34.42 -18.98 35.99 -20.52 37.54 C-24.89 41.98 -29.26 46.42 -33.61 50.88 C-36.28 53.61 -38.95 56.33 -41.64 59.04 C-42.66 60.07 -43.67 61.1 -44.68 62.15 C-46.09 63.61 -47.52 65.05 -48.95 66.49 C-50.17 67.73 -50.17 67.73 -51.4 68.99 C-54.53 71.41 -57.13 72.26 -61 73 C-64.69 71.82 -66.42 70.95 -68.44 67.62 C-69.08 64.62 -68.82 62.94 -68 60 C-66.78 58.18 -66.78 58.18 -65.17 56.43 C-64.54 55.74 -63.9 55.05 -63.25 54.34 C-58.63 49.54 -53.95 44.8 -49.23 40.1 C-48.1 38.97 -46.97 37.84 -45.84 36.71 C-43.5 34.36 -41.14 32.01 -38.79 29.66 C-35.77 26.65 -32.76 23.63 -29.75 20.62 C-27.43 18.29 -25.1 15.97 -22.78 13.64 C-21.67 12.53 -20.55 11.42 -19.44 10.31 C-17.9 8.76 -16.35 7.21 -14.8 5.67 C-13.92 4.79 -13.04 3.91 -12.13 3 C-8.5 -0.41 -4.85 -1.02 0 0 Z " fill="#FCDC02" transform="translate(108,136)"/>
<path d="M0 0 C4.41 1.63 8.26 3.91 12.25 6.38 C13.33 7.01 14.42 7.65 15.53 8.31 C17.7 9.59 19.86 10.89 22.02 12.19 C24.62 13.77 27.23 15.31 29.87 16.84 C33.28 18.81 36.66 20.82 40.05 22.84 C42.09 24.05 44.14 25.25 46.2 26.44 C47.55 27.23 48.9 28.02 50.25 28.81 C50.86 29.16 51.47 29.51 52.09 29.87 C57.1 32.83 62.02 36.32 64 42 C64.37 44.73 64.37 44.73 64.44 47.75 C64.48 48.73 64.52 49.72 64.56 50.73 C63.58 56.47 61.26 60.34 56.54 63.82 C53.47 65.69 50.35 67.42 47.19 69.12 C45.44 70.1 43.7 71.07 41.96 72.04 C40.16 73.04 38.37 74.03 36.57 75.02 C30.96 78.11 25.46 81.38 19.94 84.62 C17.14 86.26 14.35 87.9 11.55 89.52 C9.87 90.49 8.21 91.48 6.56 92.49 C-0.05 96.41 -5.33 97.09 -13 96 C-18.03 93.62 -21.5 90 -24 85 C-24.11 82.69 -24.16 80.38 -24.18 78.08 C-24.18 77.36 -24.19 76.65 -24.2 75.92 C-24.22 73.55 -24.23 71.19 -24.24 68.83 C-24.24 68.02 -24.25 67.21 -24.25 66.38 C-24.27 62.11 -24.29 57.84 -24.3 53.56 C-24.31 49.15 -24.34 44.74 -24.38 40.33 C-24.41 36.94 -24.41 33.55 -24.42 30.15 C-24.42 28.53 -24.43 26.9 -24.45 25.28 C-24.48 23 -24.48 20.72 -24.47 18.44 C-24.48 17.15 -24.48 15.85 -24.49 14.52 C-23.75 9.21 -21.33 6.17 -17.38 2.69 C-11.99 -1.14 -6.43 -0.77 0 0 Z M-7 17 C-8.27 18.05 -8.27 18.05 -8.12 20.4 C-8.12 21.46 -8.12 22.53 -8.11 23.62 C-8.11 24.82 -8.11 26.02 -8.11 27.26 C-8.11 28.57 -8.1 29.88 -8.1 31.22 C-8.1 32.57 -8.09 33.91 -8.09 35.25 C-8.09 38.8 -8.08 42.34 -8.07 45.88 C-8.06 49.5 -8.05 53.11 -8.05 56.72 C-8.04 63.81 -8.02 70.91 -8 78 C-5.13 79.32 -5.13 79.32 -2.93 78.14 C-2.13 77.68 -1.34 77.22 -0.52 76.75 C0.84 75.97 0.84 75.97 2.23 75.18 C3.2 74.6 4.18 74.03 5.19 73.44 C6.7 72.57 6.7 72.57 8.24 71.68 C11.5 69.79 14.75 67.9 18 66 C20.23 64.71 22.46 63.41 24.68 62.12 C30.46 58.76 36.24 55.4 42 52 C42.93 51.49 43.85 50.97 44.81 50.44 C45.53 49.97 46.25 49.49 47 49 C47 48.34 47 47.68 47 47 C46.35 46.62 45.7 46.25 45.03 45.86 C43.04 44.72 41.06 43.57 39.07 42.43 C36.76 41.09 34.44 39.75 32.12 38.42 C26.54 35.2 20.96 31.98 15.39 28.73 C13 27.34 10.61 25.95 8.22 24.57 C6.52 23.57 4.81 22.57 3.1 21.57 C2.07 20.97 1.03 20.37 -0.03 19.75 C-0.94 19.22 -1.86 18.69 -2.8 18.14 C-4.88 16.85 -4.88 16.85 -7 17 Z " fill="#FCDC02" transform="translate(360,336)"/>
<path d="M0 0 C2.5 1.75 2.5 1.75 4 4 C4 5.32 4 6.64 4 8 C4.58 7.98 5.17 7.96 5.77 7.94 C8.43 7.85 11.09 7.8 13.75 7.75 C14.67 7.72 15.59 7.68 16.54 7.65 C23.33 7.55 23.33 7.55 26.61 9.77 C28.06 12.1 28.54 13.28 28.5 16 C28.52 16.99 28.52 16.99 28.53 18 C27.69 21.15 26.73 22.16 24 24 C20.57 24.49 17.21 24.38 13.75 24.25 C12.81 24.23 11.88 24.21 10.91 24.2 C8.61 24.15 6.3 24.08 4 24 C3.85 25.42 3.85 25.42 3.69 26.88 C3 30 3 30 0 32 C-7.04 32.67 -7.04 32.67 -10.5 30.25 C-12 28 -12 28 -12 24 C-12.68 24 -13.35 24.01 -14.05 24.01 C-30.51 24.1 -46.97 24.17 -63.42 24.21 C-71.38 24.23 -79.34 24.26 -87.3 24.3 C-94.24 24.34 -101.17 24.37 -108.11 24.38 C-111.78 24.38 -115.46 24.39 -119.13 24.42 C-123.23 24.46 -127.33 24.46 -131.43 24.45 C-132.65 24.47 -133.87 24.48 -135.13 24.5 C-136.24 24.49 -137.36 24.49 -138.51 24.48 C-139.48 24.48 -140.45 24.49 -141.45 24.49 C-144.74 23.86 -145.92 22.57 -148 20 C-148.53 18 -148.53 18 -148.5 16 C-148.52 15.01 -148.52 15.01 -148.53 14 C-147.76 11.08 -146.31 9.91 -144 8 C-141.45 7.51 -141.45 7.51 -138.51 7.52 C-137.39 7.51 -136.28 7.51 -135.13 7.5 C-133.91 7.52 -132.69 7.53 -131.43 7.55 C-130.14 7.55 -128.85 7.54 -127.53 7.54 C-124 7.54 -120.47 7.57 -116.94 7.59 C-113.25 7.62 -109.56 7.62 -105.87 7.63 C-98.89 7.64 -91.91 7.67 -84.92 7.71 C-76.97 7.76 -69.02 7.78 -61.07 7.8 C-44.71 7.84 -28.36 7.91 -12 8 C-11.85 6.58 -11.85 6.58 -11.69 5.12 C-10.36 -0.9 -5.31 -0.88 0 0 Z " fill="#FCDC02" transform="translate(436,440)"/>
<path d="M0 0 C8.34 4.98 13.53 11.86 16.11 21.26 C17.11 32.36 16.46 41.99 9.36 51.07 C3.69 57.14 -3.36 60.85 -11.66 61.59 C-19.44 61.77 -26.17 61.59 -32.89 57.26 C-33.6 56.82 -34.3 56.39 -35.03 55.94 C-41.94 51.26 -45.69 45.26 -47.89 37.26 C-48.89 26.16 -48.24 16.52 -41.14 7.45 C-30.84 -3.58 -13.59 -6.52 0 0 Z M-29.27 20.88 C-31.47 25.46 -31.69 29.26 -30.89 34.26 C-28.56 39.1 -25.73 41.93 -20.89 44.26 C-15.9 45.05 -12.09 44.84 -7.52 42.63 C-3.93 39.39 -1.3 36.79 -0.51 31.86 C-0.25 26.18 -0.95 22.61 -4.89 18.26 C-9.24 14.32 -12.81 13.62 -18.49 13.88 C-23.43 14.66 -26.02 17.3 -29.27 20.88 Z " fill="#FCDC02" transform="translate(183.890625,74.7421875)"/>
<path d="M0 0 C1.01 -0.01 2.02 -0.02 3.06 -0.03 C4.16 -0.03 5.26 -0.02 6.4 -0.01 C7.56 -0.02 8.73 -0.02 9.93 -0.03 C13.78 -0.05 17.64 -0.04 21.49 -0.02 C24.17 -0.03 26.84 -0.03 29.52 -0.03 C35.12 -0.04 40.73 -0.03 46.34 -0.01 C52.82 0.01 59.31 0 65.79 -0.02 C71.36 -0.04 76.92 -0.04 82.49 -0.03 C85.82 -0.02 89.14 -0.03 92.47 -0.04 C96.17 -0.05 99.88 -0.03 103.58 -0.01 C104.69 -0.02 105.79 -0.03 106.92 -0.03 C108.44 -0.02 108.44 -0.02 109.98 0 C110.86 0 111.73 0 112.64 0 C115.77 0.67 116.98 2.07 118.99 4.51 C119.52 6.51 119.52 6.51 119.49 8.51 C119.51 9.5 119.51 9.5 119.52 10.51 C118.75 13.41 117.27 14.6 114.99 16.51 C112.64 17.01 112.64 17.01 109.98 17.02 C108.97 17.03 107.96 17.04 106.92 17.05 C105.82 17.04 104.72 17.03 103.58 17.03 C102.42 17.03 101.25 17.04 100.05 17.05 C96.2 17.06 92.35 17.05 88.49 17.04 C85.82 17.04 83.14 17.05 80.46 17.05 C74.86 17.06 69.25 17.05 63.64 17.03 C57.16 17.01 50.67 17.01 44.19 17.04 C38.62 17.05 33.06 17.06 27.49 17.05 C24.16 17.04 20.84 17.04 17.51 17.05 C13.81 17.06 10.1 17.05 6.4 17.03 C5.3 17.03 4.19 17.04 3.06 17.05 C1.54 17.03 1.54 17.03 0 17.02 C-0.88 17.01 -1.75 17.01 -2.65 17.01 C-5.79 16.34 -7 14.95 -9.01 12.51 C-9.54 10.51 -9.54 10.51 -9.51 8.51 C-9.53 7.52 -9.53 7.52 -9.54 6.51 C-8.24 1.6 -4.75 0.01 0 0 Z " fill="#FCDC02" transform="translate(345.009765625,191.4920654296875)"/>
<path d="M0 0 C1.01 -0.01 2.02 -0.02 3.06 -0.03 C4.16 -0.03 5.26 -0.02 6.4 -0.01 C7.56 -0.02 8.73 -0.02 9.93 -0.03 C13.78 -0.05 17.64 -0.04 21.49 -0.02 C24.17 -0.03 26.84 -0.03 29.52 -0.03 C35.12 -0.04 40.73 -0.03 46.34 -0.01 C52.82 0.01 59.31 0 65.79 -0.02 C71.36 -0.04 76.92 -0.04 82.49 -0.03 C85.82 -0.02 89.14 -0.03 92.47 -0.04 C96.17 -0.05 99.88 -0.03 103.58 -0.01 C104.69 -0.02 105.79 -0.03 106.92 -0.03 C108.44 -0.02 108.44 -0.02 109.98 0 C110.86 0 111.73 0 112.64 0 C115.77 0.67 116.98 2.07 118.99 4.51 C119.52 6.51 119.52 6.51 119.49 8.51 C119.51 9.5 119.51 9.5 119.52 10.51 C118.75 13.41 117.27 14.6 114.99 16.51 C112.64 17.01 112.64 17.01 109.98 17.02 C108.97 17.03 107.96 17.04 106.92 17.05 C105.82 17.04 104.72 17.03 103.58 17.03 C102.42 17.03 101.25 17.04 100.05 17.05 C96.2 17.06 92.35 17.05 88.49 17.04 C85.82 17.04 83.14 17.05 80.46 17.05 C74.86 17.06 69.25 17.05 63.64 17.03 C57.16 17.01 50.67 17.01 44.19 17.04 C38.62 17.05 33.06 17.06 27.49 17.05 C24.16 17.04 20.84 17.04 17.51 17.05 C13.81 17.06 10.1 17.05 6.4 17.03 C5.3 17.03 4.19 17.04 3.06 17.05 C1.54 17.03 1.54 17.03 0 17.02 C-0.88 17.01 -1.75 17.01 -2.65 17.01 C-5.79 16.34 -7 14.95 -9.01 12.51 C-9.54 10.51 -9.54 10.51 -9.51 8.51 C-9.53 7.52 -9.53 7.52 -9.54 6.51 C-8.24 1.6 -4.75 0.01 0 0 Z " fill="#FCDC02" transform="translate(345.009765625,119.4920654296875)"/>
<path d="M0 0 C0.85 -0.01 1.7 -0.01 2.58 -0.02 C5.4 -0.04 8.21 -0.03 11.03 -0.01 C12.99 -0.02 14.95 -0.02 16.9 -0.03 C21.01 -0.03 25.11 -0.02 29.21 -0 C34.47 0.02 39.73 0.01 44.99 -0.02 C49.03 -0.03 53.07 -0.03 57.12 -0.02 C59.05 -0.02 60.99 -0.02 62.93 -0.03 C65.64 -0.04 68.35 -0.02 71.06 0 C71.86 -0.01 72.67 -0.02 73.49 -0.02 C77.09 0.03 79.12 0.21 82.03 2.42 C83.66 4.69 84.07 5.76 84.03 8.52 C84.05 9.51 84.05 9.51 84.06 10.52 C83.26 13.55 82.03 14.61 79.53 16.52 C76.58 16.91 74.01 17.06 71.06 17.04 C69.78 17.05 69.78 17.05 68.48 17.06 C65.66 17.07 62.85 17.06 60.03 17.05 C58.07 17.05 56.12 17.06 54.16 17.06 C50.06 17.07 45.95 17.06 41.85 17.04 C36.59 17.02 31.33 17.03 26.07 17.05 C22.03 17.07 17.99 17.06 13.95 17.05 C12.01 17.05 10.07 17.05 8.13 17.06 C5.42 17.07 2.71 17.06 0 17.04 C-0.8 17.04 -1.6 17.05 -2.43 17.06 C-6.03 17 -8.06 16.83 -10.96 14.61 C-12.59 12.34 -13.01 11.28 -12.97 8.52 C-12.98 7.53 -12.98 7.53 -13 6.52 C-11.25 -0.08 -5.82 -0.06 0 0 Z " fill="#FCDC02" transform="translate(348.46875,47.482421875)"/>
<path d="M0 0 C1.27 -0.01 2.54 -0.03 3.84 -0.04 C5.22 -0.03 6.6 -0.02 7.98 -0.01 C9.4 -0.02 10.82 -0.02 12.24 -0.03 C15.22 -0.03 18.19 -0.02 21.16 -0 C24.97 0.02 28.77 0.01 32.58 -0.02 C35.51 -0.03 38.44 -0.03 41.37 -0.02 C42.77 -0.02 44.18 -0.02 45.58 -0.03 C47.54 -0.04 49.51 -0.02 51.47 0 C52.58 0 53.7 0.01 54.85 0.01 C58.38 0.63 59.55 1.74 61.73 4.52 C62.27 6.52 62.27 6.52 62.23 8.52 C62.25 9.51 62.25 9.51 62.27 10.52 C61.48 13.46 60.09 14.61 57.73 16.52 C54.85 17.03 54.85 17.03 51.47 17.04 C50.2 17.05 48.93 17.06 47.63 17.07 C46.25 17.07 44.86 17.06 43.48 17.05 C42.06 17.05 40.65 17.06 39.23 17.06 C36.25 17.07 33.28 17.06 30.31 17.04 C26.5 17.02 22.7 17.03 18.89 17.05 C15.96 17.07 13.03 17.06 10.1 17.05 C8.69 17.05 7.29 17.05 5.89 17.06 C3.93 17.07 1.96 17.05 0 17.04 C-1.12 17.03 -2.23 17.03 -3.38 17.03 C-6.91 16.4 -8.08 15.3 -10.27 12.52 C-10.8 10.52 -10.8 10.52 -10.77 8.52 C-10.78 7.53 -10.78 7.53 -10.8 6.52 C-9.3 0.9 -5.24 0.01 0 0 Z " fill="#FCDC02" transform="translate(346.265625,159.482421875)"/>
<path d="M0 0 C1.27 -0.01 2.54 -0.03 3.84 -0.04 C5.22 -0.03 6.6 -0.02 7.98 -0.01 C9.4 -0.02 10.82 -0.02 12.24 -0.03 C15.22 -0.03 18.19 -0.02 21.16 -0 C24.97 0.02 28.77 0.01 32.58 -0.02 C35.51 -0.03 38.44 -0.03 41.37 -0.02 C42.77 -0.02 44.18 -0.02 45.58 -0.03 C47.54 -0.04 49.51 -0.02 51.47 0 C52.58 0 53.7 0.01 54.85 0.01 C58.38 0.63 59.55 1.74 61.73 4.52 C62.27 6.52 62.27 6.52 62.23 8.52 C62.25 9.51 62.25 9.51 62.27 10.52 C61.48 13.46 60.09 14.61 57.73 16.52 C54.85 17.03 54.85 17.03 51.47 17.04 C50.2 17.05 48.93 17.06 47.63 17.07 C46.25 17.07 44.86 17.06 43.48 17.05 C42.06 17.05 40.65 17.06 39.23 17.06 C36.25 17.07 33.28 17.06 30.31 17.04 C26.5 17.02 22.7 17.03 18.89 17.05 C15.96 17.07 13.03 17.06 10.1 17.05 C8.69 17.05 7.29 17.05 5.89 17.06 C3.93 17.07 1.96 17.05 0 17.04 C-1.12 17.03 -2.23 17.03 -3.38 17.03 C-6.91 16.4 -8.08 15.3 -10.27 12.52 C-10.8 10.52 -10.8 10.52 -10.77 8.52 C-10.78 7.53 -10.78 7.53 -10.8 6.52 C-9.3 0.9 -5.24 0.01 0 0 Z " fill="#FCDC02" transform="translate(402.265625,87.482421875)"/>
<path d="M0 0 C1.05 -0 2.1 -0.01 3.18 -0.01 C5.4 -0.01 7.62 -0.01 9.84 0.01 C13.24 0.03 16.63 0.01 20.03 -0.02 C22.19 -0.01 24.34 -0.01 26.5 0 C27.52 -0.01 28.53 -0.02 29.58 -0.02 C36.61 0.07 36.61 0.07 39.89 2.44 C41.36 4.69 41.79 5.86 41.75 8.53 C41.76 9.19 41.77 9.85 41.78 10.53 C40.95 13.66 39.91 14.61 37.25 16.53 C33.67 17.15 30.12 17.09 26.5 17.06 C24.92 17.07 24.92 17.07 23.32 17.07 C21.1 17.08 18.88 17.07 16.66 17.05 C13.26 17.03 9.87 17.05 6.47 17.08 C4.31 17.08 2.16 17.07 0 17.06 C-1.02 17.07 -2.03 17.08 -3.08 17.09 C-10.11 16.99 -10.11 16.99 -13.39 14.62 C-14.86 12.37 -15.29 11.2 -15.25 8.53 C-15.27 7.54 -15.27 7.54 -15.28 6.53 C-13.28 -1.01 -6.37 -0.05 0 0 Z " fill="#FCDC02" transform="translate(350.75,223.46875)"/>
<path d="M0 0 C3.13 1.67 5.39 3.79 7 7 C7.52 11.09 7.94 15.24 5.95 18.96 C3.56 21.86 1.6 23.8 -2.17 24.27 C-9.99 24.58 -9.99 24.58 -13.56 21.62 C-17.31 17.59 -17.39 14.91 -17.36 9.55 C-16.78 5.44 -15 3.79 -12 1 C-8.28 -0.86 -4.06 -0.57 0 0 Z " fill="#FCDC02" transform="translate(181,372)"/>
<path d="M0 0 C3.13 1.67 5.39 3.79 7 7 C7.52 11.09 7.94 15.24 5.95 18.96 C3.56 21.86 1.6 23.8 -2.17 24.27 C-9.99 24.58 -9.99 24.58 -13.56 21.62 C-17.31 17.59 -17.39 14.91 -17.36 9.55 C-16.78 5.44 -15 3.79 -12 1 C-8.28 -0.86 -4.06 -0.57 0 0 Z " fill="#FCDC02" transform="translate(125,372)"/>
<path d="M0 0 C3.13 1.67 5.39 3.79 7 7 C7.52 11.09 7.94 15.24 5.95 18.96 C3.56 21.86 1.6 23.8 -2.17 24.27 C-9.99 24.58 -9.99 24.58 -13.56 21.62 C-17.31 17.59 -17.39 14.91 -17.36 9.55 C-16.78 5.44 -15 3.79 -12 1 C-8.28 -0.86 -4.06 -0.57 0 0 Z " fill="#FCDC02" transform="translate(69,372)"/>
<path d="M0 0 C1.05 -0.01 2.1 -0.01 3.19 -0.02 C4.28 -0 5.37 0.02 6.5 0.03 C8.14 0.01 8.14 0.01 9.81 -0.02 C10.86 -0.01 11.92 -0.01 13 0 C14.44 0.01 14.44 0.01 15.91 0.01 C19.21 0.67 20.41 1.94 22.5 4.53 C23.03 6.53 23.03 6.53 23 8.53 C23.01 9.19 23.02 9.85 23.03 10.53 C22.26 13.45 20.81 14.62 18.5 16.53 C15.91 17.05 15.91 17.05 13 17.06 C11.95 17.07 10.9 17.07 9.81 17.08 C8.72 17.06 7.63 17.05 6.5 17.03 C4.86 17.05 4.86 17.05 3.19 17.08 C2.14 17.07 1.08 17.07 0 17.06 C-0.96 17.06 -1.92 17.05 -2.91 17.05 C-6.21 16.39 -7.41 15.12 -9.5 12.53 C-10.03 10.53 -10.03 10.53 -10 8.53 C-10.02 7.54 -10.02 7.54 -10.03 6.53 C-8.65 1.34 -4.94 0.02 0 0 Z " fill="#FCDC02" transform="translate(441.5,159.46875)"/>
<path d="M0 0 C1.05 -0.01 2.1 -0.01 3.19 -0.02 C4.28 -0 5.37 0.02 6.5 0.03 C8.14 0.01 8.14 0.01 9.81 -0.02 C10.86 -0.01 11.92 -0.01 13 0 C14.44 0.01 14.44 0.01 15.91 0.01 C19.21 0.67 20.41 1.94 22.5 4.53 C23.03 6.53 23.03 6.53 23 8.53 C23.01 9.19 23.02 9.85 23.03 10.53 C22.26 13.45 20.81 14.62 18.5 16.53 C15.91 17.05 15.91 17.05 13 17.06 C11.95 17.07 10.9 17.07 9.81 17.08 C8.72 17.06 7.63 17.05 6.5 17.03 C4.86 17.05 4.86 17.05 3.19 17.08 C2.14 17.07 1.08 17.07 0 17.06 C-0.96 17.06 -1.92 17.05 -2.91 17.05 C-6.21 16.39 -7.41 15.12 -9.5 12.53 C-10.03 10.53 -10.03 10.53 -10 8.53 C-10.02 7.54 -10.02 7.54 -10.03 6.53 C-8.65 1.34 -4.94 0.02 0 0 Z " fill="#FCDC02" transform="translate(345.5,87.46875)"/>
</svg>
