<?xml version="1.0" encoding="UTF-8"?>
<!-- Generator: visioncortex VTracer 0.6.4 -->
<svg version="1.1" xmlns="http://www.w3.org/2000/svg" width="512" height="512">
    <path
        d="M0 0 C1.38 -0 2.75 -0 4.13 -0.01 C7.9 -0.01 11.67 -0.01 15.44 -0.01 C19.51 -0.01 23.58 -0.02 27.65 -0.02 C35.62 -0.03 43.59 -0.03 51.55 -0.03 C58.03 -0.03 64.51 -0.04 70.99 -0.04 C89.37 -0.05 107.75 -0.05 126.13 -0.05 C127.12 -0.05 128.11 -0.05 129.13 -0.05 C130.12 -0.05 131.11 -0.05 132.14 -0.05 C148.2 -0.05 164.27 -0.06 180.34 -0.07 C196.85 -0.09 213.36 -0.1 229.87 -0.1 C239.13 -0.09 248.39 -0.1 257.66 -0.11 C265.55 -0.12 273.43 -0.12 281.32 -0.11 C285.34 -0.11 289.36 -0.11 293.39 -0.12 C297.07 -0.13 300.76 -0.12 304.45 -0.12 C306.4 -0.11 308.35 -0.12 310.31 -0.13 C322.96 -0.08 334.17 0.95 343.68 9.88 C351.28 17.92 353.76 27.18 353.66 38.01 C353.66 38.87 353.66 39.73 353.66 40.61 C353.66 43.43 353.64 46.25 353.63 49.07 C353.62 51.03 353.62 52.99 353.62 54.96 C353.61 60.11 353.59 65.26 353.57 70.41 C353.55 75.67 353.54 80.93 353.53 86.19 C353.51 96.51 353.47 106.82 353.43 117.13 C355.42 117.09 357.41 117.04 359.41 117 C361.43 117.13 361.43 117.13 364.26 118.55 C366.83 121.61 367.53 124.13 368.55 127.94 C370.48 135.58 370.48 135.58 375.25 141.57 C379.75 143.93 384.51 145 389.43 146.13 C390.13 146.52 390.83 146.91 391.55 147.32 C394.45 148.57 396.42 147.92 399.43 147.13 C401.42 146.18 403.38 145.15 405.31 144.07 C413.72 139.8 413.72 139.8 419.43 141.13 C421.68 142.9 423.52 144.8 425.43 146.92 C427.32 149.01 429.27 150.77 431.43 152.57 C434.39 155.15 437.21 157.8 439.93 160.63 C440.6 161.32 441.27 162.02 441.96 162.73 C444.05 166.14 443.94 168.18 443.43 172.13 C441.99 175.72 440.03 179.01 438.1 182.35 C435.82 186.29 435.82 186.29 435.99 190.65 C436.71 191.88 436.71 191.88 437.43 193.13 C438.48 195.65 439.52 198.17 440.56 200.7 C440.97 201.69 440.97 201.69 441.4 202.69 C442.8 206.12 443.43 208.37 443.43 212.13 C444.71 212.4 445.99 212.67 447.31 212.95 C450.8 213.74 454.28 214.57 457.74 215.51 C458.55 215.72 459.35 215.94 460.17 216.16 C463.12 217.43 464.45 218.56 466.43 221.13 C466.84 224.04 467.02 226.57 467 229.48 C467 230.28 467.01 231.09 467.02 231.92 C467.02 233.62 467.02 235.32 467.01 237.02 C466.99 239.63 467.03 242.22 467.07 244.83 C467.07 246.48 467.07 248.14 467.06 249.79 C467.08 250.95 467.08 250.95 467.1 252.14 C467.04 255.96 466.8 257.74 464.14 260.56 C461.89 261.86 459.98 262.88 457.51 263.62 C456.82 263.83 456.12 264.04 455.4 264.26 C454.69 264.47 453.98 264.67 453.24 264.88 C452.52 265.1 451.8 265.32 451.05 265.55 C445.77 267.13 445.77 267.13 443.43 267.13 C443.12 268.96 443.12 268.96 442.81 270.82 C441.63 276.36 439.12 281.05 436.48 286.02 C435.16 289.95 435.71 291.42 437.43 295.13 C438.44 296.97 439.48 298.78 440.56 300.57 C444.67 308.09 444.67 308.09 443.43 313.13 C438.99 319.12 433.39 324.33 428.12 329.57 C427.4 330.29 426.69 331.01 425.95 331.75 C424.93 332.77 424.93 332.77 423.88 333.82 C423.27 334.43 422.65 335.05 422.02 335.68 C419.69 337.81 418.51 338.13 415.31 338.47 C411.09 338.1 409.08 337.04 405.53 334.93 C399.32 331.14 399.32 331.14 392.3 330.43 C388.85 331.6 385.88 333.3 382.8 335.22 C379.03 337.36 376.68 337.79 372.43 338.13 C372.25 338.82 372.07 339.51 371.88 340.22 C370.64 344.88 369.37 349.53 367.93 354.13 C367.61 355.19 367.61 355.19 367.28 356.26 C366.29 358.46 365.32 359.64 363.43 361.13 C358.09 362.95 352.15 362.32 346.59 362.32 C344.5 362.32 342.42 362.34 340.34 362.36 C338.36 362.36 338.36 362.36 336.34 362.36 C335.14 362.37 333.93 362.37 332.69 362.38 C329.48 362.14 327.29 361.59 324.43 360.13 C323.21 358.39 323.21 358.39 322.37 356.26 C322.03 355.46 321.7 354.66 321.35 353.84 C320.43 351.13 320.43 351.13 319.86 348.08 C318.7 342.27 318.7 342.27 314.8 338.06 C310.82 336.17 306.67 334.9 302.41 333.77 C300.43 333.13 300.43 333.13 296.92 331.24 C293.18 330.05 292.8 330.03 289.49 331.59 C288.13 332.35 286.77 333.14 285.43 333.95 C280.27 336.97 276.64 338.95 270.43 338.13 C268.53 337.13 268.53 337.13 266.93 335.57 C266.28 334.94 265.63 334.31 264.96 333.66 C263.71 332.41 263.71 332.41 262.43 331.13 C261.18 329.95 259.92 328.76 258.66 327.58 C257.29 326.26 255.92 324.95 254.56 323.63 C253.89 323.01 253.22 322.38 252.54 321.73 C251.91 321.11 251.28 320.49 250.63 319.85 C250.06 319.31 249.49 318.76 248.91 318.19 C247.43 316.13 247.43 316.13 245.43 309.13 C229.92 308.8 214.41 308.47 198.43 308.13 C201.96 317.74 201.96 317.74 205.49 327.34 C205.93 328.54 206.38 329.75 206.83 330.99 C207.28 332.21 207.73 333.44 208.2 334.7 C209.32 337.83 210.4 340.97 211.43 344.13 C212.76 344.15 212.76 344.15 214.12 344.16 C217.43 344.21 220.73 344.27 224.03 344.34 C225.46 344.37 226.89 344.39 228.31 344.4 C230.37 344.43 232.42 344.47 234.48 344.52 C236.33 344.56 236.33 344.56 238.22 344.59 C241.96 345.22 243.16 346.16 245.43 349.13 C246.16 351.87 246.01 354.36 245.43 357.13 C243.22 360.1 241.95 360.96 238.43 362.13 C236.19 362.23 233.94 362.26 231.69 362.27 C230.66 362.27 230.66 362.27 229.6 362.27 C227.29 362.28 224.97 362.28 222.66 362.28 C221 362.28 219.34 362.29 217.69 362.29 C213.18 362.3 208.67 362.3 204.17 362.3 C200.41 362.3 196.65 362.31 192.89 362.31 C184.02 362.32 175.15 362.32 166.28 362.32 C157.12 362.32 147.97 362.33 138.81 362.34 C130.96 362.36 123.1 362.36 115.25 362.36 C110.55 362.36 105.86 362.37 101.17 362.38 C96.75 362.39 92.34 362.39 87.92 362.38 C86.3 362.38 84.68 362.38 83.06 362.39 C80.85 362.39 78.64 362.39 76.43 362.38 C75.19 362.38 73.95 362.38 72.68 362.38 C68.54 362.07 65.63 361.29 62.62 358.38 C61.02 355.35 60.95 353.52 61.43 350.13 C63.02 347.49 63.02 347.49 65.43 345.13 C68.64 344.47 68.64 344.47 72.39 344.43 C73.59 344.4 74.8 344.37 76.05 344.34 C77.58 344.33 79.11 344.33 80.68 344.32 C87.98 344.23 87.98 344.23 95.43 344.13 C99.72 332.25 104.01 320.37 108.43 308.13 C102.79 308.16 102.79 308.16 97.02 308.18 C84.57 308.23 72.12 308.26 59.67 308.29 C52.12 308.3 44.57 308.33 37.02 308.36 C30.44 308.39 23.85 308.41 17.27 308.42 C13.79 308.42 10.31 308.43 6.82 308.45 C2.93 308.48 -0.97 308.48 -4.87 308.47 C-6.01 308.49 -7.15 308.5 -8.33 308.51 C-20.2 308.46 -28.68 305.79 -37.26 297.5 C-44.17 290.05 -46.17 282.34 -46.08 272.36 C-46.08 271.31 -46.09 270.26 -46.09 269.18 C-46.11 265.68 -46.1 262.18 -46.09 258.68 C-46.09 256.16 -46.1 253.64 -46.11 251.13 C-46.12 245.01 -46.12 238.9 -46.11 232.78 C-46.1 227.81 -46.1 222.83 -46.1 217.86 C-46.1 217.15 -46.1 216.44 -46.11 215.71 C-46.11 214.27 -46.11 212.83 -46.11 211.39 C-46.12 197.89 -46.11 184.39 -46.09 170.9 C-46.07 159.33 -46.07 147.76 -46.09 136.2 C-46.11 122.75 -46.12 109.3 -46.11 95.85 C-46.11 94.41 -46.1 92.98 -46.1 91.54 C-46.1 90.84 -46.1 90.13 -46.1 89.4 C-46.1 84.44 -46.1 79.48 -46.11 74.51 C-46.13 67.82 -46.12 61.13 -46.09 54.45 C-46.09 51.99 -46.09 49.54 -46.1 47.09 C-46.11 43.74 -46.1 40.39 -46.08 37.03 C-46.08 36.07 -46.09 35.1 -46.1 34.11 C-45.99 24.28 -42.75 16.31 -35.97 9.18 C-25.14 -0.03 -13.48 -0.02 0 0 Z M-24.32 22.26 C-31.25 31.12 -29.97 42.23 -29.91 52.87 C-29.91 54.81 -29.91 56.74 -29.91 58.67 C-29.91 63.83 -29.89 68.99 -29.87 74.15 C-29.85 79 -29.85 83.85 -29.85 88.7 C-29.84 102.87 -29.79 117.03 -29.76 131.2 C-29.69 162.86 -29.63 194.51 -29.57 227.13 C53.59 227.13 136.75 227.13 222.43 227.13 C223.09 224.82 223.75 222.51 224.43 220.13 C226.17 218.72 226.17 218.72 228.31 217.95 C229.1 217.63 229.9 217.31 230.73 216.99 C233.43 216.13 233.43 216.13 236.48 215.53 C239.92 214.75 242.44 214.01 245.43 212.13 C247.6 208.45 248.98 204.92 250.25 200.86 C251.43 197.13 251.43 197.13 253.15 194.03 C254.73 190.45 254.52 188.86 253.43 185.13 C252.5 183.08 251.5 181.06 250.43 179.07 C246.62 171.96 246.62 171.96 246.43 168.13 C248.29 163.78 250.46 160.74 253.81 157.43 C254.65 156.59 255.49 155.76 256.35 154.9 C257.22 154.05 258.1 153.2 258.99 152.32 C259.87 151.45 260.75 150.58 261.65 149.68 C269.79 141.64 269.79 141.64 275.81 141.63 C280.02 142.44 283.66 144.59 287.33 146.73 C290.19 148.33 292.11 149.14 295.42 149.03 C298.91 147.99 302.16 146.68 305.49 145.2 C312.42 142.14 312.42 142.14 315.14 141.57 C319.13 139.07 319.71 134.48 320.99 130.13 C321.54 128.3 322.11 126.46 322.69 124.63 C323.05 123.41 323.05 123.41 323.41 122.16 C324.43 120.13 324.43 120.13 326.04 118.91 C329.46 117.8 332.86 117.55 336.43 117.13 C336.52 106.06 336.6 94.98 336.64 83.91 C336.66 78.77 336.69 73.62 336.73 68.48 C336.78 63.51 336.8 58.55 336.81 53.58 C336.82 51.69 336.83 49.8 336.85 47.91 C336.88 45.25 336.89 42.59 336.89 39.94 C336.91 38.77 336.91 38.77 336.93 37.59 C336.88 30.86 334.85 25.55 330.06 20.76 C325.34 17.84 320.97 16.88 315.47 16.88 C314.29 16.87 313.11 16.87 311.9 16.86 C309.97 16.87 309.97 16.87 308 16.87 C306.62 16.87 305.23 16.87 303.84 16.86 C300.04 16.85 296.24 16.85 292.43 16.86 C288.33 16.86 284.22 16.85 280.12 16.84 C272.08 16.83 264.04 16.83 256 16.83 C249.47 16.83 242.94 16.83 236.4 16.83 C235.01 16.83 235.01 16.83 233.58 16.83 C231.7 16.82 229.81 16.82 227.92 16.82 C210.21 16.81 192.49 16.81 174.78 16.82 C158.57 16.82 142.37 16.81 126.16 16.79 C109.52 16.77 92.88 16.77 76.24 16.77 C66.9 16.77 57.56 16.77 48.21 16.76 C40.26 16.74 32.31 16.74 24.36 16.75 C20.3 16.76 16.24 16.76 12.18 16.75 C8.47 16.74 4.75 16.74 1.04 16.76 C-0.94 16.76 -2.92 16.75 -4.9 16.74 C-12.79 16.79 -17.96 17.34 -24.32 22.26 Z M336.43 134.13 C336.05 135.4 335.66 136.66 335.26 137.97 C334.73 139.63 334.21 141.29 333.68 142.95 C333.43 143.78 333.18 144.61 332.92 145.47 C330.97 151.54 330.97 151.54 328.69 154.07 C325.56 155.55 322.32 156.47 318.99 157.38 C312.12 159.37 306.43 162.04 300.3 165.78 C296.93 167.37 295.12 167.64 291.43 167.13 C288.32 165.71 285.42 164.15 282.47 162.45 C279.05 160.48 279.05 160.48 275.27 160.68 C273.12 162.38 271.09 164.1 269.12 166.01 C268.4 166.69 267.68 167.36 266.94 168.06 C265.23 169.96 265.23 169.96 265.51 172 C267.24 176 269.26 179.87 271.25 183.75 C272.84 188.29 272.53 191.53 270.65 195.98 C269.69 197.93 268.67 199.85 267.62 201.76 C264.35 207.94 262.09 213.75 260.42 220.56 C259.21 223.72 258.4 224.52 255.43 226.13 C252.72 227.17 249.97 228.01 247.18 228.82 C246.06 229.16 246.06 229.16 244.92 229.5 C243.1 230.05 241.26 230.59 239.43 231.13 C239.43 236.41 239.43 241.69 239.43 247.13 C243.71 248.97 247.89 250.73 252.24 252.32 C253.65 252.84 253.65 252.84 255.08 253.36 C257.34 254.24 257.34 254.24 259.43 254.13 C259.65 255.19 259.65 255.19 259.88 256.27 C262.1 266.03 265.41 275.61 270.87 284.07 C272.96 288.17 272.73 289.72 271.43 294.13 C269.9 297.26 268.31 300.32 266.61 303.36 C265.29 305.95 265.29 305.95 265.47 308.2 C266.85 310.96 268.77 312.75 270.99 314.88 C271.82 315.68 272.65 316.48 273.5 317.31 C274.14 317.91 274.77 318.51 275.43 319.13 C280.27 317.63 284.45 315.61 288.87 313.16 C292.71 311.62 295.58 311.43 299.5 312.92 C301.88 314.02 304.22 315.19 306.56 316.38 C313.02 319.59 319.2 322.31 326.18 324.18 C329.06 325.4 329.88 326.41 331.43 329.13 C332.38 331.7 333.25 334.22 334.06 336.82 C335.15 341.33 335.15 341.33 337.43 345.13 C339.96 345.21 342.47 345.23 344.99 345.2 C345.71 345.19 346.42 345.19 347.15 345.18 C348.91 345.17 350.67 345.15 352.43 345.13 C352.61 344.57 352.78 344.01 352.96 343.44 C353.78 340.89 354.64 338.36 355.49 335.82 C355.77 334.94 356.04 334.06 356.33 333.15 C358.58 326.64 358.58 326.64 362.69 324.21 C363.92 323.85 365.16 323.5 366.43 323.13 C367.72 322.67 369.01 322.19 370.3 321.7 C371.64 321.22 372.97 320.74 374.31 320.26 C379.67 318.31 384.58 316.22 389.34 313.02 C392.54 311.66 394.99 311.8 398.43 312.13 C401.59 313.54 404.47 315.09 407.45 316.82 C410.83 318.78 410.83 318.78 414.59 318.6 C416.78 316.86 418.74 315.02 420.68 313.01 C421.39 312.28 422.09 311.56 422.82 310.81 C423.35 310.26 423.88 309.7 424.43 309.13 C423.03 304.3 420.91 300.16 418.46 295.79 C416.56 290.86 416.93 287.3 419.01 282.48 C419.7 281.19 420.4 279.91 421.12 278.63 C424.09 273.13 426.21 267.9 427.87 261.88 C429.83 255.65 429.83 255.65 432.39 253.45 C434.72 252.4 436.95 251.76 439.43 251.13 C441.29 250.4 443.15 249.65 444.99 248.88 C446.46 248.31 447.92 247.73 449.43 247.13 C449.43 241.85 449.43 236.57 449.43 231.13 C446.64 230.13 443.85 229.13 441.06 228.13 C440.26 227.85 439.47 227.56 438.65 227.27 C437.89 227 437.13 226.73 436.35 226.45 C435.64 226.19 434.94 225.94 434.22 225.68 C432.43 225.04 432.43 225.04 430.43 225.13 C430.27 224.56 430.11 223.99 429.95 223.4 C427.13 213.61 423.98 203.89 418.35 195.33 C416.99 192.07 417.09 189.64 417.43 186.13 C418.83 182.98 420.39 180.1 422.12 177.12 C424.08 173.73 424.08 173.73 423.88 169.98 C422.2 167.83 420.51 165.79 418.62 163.82 C417.62 162.74 417.62 162.74 416.6 161.65 C414.54 159.89 414.54 159.89 412.04 160.21 C407.96 161.66 404.32 163.82 400.56 165.95 C396.11 167.63 392.88 167.11 388.48 165.35 C386.37 164.39 384.31 163.37 382.24 162.32 C376.19 159.34 370.26 156.88 363.75 155.02 C360.6 153.82 358.98 152.3 357.54 149.23 C357.31 148.54 357.07 147.84 356.83 147.12 C356.57 146.36 356.3 145.61 356.04 144.83 C355.64 143.65 355.64 143.65 355.24 142.45 C354.97 141.65 354.7 140.85 354.42 140.03 C353.75 138.07 353.09 136.1 352.43 134.13 C347.15 134.13 341.87 134.13 336.43 134.13 Z M-29.57 244.13 C-31.36 265.18 -31.36 265.18 -25.38 285.45 C-19.05 291.5 -12.83 291.57 -4.48 291.49 C-2.81 291.5 -2.81 291.5 -1.12 291.5 C2.59 291.51 6.3 291.49 10.01 291.47 C12.67 291.47 15.33 291.47 18 291.48 C23.72 291.48 29.45 291.47 35.18 291.45 C43.45 291.43 51.73 291.42 60.01 291.41 C73.45 291.41 86.88 291.39 100.32 291.36 C113.36 291.33 126.41 291.31 139.46 291.3 C140.26 291.3 141.07 291.3 141.9 291.3 C145.94 291.29 149.97 291.29 154.01 291.28 C187.48 291.25 220.96 291.2 254.43 291.13 C253.65 286.81 252.27 283.17 250.49 279.13 C247.44 272.17 247.44 272.17 246.83 269.43 C244.43 265.49 240.17 264.73 235.93 263.32 C235.05 263.01 234.17 262.7 233.26 262.38 C228.95 260.74 228.95 260.74 224.43 260.13 C223.44 252.21 223.44 252.21 222.43 244.13 C139.27 244.13 56.11 244.13 -29.57 244.13 Z M127.43 308.13 C124.17 315.96 121.01 323.74 118.12 331.7 C117.58 333.15 117.58 333.15 117.03 334.64 C116.69 335.56 116.35 336.49 116.01 337.45 C115.7 338.28 115.4 339.11 115.09 339.96 C114.29 342.23 114.29 342.23 114.43 345.13 C140.5 345.13 166.57 345.13 193.43 345.13 C187.49 328.3 187.49 328.3 181.43 311.13 C180.94 309.65 180.94 309.65 180.43 308.13 C162.94 308.13 145.45 308.13 127.43 308.13 Z "
        fill="#1EE2CF" transform="translate(45.56794738769531,74.86628723144531)" />
    <path
        d="M0 0 C9.85 9.57 15.45 21.31 16.03 35.06 C16.22 49.29 11.99 61.61 2.31 72.22 C-8.61 82.72 -21 87.18 -35.86 87.12 C-49.14 86.8 -60.59 81.57 -70.19 72.5 C-80.65 61.46 -84.68 48.85 -84.44 33.75 C-82.85 19.64 -77.19 6.94 -66.12 -2.15 C-45.47 -17.44 -19.56 -16.43 0 0 Z M-57.48 13.61 C-64.58 21.19 -67.54 29.39 -67.44 39.75 C-66.76 48.39 -62.45 56.32 -56.06 62.12 C-47.2 69.07 -38.55 70.58 -27.44 69.75 C-18.31 67.68 -10.52 61.55 -5.44 53.75 C-1 45.56 0.15 37.08 -2.13 27.98 C-5.59 18.53 -11.3 11.19 -20.44 6.75 C-34.32 2.17 -46.37 3.52 -57.48 13.61 Z "
        fill="#1EE2CF" transform="translate(424.4375,277.25)" />
    <path
        d="M0 0 C1.02 0.58 2.05 1.15 3.1 1.75 C3.67 2.06 4.24 2.38 4.82 2.7 C6.68 3.74 8.52 4.78 10.37 5.83 C11.66 6.55 12.95 7.27 14.24 8 C16.89 9.48 19.53 10.96 22.17 12.45 C25.81 14.5 29.45 16.54 33.1 18.57 C39.09 21.91 45.09 25.25 51.05 28.64 C52.13 29.25 53.21 29.86 54.33 30.49 C55.4 31.11 56.47 31.72 57.58 32.35 C59.04 33.19 59.04 33.19 60.54 34.04 C62.73 35.44 64.4 36.65 66.05 38.64 C66.52 40.76 66.52 40.76 66.55 43.08 C66.58 43.84 66.62 44.6 66.65 45.39 C65.56 49.5 62.23 50.94 58.73 53.02 C55.82 54.7 52.88 56.33 49.93 57.95 C48.29 58.86 48.29 58.86 46.62 59.79 C43.7 61.41 40.78 63.03 37.86 64.64 C33.65 66.97 29.44 69.3 25.24 71.64 C22.97 72.89 20.71 74.15 18.44 75.4 C12.12 78.9 5.88 82.5 -0.28 86.28 C-4.18 88.27 -7.72 88.91 -11.95 87.64 C-15.02 85.1 -15.79 83.55 -16.45 79.64 C-15.79 75.69 -14.79 74.52 -11.95 71.64 C-8.42 69.39 -4.72 67.5 -1.01 65.58 C1.15 64.43 3.32 63.29 5.48 62.14 C6.57 61.56 7.67 60.98 8.79 60.39 C13.8 57.7 18.75 54.9 23.68 52.08 C24.54 51.59 25.39 51.1 26.28 50.6 C30.65 48.09 34.9 45.5 39.05 42.64 C38.45 42.31 37.84 41.99 37.22 41.65 C25.59 35.4 14 29.11 2.49 22.64 C1.55 22.11 0.6 21.59 -0.37 21.04 C-14.13 13.27 -14.13 13.27 -15.95 9.64 C-16.37 5.81 -16.25 4.11 -14.13 0.83 C-9.69 -3.62 -5.33 -2.46 0 0 Z "
        fill="#1EE2CF" transform="translate(247.946533203125,154.360107421875)" />
    <path
        d="M0 0 C2.38 1.56 2.38 1.56 4 4 C4.87 9.49 4.87 9.49 4 12 C-1.22 17.36 -8.04 20.53 -14.56 24.06 C-16.98 25.39 -19.39 26.71 -21.8 28.04 C-22.41 28.37 -23.01 28.7 -23.63 29.04 C-29.52 32.27 -35.36 35.59 -41.19 38.94 C-42.08 39.45 -42.98 39.97 -43.9 40.49 C-45.94 41.66 -47.97 42.83 -50 44 C-45.23 48.28 -39.69 50.97 -34.06 53.94 C-25.51 58.51 -17.04 63.2 -8.69 68.12 C-7.76 68.67 -6.83 69.21 -5.87 69.77 C-5.01 70.28 -4.15 70.79 -3.26 71.32 C-2.51 71.77 -1.76 72.21 -0.98 72.67 C0.99 73.99 2.52 75.15 4 77 C4.75 83.75 4.75 83.75 2.5 87.5 C-1.05 89.63 -4.02 89.71 -8 89 C-12.26 87.26 -16.19 85.02 -20.19 82.75 C-21.91 81.8 -21.91 81.8 -23.66 80.82 C-27.12 78.91 -30.56 76.95 -34 75 C-34.96 74.46 -35.93 73.91 -36.92 73.35 C-41.24 70.91 -45.55 68.45 -49.85 65.96 C-53.52 63.84 -57.2 61.76 -60.9 59.69 C-61.87 59.15 -62.84 58.6 -63.83 58.04 C-65.69 57 -67.56 55.95 -69.43 54.92 C-70.26 54.45 -71.09 53.98 -71.95 53.5 C-72.68 53.09 -73.42 52.67 -74.18 52.25 C-76 51 -76 51 -78 48 C-78.44 44.62 -78.44 44.62 -78 41 C-74.85 37.36 -71.63 34.97 -67.41 32.69 C-66.33 32.09 -65.25 31.5 -64.13 30.89 C-62.97 30.26 -61.82 29.64 -60.62 29 C-59.42 28.34 -58.21 27.68 -57 27.02 C-55.15 26 -53.3 24.99 -51.45 23.98 C-45.49 20.73 -39.59 17.41 -33.69 14.06 C-32.75 13.53 -31.81 13 -30.84 12.45 C-26.74 10.13 -22.65 7.8 -18.57 5.45 C-17.91 5.07 -17.26 4.69 -16.58 4.31 C-14.9 3.34 -13.22 2.36 -11.55 1.39 C-7.24 -0.96 -4.73 -1.26 0 0 Z "
        fill="#1EE2CF" transform="translate(162,153)" />
    <path
        d="M0 0 C2.38 1.5 2.38 1.5 4 4 C4.72 10.14 3.6 16.01 2.17 21.96 C1.87 23.23 1.87 23.23 1.58 24.53 C0.93 27.31 0.27 30.09 -0.38 32.87 C-0.84 34.84 -1.3 36.8 -1.75 38.77 C-2.95 43.94 -4.17 49.11 -5.39 54.29 C-6.6 59.46 -7.8 64.63 -9.01 69.81 C-10.4 75.8 -11.8 81.79 -13.21 87.78 C-15.15 96.02 -17.08 104.26 -18.88 112.53 C-19.15 113.75 -19.42 114.97 -19.69 116.23 C-20.16 118.38 -20.62 120.53 -21.07 122.69 C-22.17 127.7 -23.16 131.33 -27 135 C-30.09 135.92 -32.87 135.71 -36 135 C-38.56 132.94 -38.56 132.94 -40 130 C-40.44 124.02 -39.23 118.69 -37.86 112.91 C-37.63 111.92 -37.41 110.93 -37.17 109.91 C-36.42 106.65 -35.65 103.39 -34.89 100.13 C-34.36 97.85 -33.83 95.56 -33.31 93.28 C-31.91 87.26 -30.51 81.25 -29.11 75.24 C-27.97 70.37 -26.84 65.5 -25.72 60.63 C-24.36 54.78 -23 48.92 -21.64 43.07 C-21.39 41.97 -21.13 40.87 -20.87 39.74 C-19.46 33.7 -18.05 27.67 -16.62 21.65 C-16.03 19.12 -15.45 16.59 -14.87 14.06 C-14.52 12.6 -14.18 11.14 -13.83 9.68 C-13.55 8.45 -13.26 7.22 -12.97 5.95 C-12.01 3.05 -11.44 1.77 -9 0 C-5.42 -1.19 -3.63 -0.96 0 0 Z "
        fill="#1EE2CF" transform="translate(217,130)" />
</svg>