<?xml version="1.0" encoding="UTF-8"?>
<!-- Generator: visioncortex VTracer 0.6.4 -->
<svg version="1.1" xmlns="http://www.w3.org/2000/svg" width="512" height="512">
<path d="M0 0 C1.93 -0 3.86 -0.01 5.79 -0.02 C11.09 -0.03 16.39 -0.03 21.68 -0.02 C27.4 -0.01 33.11 -0.03 38.83 -0.04 C50.02 -0.05 61.22 -0.06 72.41 -0.05 C81.51 -0.05 90.61 -0.05 99.7 -0.05 C101 -0.05 102.29 -0.05 103.63 -0.05 C106.26 -0.06 108.89 -0.06 111.52 -0.06 C129.18 -0.07 146.84 -0.07 164.5 -0.07 C165.53 -0.07 165.53 -0.07 166.59 -0.07 C172.2 -0.06 177.8 -0.06 183.41 -0.06 C205.27 -0.05 227.14 -0.06 249.01 -0.08 C273.58 -0.1 298.16 -0.12 322.74 -0.11 C335.75 -0.11 348.75 -0.11 361.76 -0.13 C372.84 -0.14 383.91 -0.14 394.99 -0.12 C400.64 -0.12 406.29 -0.11 411.94 -0.13 C417.11 -0.14 422.28 -0.14 427.46 -0.12 C429.33 -0.12 431.2 -0.12 433.07 -0.13 C444.81 -0.19 455.69 0.04 464.7 8.59 C471.35 16.44 471.94 24.53 471.85 34.47 C471.86 35.88 471.87 37.28 471.88 38.69 C471.9 42.54 471.89 46.38 471.87 50.23 C471.86 54.39 471.88 58.54 471.89 62.7 C471.91 70.84 471.91 78.97 471.89 87.1 C471.88 93.72 471.88 100.33 471.89 106.94 C471.89 108.35 471.89 108.35 471.89 109.8 C471.89 111.71 471.89 113.62 471.89 115.54 C471.91 133.48 471.89 151.41 471.87 169.35 C471.84 184.73 471.85 200.11 471.87 215.49 C471.9 233.37 471.91 251.24 471.89 269.11 C471.89 271.02 471.89 272.93 471.89 274.83 C471.89 276.24 471.89 276.24 471.88 277.68 C471.88 284.28 471.89 290.88 471.9 297.48 C471.91 305.53 471.91 313.58 471.88 321.63 C471.87 325.74 471.86 329.84 471.88 333.95 C471.9 337.71 471.89 341.47 471.86 345.23 C471.85 347.23 471.87 349.22 471.89 351.22 C471.79 359.77 470.43 366.86 464.44 373.29 C457.6 379.6 450.65 381.52 441.5 381.51 C440.84 381.51 440.18 381.51 439.5 381.51 C437.29 381.51 435.08 381.51 432.87 381.5 C431.28 381.5 429.7 381.5 428.11 381.5 C423.81 381.5 419.5 381.5 415.2 381.49 C410.7 381.48 406.2 381.48 401.7 381.48 C393.19 381.48 384.67 381.47 376.15 381.46 C366.45 381.45 356.76 381.44 347.06 381.44 C327.11 381.43 307.16 381.41 287.22 381.39 C287.22 399.87 287.22 418.35 287.22 437.39 C290.19 438.38 293.16 439.37 296.22 440.39 C299.91 441.93 303.49 443.66 307.09 445.39 C308.03 445.83 308.96 446.26 309.93 446.72 C310.83 447.14 311.72 447.57 312.65 448.01 C313.45 448.4 314.26 448.78 315.09 449.18 C317.32 450.45 318.73 451.29 320.22 453.39 C320.87 458.02 320.68 462.71 320.66 467.39 C320.68 468.68 320.7 469.98 320.72 471.32 C320.72 472.56 320.71 473.8 320.71 475.08 C320.72 476.21 320.72 477.35 320.72 478.52 C320.22 481.39 320.22 481.39 318.69 483.04 C315.21 484.93 311.96 484.8 308.1 484.77 C306.86 484.78 306.86 484.78 305.59 484.78 C302.82 484.79 300.05 484.79 297.28 484.78 C295.3 484.78 293.32 484.79 291.33 484.79 C285.94 484.81 280.55 484.8 275.15 484.79 C269.52 484.78 263.88 484.79 258.24 484.79 C248.77 484.8 239.3 484.79 229.83 484.78 C218.88 484.76 207.92 484.77 196.97 484.78 C187.57 484.8 178.17 484.8 168.78 484.79 C163.16 484.79 157.54 484.79 151.93 484.8 C146.65 484.81 141.37 484.8 136.09 484.78 C134.15 484.78 132.21 484.78 130.27 484.79 C127.63 484.79 124.98 484.78 122.34 484.77 C121.57 484.78 120.8 484.78 120 484.79 C116.84 484.75 114.58 484.58 111.77 483.05 C107.93 478.94 108.99 472.77 108.97 467.51 C108.94 466.02 108.94 466.02 108.91 464.5 C108.85 454.93 108.85 454.93 112.22 451.39 C114.68 449.89 116.99 448.65 119.59 447.45 C120.3 447.11 121 446.77 121.73 446.43 C123.89 445.4 126.05 444.39 128.22 443.39 C129.51 442.77 130.8 442.16 132.09 441.54 C140.89 437.39 140.89 437.39 143.22 437.39 C143.22 418.91 143.22 400.43 143.22 381.39 C138.36 381.41 133.51 381.43 128.51 381.45 C112.46 381.52 96.41 381.56 80.37 381.59 C70.64 381.62 60.91 381.64 51.19 381.69 C42.7 381.73 34.22 381.76 25.74 381.76 C21.25 381.77 16.77 381.78 12.28 381.81 C8.05 381.84 3.82 381.85 -0.41 381.84 C-1.96 381.84 -3.51 381.85 -5.06 381.86 C-15.87 381.97 -26 381.19 -34.14 373.26 C-40.96 365.5 -41.5 357.25 -41.42 347.31 C-41.42 345.9 -41.43 344.49 -41.44 343.08 C-41.46 339.24 -41.45 335.39 -41.44 331.54 C-41.42 327.39 -41.44 323.23 -41.46 319.07 C-41.48 310.94 -41.47 302.81 -41.46 294.67 C-41.45 288.06 -41.45 281.45 -41.45 274.83 C-41.45 273.89 -41.45 272.95 -41.45 271.98 C-41.46 270.07 -41.46 268.15 -41.46 266.24 C-41.47 248.3 -41.46 230.36 -41.43 212.43 C-41.41 197.05 -41.41 181.66 -41.43 166.28 C-41.46 148.41 -41.47 130.54 -41.46 112.66 C-41.45 110.76 -41.45 108.85 -41.45 106.94 C-41.45 106 -41.45 105.06 -41.45 104.1 C-41.44 97.5 -41.45 90.89 -41.46 84.29 C-41.48 76.24 -41.47 68.19 -41.45 60.14 C-41.43 56.04 -41.43 51.93 -41.45 47.83 C-41.46 44.07 -41.45 40.31 -41.43 36.55 C-41.42 34.55 -41.43 32.55 -41.45 30.56 C-41.34 20.66 -39.16 13.49 -32.03 6.45 C-23.18 -1.38 -11 -0.04 0 0 Z M-25.78 20.39 C-27.58 23.52 -28.03 25.65 -28.03 29.27 C-28.03 30.26 -28.04 31.24 -28.04 32.26 C-28.03 33.34 -28.03 34.42 -28.02 35.54 C-28.02 36.68 -28.03 37.83 -28.03 39.02 C-28.03 42.21 -28.02 45.4 -28.01 48.6 C-28.01 52.09 -28.01 55.58 -28.01 59.08 C-28.01 65.86 -28 72.65 -27.99 79.43 C-27.97 87.28 -27.97 95.13 -27.97 102.97 C-27.96 123.7 -27.93 144.42 -27.91 165.14 C-27.87 211.42 -27.82 257.7 -27.78 305.39 C132.6 305.39 292.98 305.39 458.22 305.39 C458.3 259.15 458.38 212.91 458.47 165.26 C458.5 150.65 458.54 136.03 458.58 120.97 C458.59 107.9 458.59 107.9 458.6 94.83 C458.6 89 458.62 83.17 458.64 77.33 C458.67 70.61 458.68 63.88 458.67 57.15 C458.67 53.71 458.67 50.27 458.69 46.83 C458.71 43.14 458.71 39.46 458.7 35.78 C458.71 34.7 458.72 33.63 458.73 32.52 C458.68 25.24 457.35 21.49 452.07 16.26 C448.45 13.88 445.5 13.83 441.31 13.88 C440.52 13.87 439.73 13.87 438.91 13.86 C436.24 13.84 433.57 13.85 430.9 13.87 C428.97 13.86 427.04 13.85 425.11 13.84 C419.8 13.82 414.49 13.83 409.17 13.84 C403.45 13.84 397.72 13.82 392 13.81 C380.78 13.78 369.56 13.78 358.34 13.78 C349.23 13.79 340.11 13.78 330.99 13.77 C329.7 13.77 328.4 13.77 327.07 13.77 C324.43 13.77 321.8 13.77 319.17 13.76 C301.48 13.75 283.8 13.74 266.11 13.75 C265.07 13.75 265.07 13.75 264.01 13.75 C260.51 13.75 257 13.75 253.5 13.75 C252.45 13.75 252.45 13.75 251.39 13.76 C249.98 13.76 248.57 13.76 247.16 13.76 C225.25 13.77 203.34 13.75 181.42 13.72 C156.81 13.67 132.19 13.65 107.58 13.66 C94.55 13.66 81.51 13.66 68.48 13.63 C57.38 13.61 46.28 13.6 35.19 13.63 C29.52 13.64 23.86 13.64 18.2 13.62 C13.01 13.6 7.83 13.6 2.65 13.63 C0.77 13.64 -1.1 13.63 -2.98 13.62 C-5.53 13.6 -8.08 13.61 -10.63 13.64 C-11.36 13.62 -12.09 13.61 -12.84 13.59 C-18.7 13.72 -22.09 16.08 -25.78 20.39 Z M203.84 329.89 C200.33 335.29 199.36 340 200.22 346.39 C202.31 353.04 206.14 356.92 212.05 360.49 C217.12 362.58 223.56 362.43 228.64 360.44 C233.66 357.44 237.11 353.93 239.47 348.51 C241.22 341.23 240.08 335.7 236.22 329.39 C232.75 325.56 228.64 322.72 223.48 322.02 C214.73 321.82 209.86 323.55 203.84 329.89 Z M156.22 381.39 C156.22 399.87 156.22 418.35 156.22 437.39 C195.16 437.39 234.1 437.39 274.22 437.39 C274.22 418.91 274.22 400.43 274.22 381.39 C235.28 381.39 196.34 381.39 156.22 381.39 Z " fill="#FF885A" transform="translate(40.78208923339844,13.612319946289063)"/>
<path d="M0 0 C1.31 -0.01 2.63 -0.01 3.98 -0.02 C5.45 -0.02 6.91 -0.01 8.38 -0.01 C9.93 -0.01 11.48 -0.02 13.03 -0.02 C17.3 -0.04 21.58 -0.04 25.85 -0.03 C30.45 -0.03 35.05 -0.04 39.66 -0.05 C48.68 -0.07 57.7 -0.08 66.73 -0.08 C74.06 -0.08 81.39 -0.08 88.72 -0.09 C109.49 -0.11 130.26 -0.12 151.03 -0.11 C152.15 -0.11 153.27 -0.11 154.42 -0.11 C156.1 -0.11 156.1 -0.11 157.82 -0.11 C176.01 -0.11 194.2 -0.13 212.38 -0.16 C231.04 -0.19 249.7 -0.2 268.36 -0.2 C278.84 -0.2 289.32 -0.21 299.81 -0.23 C308.73 -0.24 317.65 -0.25 326.57 -0.24 C331.13 -0.23 335.68 -0.23 340.24 -0.25 C344.41 -0.26 348.57 -0.26 352.74 -0.24 C354.25 -0.24 355.76 -0.24 357.27 -0.25 C359.32 -0.27 361.37 -0.25 363.41 -0.24 C364.55 -0.24 365.69 -0.24 366.87 -0.24 C370.44 0.37 371.66 1.35 373.77 4.26 C373.56 10.47 373.56 10.47 370.77 13.26 C368.1 13.51 368.1 13.51 364.63 13.51 C363.31 13.52 361.99 13.53 360.63 13.53 C359.15 13.53 357.68 13.53 356.2 13.52 C354.64 13.53 353.08 13.53 351.52 13.54 C347.22 13.55 342.92 13.55 338.62 13.55 C333.99 13.55 329.36 13.56 324.73 13.57 C315.65 13.58 306.58 13.59 297.5 13.59 C290.12 13.59 282.75 13.6 275.37 13.6 C254.48 13.62 233.59 13.63 212.7 13.63 C211.57 13.63 210.45 13.63 209.28 13.63 C208.16 13.63 207.03 13.63 205.86 13.63 C187.57 13.63 169.27 13.65 150.97 13.67 C132.2 13.7 113.43 13.72 94.67 13.71 C84.12 13.71 73.58 13.72 63.03 13.74 C54.05 13.76 45.08 13.76 36.1 13.75 C31.52 13.74 26.93 13.74 22.35 13.76 C18.16 13.78 13.97 13.77 9.77 13.76 C8.25 13.75 6.73 13.76 5.21 13.77 C3.15 13.78 1.1 13.77 -0.96 13.76 C-2.11 13.76 -3.26 13.76 -4.44 13.76 C-7.23 13.26 -7.23 13.26 -9.13 11.45 C-10.8 8.12 -10.14 5.78 -9.23 2.26 C-5.68 -0.11 -4.21 0.01 0 0 Z " fill="#FF885A" transform="translate(74.23010158538818,282.74273109436035)"/>
<path d="M0 0 C1.32 -0.01 2.64 -0.01 4 -0.02 C5.47 -0.02 6.95 -0.01 8.43 -0.01 C9.99 -0.01 11.55 -0.02 13.11 -0.02 C17.41 -0.04 21.7 -0.04 26 -0.03 C30.63 -0.03 35.27 -0.04 39.9 -0.05 C48.97 -0.07 58.05 -0.08 67.13 -0.08 C74.51 -0.08 81.88 -0.08 89.26 -0.09 C110.15 -0.11 131.04 -0.12 151.93 -0.11 C153.06 -0.11 154.18 -0.11 155.34 -0.11 C156.47 -0.11 157.6 -0.11 158.76 -0.11 C177.06 -0.11 195.36 -0.13 213.66 -0.16 C232.43 -0.19 251.2 -0.2 269.96 -0.2 C280.51 -0.2 291.05 -0.21 301.6 -0.23 C310.58 -0.24 319.55 -0.25 328.53 -0.24 C333.11 -0.23 337.7 -0.23 342.28 -0.25 C346.47 -0.26 350.66 -0.26 354.85 -0.24 C356.38 -0.24 357.9 -0.24 359.42 -0.25 C361.48 -0.27 363.53 -0.26 365.59 -0.24 C366.74 -0.24 367.88 -0.24 369.06 -0.24 C371.86 0.26 371.86 0.26 373.76 2.06 C375.43 5.39 374.77 7.73 373.86 11.26 C370.31 13.62 368.83 13.51 364.63 13.51 C362.66 13.52 362.66 13.52 360.65 13.53 C359.18 13.53 357.72 13.53 356.25 13.52 C354.7 13.53 353.15 13.53 351.6 13.54 C347.33 13.55 343.05 13.55 338.78 13.55 C334.18 13.55 329.57 13.56 324.97 13.57 C315.95 13.58 306.93 13.59 297.9 13.59 C290.57 13.59 283.24 13.6 275.91 13.6 C255.14 13.62 234.37 13.63 213.6 13.63 C212.48 13.63 211.36 13.63 210.21 13.63 C209.09 13.63 207.96 13.63 206.81 13.63 C188.62 13.63 170.43 13.65 152.25 13.67 C133.59 13.7 114.93 13.72 96.27 13.71 C85.79 13.71 75.31 13.72 64.82 13.74 C55.9 13.76 46.98 13.76 38.05 13.75 C33.5 13.74 28.94 13.74 24.39 13.76 C20.22 13.78 16.06 13.77 11.89 13.76 C10.38 13.75 8.87 13.76 7.36 13.77 C5.31 13.78 3.26 13.77 1.21 13.76 C0.08 13.76 -1.06 13.76 -2.24 13.76 C-5.81 13.14 -7.03 12.17 -9.14 9.26 C-8.88 1.74 -7.33 0.01 0 0 Z " fill="#FF885A" transform="translate(73.14108180999756,51.74273109436035)"/>
<path d="M0 0 C2.4 3.61 2.25 5.24 2.26 9.53 C2.26 10.19 2.26 10.85 2.27 11.53 C2.27 12.96 2.28 14.39 2.27 15.82 C2.27 18.09 2.29 20.36 2.3 22.63 C2.35 29.09 2.37 35.55 2.38 42.01 C2.39 45.96 2.41 49.91 2.45 53.86 C2.46 55.36 2.46 56.86 2.45 58.36 C2.37 71.61 2.37 71.61 8.71 82.86 C14 87.86 19.5 89.47 26.69 89.33 C29.94 88.86 32.44 87.6 35.27 85.97 C37 85 37 85 40 84 C41.1 82.3 41.1 82.3 42 80 C42.51 78.94 43.02 77.89 43.54 76.8 C45.12 73.09 45.37 69.9 45.35 65.84 C45.36 65.17 45.36 64.49 45.36 63.79 C45.36 62.33 45.36 60.88 45.35 59.42 C45.34 57.11 45.34 54.8 45.35 52.5 C45.39 45.94 45.38 39.38 45.36 32.82 C45.35 28.8 45.36 24.78 45.39 20.76 C45.4 19.23 45.39 17.7 45.38 16.17 C45.36 14.04 45.37 11.9 45.39 9.77 C45.38 7.95 45.38 7.95 45.38 6.09 C46 3 46 3 48.34 0.58 C51 -1 51 -1 54.12 -1.06 C57.8 0.3 58.34 1.51 60 5 C60.37 7.96 60.37 7.96 60.37 11.27 C60.38 13.14 60.38 13.14 60.39 15.04 C60.38 16.4 60.37 17.75 60.36 19.1 C60.36 20.5 60.36 21.9 60.36 23.31 C60.36 26.24 60.35 29.18 60.34 32.12 C60.31 35.85 60.31 39.59 60.32 43.32 C60.32 46.22 60.32 49.11 60.31 52.01 C60.3 53.39 60.3 54.76 60.3 56.14 C60.31 70.03 59.49 82.63 49.84 93.33 C41.16 101.22 31.62 103.68 20.12 103.38 C11.7 102.84 3.8 99.07 -2 93 C-10.5 82.07 -11.47 72.5 -11.43 59.14 C-11.44 57.5 -11.44 55.86 -11.45 54.22 C-11.46 50.79 -11.46 47.37 -11.45 43.95 C-11.43 39.56 -11.45 35.17 -11.48 30.78 C-11.5 27.4 -11.5 24.02 -11.5 20.63 C-11.5 19.02 -11.5 17.4 -11.51 15.78 C-11.53 13.52 -11.52 11.26 -11.5 9.01 C-11.5 7.72 -11.5 6.44 -11.5 5.12 C-11 2 -11 2 -9.2 0.05 C-5.86 -1.55 -3.5 -0.91 0 0 Z " fill="#FF885A" transform="translate(346,122)"/>
<path d="M0 0 C3 0.62 3 0.62 5.16 2.73 C7.43 6.29 7.49 8.38 7.48 12.58 C7.49 13.26 7.49 13.94 7.49 14.65 C7.5 16.12 7.5 17.59 7.49 19.06 C7.47 21.39 7.48 23.73 7.49 26.06 C7.52 31.86 7.51 37.66 7.49 43.45 C7.49 48.35 7.49 53.26 7.52 58.16 C7.53 60.44 7.51 62.73 7.5 65.02 C7.5 73.14 7.56 79.9 13.41 86.13 C19.11 91.26 24.56 92.14 31.99 92 C37.93 91.26 41.9 88.04 45.88 83.75 C49.56 78.33 50.25 72.99 50.27 66.54 C50.28 65.54 50.28 65.54 50.29 64.52 C50.3 63.08 50.3 61.64 50.3 60.2 C50.31 57.92 50.33 55.64 50.35 53.36 C50.4 46.89 50.43 40.42 50.46 33.95 C50.47 29.98 50.5 26.01 50.54 22.04 C50.55 20.53 50.56 19.02 50.56 17.51 C50.56 15.4 50.58 13.29 50.6 11.19 C50.61 9.39 50.61 9.39 50.61 7.56 C51 4.62 51 4.62 52.34 2.74 C54.95 0.99 56.94 1.25 60 1.62 C62.16 2.72 62.16 2.72 64 4.62 C64.51 7.65 64.51 7.65 64.52 11.4 C64.52 12.09 64.53 12.77 64.54 13.48 C64.56 15.74 64.54 18.01 64.53 20.28 C64.53 21.86 64.54 23.45 64.54 25.03 C64.55 28.36 64.54 31.68 64.52 35.01 C64.5 39.24 64.51 43.48 64.54 47.71 C64.55 50.99 64.55 54.27 64.54 57.54 C64.53 59.1 64.54 60.66 64.55 62.22 C64.61 75.49 62.9 85.61 53.37 95.46 C44.82 103.27 36.2 105.12 24.73 104.94 C15.33 104.15 7.85 99.53 1.31 92.92 C-7.1 82.93 -7.61 70.12 -7.53 57.66 C-7.53 56.16 -7.54 54.67 -7.54 53.17 C-7.55 50.07 -7.54 46.97 -7.52 43.87 C-7.5 39.9 -7.51 35.93 -7.54 31.96 C-7.55 28.89 -7.55 25.81 -7.54 22.74 C-7.53 21.28 -7.54 19.81 -7.55 18.35 C-7.56 16.31 -7.54 14.27 -7.52 12.23 C-7.51 11.07 -7.51 9.91 -7.51 8.72 C-6.72 3.94 -4.84 1.01 0 0 Z " fill="#FF885A" transform="translate(76,120.375)"/>
<path d="M0 0 C3.8 3.02 5.66 6.86 7.67 11.17 C8 11.85 8.33 12.54 8.66 13.24 C9.7 15.41 10.73 17.58 11.75 19.75 C12.45 21.23 13.16 22.7 13.86 24.18 C15.58 27.78 17.29 31.39 19 35 C21.68 31.69 23.58 28.12 25.47 24.34 C26.13 23.04 26.79 21.74 27.45 20.44 C28.48 18.4 29.51 16.36 30.53 14.32 C31.52 12.34 32.53 10.37 33.53 8.4 C33.83 7.79 34.14 7.18 34.45 6.55 C36.06 3.41 36.99 2.01 40 0 C42.94 -0.44 42.94 -0.44 46 0 C48.44 2.12 48.44 2.12 50 5 C49.74 10.66 47.13 15.03 44.49 19.91 C43.58 21.64 42.67 23.37 41.75 25.1 C40.31 27.81 38.87 30.51 37.41 33.21 C36.01 35.83 34.62 38.46 33.24 41.09 C32.8 41.9 32.36 42.7 31.91 43.53 C30.09 47.01 28.98 49.23 29.08 53.21 C30.04 56.11 31.13 58.78 32.48 61.53 C32.98 62.56 33.48 63.59 34 64.66 C34.54 65.74 35.07 66.82 35.62 67.94 C36.71 70.18 37.8 72.43 38.89 74.67 C40.71 78.38 42.54 82.08 44.39 85.77 C45.03 87.07 45.67 88.38 46.31 89.69 C46.87 90.78 47.42 91.88 47.99 93.01 C49.17 96.51 49.04 98.48 48 102 C45.81 104 45.81 104 43 105 C39.17 104.45 37.54 103.7 35.16 100.62 C32.11 95.82 29.84 90.59 27.44 85.44 C26.48 83.39 25.52 81.35 24.56 79.31 C24.14 78.41 23.72 77.51 23.29 76.58 C21.98 73.97 20.54 71.49 19 69 C18.53 69.95 18.06 70.91 17.58 71.89 C15.83 75.43 14.08 78.97 12.33 82.51 C11.57 84.04 10.82 85.57 10.06 87.1 C8.98 89.31 7.89 91.51 6.79 93.71 C6.46 94.39 6.12 95.08 5.78 95.78 C2.61 102.12 2.61 102.12 0 104 C-3.41 104.37 -5.88 104.61 -8.94 102.94 C-10.64 99.83 -10.3 97.52 -10 94 C-8.81 90.78 -7.22 87.8 -5.59 84.78 C-4.67 83 -3.76 81.23 -2.84 79.46 C-1.39 76.69 0.07 73.92 1.53 71.16 C2.94 68.48 4.33 65.78 5.72 63.09 C6.17 62.27 6.61 61.45 7.06 60.6 C8.81 57.2 10 54.81 10.02 50.94 C8.67 47.04 6.92 43.47 5 39.82 C4.19 38.24 3.37 36.65 2.56 35.07 C1.28 32.59 -0 30.12 -1.29 27.65 C-2.54 25.26 -3.77 22.85 -5 20.45 C-5.39 19.72 -5.77 18.99 -6.17 18.24 C-8.62 13.42 -9.72 9.42 -10 4 C-8.04 -0.9 -4.85 -0.68 0 0 Z " fill="#FF885A" transform="translate(174,121)"/>
<path d="M0 0 C2 1.56 2 1.56 3 4 C2.56 8.67 1.55 12.75 -0.09 17.13 C-0.53 18.31 -0.96 19.49 -1.41 20.7 C-1.9 21.99 -2.39 23.28 -2.87 24.57 C-3.38 25.94 -3.89 27.31 -4.4 28.68 C-5.78 32.39 -7.18 36.1 -8.57 39.81 C-10.03 43.7 -11.48 47.59 -12.93 51.49 C-16.3 60.5 -19.68 69.51 -23.07 78.52 C-24.3 81.8 -25.53 85.09 -26.77 88.38 C-30.31 97.82 -33.86 107.26 -37.41 116.7 C-37.97 118.19 -38.53 119.68 -39.09 121.17 C-40.69 125.42 -42.29 129.68 -43.9 133.93 C-44.61 135.81 -45.31 137.69 -46.02 139.57 C-46.89 141.87 -47.77 144.17 -48.65 146.47 C-49.62 149.01 -50.58 151.56 -51.53 154.1 C-52.05 155.47 -52.56 156.83 -53.08 158.19 C-53.55 159.42 -54.01 160.65 -54.49 161.92 C-56.02 165.04 -56.97 166.38 -60 168 C-63.44 167.93 -65.28 167.6 -67.94 165.38 C-70.16 160.4 -67.76 154.82 -65.91 149.97 C-65.47 148.81 -65.04 147.64 -64.59 146.45 C-64.1 145.18 -63.61 143.92 -63.13 142.65 C-62.62 141.3 -62.11 139.95 -61.6 138.6 C-60.22 134.95 -58.82 131.3 -57.43 127.66 C-55.97 123.82 -54.52 119.99 -53.07 116.16 C-51.25 111.36 -49.43 106.57 -47.61 101.77 C-43.28 90.39 -38.98 79 -34.7 67.61 C-34.11 66.03 -33.51 64.46 -32.92 62.88 C-30.64 56.82 -28.36 50.75 -26.08 44.69 C-24.76 41.16 -23.43 37.63 -22.1 34.11 C-21.39 32.22 -20.69 30.34 -19.98 28.46 C-18.66 24.97 -17.34 21.48 -16 18 C-15.75 17.33 -15.49 16.67 -15.23 15.98 C-14.45 13.92 -13.65 11.86 -12.85 9.8 C-12.14 7.96 -12.14 7.96 -11.42 6.08 C-8.71 0.21 -6.54 -0.82 0 0 Z " fill="#FF885A" transform="translate(318,90)"/>
<path d="M0 0 C2.88 1.06 2.88 1.06 4.53 3.07 C6.36 7.13 6.29 10.59 6.25 15 C6.25 15.89 6.25 16.78 6.26 17.69 C6.27 20.63 6.25 23.56 6.24 26.5 C6.24 28.54 6.24 30.59 6.24 32.63 C6.24 36.91 6.23 41.19 6.21 45.47 C6.19 50.96 6.19 56.44 6.19 61.92 C6.2 66.14 6.19 70.36 6.18 74.58 C6.18 76.6 6.18 78.63 6.18 80.65 C6.18 83.48 6.17 86.3 6.15 89.13 C6.15 90.38 6.15 90.38 6.16 91.66 C6.12 95.86 5.96 99.29 3.88 103.06 C0.79 104.6 -1.73 104.36 -5.12 104.06 C-7.18 102.31 -8.01 100.85 -8.4 98.17 C-8.53 95.73 -8.55 93.31 -8.54 90.86 C-8.55 89.93 -8.56 89 -8.57 88.04 C-8.59 84.96 -8.59 81.89 -8.59 78.81 C-8.6 76.68 -8.61 74.54 -8.62 72.4 C-8.63 67.92 -8.63 63.44 -8.63 58.96 C-8.62 53.22 -8.65 47.48 -8.69 41.73 C-8.72 37.32 -8.72 32.91 -8.72 28.5 C-8.72 26.38 -8.73 24.26 -8.75 22.14 C-8.77 19.18 -8.76 16.22 -8.74 13.27 C-8.75 12.39 -8.77 11.51 -8.78 10.61 C-8.7 4.69 -8.7 4.69 -5.78 1.49 C-3.12 0.06 -3.12 0.06 0 0 Z " fill="#FF885A" transform="translate(438.125,120.9375)"/>
<path d="M0 0 C3.45 2.3 4.98 4.14 6.81 7.88 C7.49 11.75 7.2 14.98 5.62 18.62 C0.86 24.54 0.86 24.54 -3.52 25.26 C-9.21 25.51 -12.82 24.81 -17.19 20.88 C-19.91 16.45 -19.98 11.93 -19.19 6.88 C-17.55 3.67 -15.21 1.63 -12.31 -0.5 C-7.92 -1.79 -4.28 -1.51 0 0 Z " fill="#FF885A" transform="translate(267.1875,343.125)"/>
</svg>
