<?xml version="1.0" encoding="UTF-8"?>
<!-- Generator: visioncortex VTracer 0.6.4 -->
<svg version="1.1" xmlns="http://www.w3.org/2000/svg" width="512" height="512">
<path d="M0 0 C1.21 -0.01 1.21 -0.01 2.44 -0.03 C5.09 -0.05 7.74 -0.04 10.4 -0.03 C12.24 -0.04 14.09 -0.04 15.93 -0.05 C19.8 -0.06 23.67 -0.06 27.53 -0.04 C32.49 -0.03 37.45 -0.05 42.4 -0.08 C46.21 -0.11 50.02 -0.1 53.84 -0.1 C55.66 -0.1 57.49 -0.1 59.32 -0.12 C61.87 -0.13 64.43 -0.12 66.98 -0.1 C67.74 -0.11 68.49 -0.12 69.27 -0.13 C73.07 -0.06 74.67 0.23 77.46 2.89 C79.35 6.15 79.61 7.82 78.99 11.53 C77.67 13.18 76.35 14.83 74.99 16.53 C51.56 16.53 28.13 16.53 3.99 16.53 C3.99 69.33 3.99 122.13 3.99 176.53 C72.63 176.53 141.27 176.53 211.99 176.53 C211.99 149.14 211.99 121.75 211.99 93.53 C216.99 89.53 216.99 89.53 219.99 89.03 C223.84 89.68 225.3 90.7 227.99 93.53 C228.47 96.42 228.63 98.72 228.56 101.61 C228.56 102.42 228.56 103.23 228.56 104.06 C228.56 106.74 228.52 109.41 228.48 112.08 C228.47 113.94 228.46 115.79 228.46 117.65 C228.44 122.53 228.39 127.4 228.33 132.28 C228.28 137.26 228.26 142.24 228.23 147.22 C228.18 156.99 228.1 166.76 227.99 176.53 C228.58 176.51 229.16 176.49 229.76 176.47 C232.42 176.39 235.08 176.33 237.74 176.28 C238.66 176.25 239.58 176.22 240.53 176.18 C247.35 176.08 247.35 176.08 250.6 178.37 C252.49 181.31 252.51 183.39 252.52 186.88 C252.53 188.13 252.53 189.37 252.54 190.66 C252.52 191.96 252.51 193.26 252.49 194.6 C252.51 195.87 252.52 197.14 252.54 198.45 C252.49 210.84 249.64 220.47 240.99 229.53 C228.64 241.32 215.28 241.12 199.17 241.05 C196.96 241.06 194.75 241.06 192.54 241.07 C186.56 241.09 180.58 241.08 174.6 241.07 C168.33 241.06 162.06 241.07 155.79 241.08 C144.59 241.08 133.39 241.07 122.19 241.05 C112.05 241.03 101.91 241.04 91.77 241.05 C79.98 241.08 68.18 241.08 56.38 241.07 C50.14 241.07 43.91 241.07 37.67 241.08 C31.81 241.09 25.94 241.08 20.08 241.06 C17.93 241.05 15.79 241.06 13.64 241.06 C-1.45 241.12 -13.54 240.48 -25.01 229.53 C-34.81 219.27 -36.68 208.43 -36.51 194.6 C-36.53 193.3 -36.54 192 -36.56 190.66 C-36.55 189.41 -36.55 188.16 -36.54 186.88 C-36.54 185.76 -36.53 184.63 -36.53 183.48 C-35.86 179.67 -35.18 178.76 -32.01 176.53 C-28.58 176.04 -25.21 176.16 -21.76 176.28 C-20.82 176.3 -19.89 176.32 -18.92 176.34 C-16.62 176.39 -14.31 176.45 -12.01 176.53 C-12.01 175.65 -12.02 174.77 -12.02 173.86 C-12.11 152.39 -12.18 130.93 -12.22 109.46 C-12.24 99.08 -12.27 88.7 -12.31 78.32 C-12.35 69.28 -12.38 60.23 -12.39 51.18 C-12.39 46.39 -12.4 41.6 -12.43 36.81 C-12.46 32.3 -12.47 27.79 -12.46 23.29 C-12.46 21.63 -12.47 19.97 -12.49 18.32 C-12.51 16.06 -12.5 13.8 -12.49 11.54 C-12.49 10.28 -12.5 9.01 -12.5 7.71 C-12.01 4.53 -12.01 4.53 -10.21 2.13 C-6.98 -0.22 -3.84 -0.03 0 0 Z M-20.01 192.53 C-20.01 202.12 -19.46 210.04 -13.01 217.53 C-3.49 225.72 8.2 224.79 19.99 224.53 C20.03 223.7 20.06 222.87 20.1 222.01 C20.17 220.93 20.23 219.84 20.3 218.72 C20.39 217.1 20.39 217.1 20.48 215.45 C20.99 212.53 20.99 212.53 22.28 210.67 C24.34 209.3 25.53 209.13 27.99 209.16 C28.67 209.15 29.35 209.14 30.05 209.14 C31.99 209.53 31.99 209.53 34.99 212.53 C35.49 218.47 35.49 218.47 35.99 224.53 C83.51 224.53 131.03 224.53 179.99 224.53 C180.32 220.57 180.65 216.61 180.99 212.53 C183.99 209.53 183.99 209.53 185.93 209.14 C186.61 209.14 187.29 209.15 187.99 209.16 C188.67 209.15 189.35 209.14 190.05 209.14 C192.66 209.67 193.47 210.35 194.99 212.53 C195.5 215.45 195.5 215.45 195.68 218.72 C195.74 219.81 195.81 220.89 195.88 222.01 C195.93 223.26 195.93 223.26 195.99 224.53 C212.48 225.35 212.48 225.35 226.99 218.53 C234.92 210.55 235.99 203.77 235.99 192.53 C151.51 192.53 67.03 192.53 -20.01 192.53 Z " fill="#0D88FF" transform="translate(52.009765625,255.466552734375)"/>
<path d="M0 0 C6.24 4.26 11.67 13.58 13.12 20.94 C12.98 24.51 12.21 26.22 10 29 C6.77 30.62 3.48 30.73 0 30 C-2.21 28.21 -3.37 26.39 -5 24 C-5.99 23.01 -5.99 23.01 -7 22 C-7.61 22.56 -8.21 23.11 -8.84 23.69 C-13.78 28.19 -18.81 32.52 -24.06 36.66 C-27.76 39.61 -31.41 42.61 -35.06 45.62 C-35.79 46.22 -36.51 46.82 -37.26 47.44 C-38.75 48.67 -40.25 49.91 -41.74 51.14 C-43.97 52.97 -46.19 54.8 -48.42 56.63 C-54.96 62 -61.49 67.39 -67.94 72.88 C-72.27 76.56 -76.66 80.15 -81.11 83.68 C-85.85 87.49 -90.52 91.37 -95.2 95.25 C-95.91 95.84 -96.61 96.42 -97.34 97.02 C-97.97 97.55 -98.61 98.07 -99.26 98.61 C-100.78 99.82 -102.38 100.92 -104 102 C-103.41 106.06 -102.11 108.91 -100.02 112.42 C-99.41 113.45 -98.8 114.47 -98.18 115.53 C-97.54 116.59 -96.91 117.66 -96.25 118.75 C-93.83 122.83 -91.41 126.91 -89 131 C-88.48 131.87 -87.97 132.74 -87.43 133.64 C-86.98 134.43 -86.52 135.21 -86.05 136.03 C-85.45 137.05 -85.45 137.05 -84.84 138.09 C-83.4 141.36 -83.9 143.69 -85 147 C-86.62 149.44 -86.62 149.44 -89 151 C-93.01 151.58 -95.11 151.6 -98.51 149.32 C-101.17 146.84 -102.65 144.61 -104.38 141.42 C-105.26 139.8 -105.26 139.8 -106.17 138.15 C-106.78 137.03 -107.38 135.91 -108 134.75 C-109.21 132.54 -110.41 130.32 -111.62 128.11 C-112.2 127.06 -112.77 126.02 -113.36 124.94 C-115.45 121.2 -117.68 117.6 -120 114 C-125.09 116.75 -130.16 119.52 -135.19 122.37 C-135.9 122.77 -136.61 123.18 -137.35 123.59 C-138.77 124.4 -140.19 125.21 -141.6 126.02 C-144.38 127.59 -146.97 128.99 -150 130 C-152.45 134.01 -153.68 138.33 -154 143 C-151.95 150.98 -147.24 158.27 -143.12 165.31 C-142.53 166.37 -141.93 167.43 -141.31 168.52 C-137.7 174.72 -134.57 179.71 -128 183 C-120.62 184.09 -115.73 181.85 -109.5 178.12 C-108.2 177.38 -108.2 177.38 -106.87 176.62 C-102.74 174.25 -98.66 171.81 -94.62 169.29 C-87.79 165.05 -81.22 161.49 -73.56 158.99 C-64.39 155.88 -55.31 152.54 -46.25 149.12 C-45.55 148.86 -44.85 148.59 -44.12 148.32 C-39.69 146.65 -35.27 144.97 -30.84 143.3 C-27 141.85 -23.15 140.39 -19.3 138.94 C-6.31 134.04 6.67 129.13 19.64 124.18 C21.39 123.52 23.14 122.85 24.89 122.18 C27.96 121.01 31.02 119.84 34.08 118.66 C35.4 118.15 36.72 117.65 38.04 117.15 C39.13 116.73 40.23 116.31 41.36 115.87 C44 115 44 115 47 115 C38.9 100.42 30.69 85.93 22.25 71.54 C21.73 70.64 21.2 69.74 20.66 68.82 C19.48 66.81 18.28 64.81 17.07 62.81 C16.44 61.76 15.8 60.7 15.15 59.61 C14.57 58.66 13.99 57.7 13.4 56.72 C11.51 53.05 10.63 50.4 11.69 46.38 C13.2 43.64 14.24 42.46 17 41 C20.72 40.45 22.36 40.57 25.49 42.7 C28.1 45.09 29.52 47.16 31.2 50.26 C31.76 51.29 32.33 52.32 32.91 53.37 C33.5 54.47 34.08 55.56 34.69 56.69 C35.94 58.97 37.2 61.26 38.45 63.55 C39.06 64.66 39.67 65.77 40.3 66.92 C42.44 70.8 44.67 74.63 46.94 78.44 C51.37 85.9 55.72 93.42 60.06 100.94 C60.4 101.52 60.74 102.11 61.09 102.71 C69.46 117.22 69.46 117.22 68 123 C64.68 126.01 61.59 127.79 57.4 129.33 C56.29 129.75 55.18 130.16 54.04 130.59 C52.83 131.03 51.63 131.47 50.38 131.92 C49.1 132.4 47.81 132.88 46.52 133.36 C43.78 134.38 41.03 135.4 38.28 136.41 C31.82 138.8 25.38 141.25 18.94 143.68 C15.24 145.08 11.55 146.47 7.85 147.87 C6.36 148.43 4.87 148.99 3.38 149.55 C2.63 149.83 1.89 150.11 1.13 150.4 C-1.14 151.26 -3.41 152.11 -5.68 152.97 C-15.45 156.65 -25.22 160.33 -35 164 C-36.08 164.41 -37.17 164.81 -38.28 165.23 C-41.02 166.26 -43.75 167.28 -46.49 168.3 C-47.25 168.58 -48.01 168.87 -48.79 169.16 C-53.77 171 -53.77 171 -56 171 C-55.56 171.79 -55.11 172.57 -54.65 173.38 C-53 176.32 -51.35 179.26 -49.7 182.21 C-48.99 183.48 -48.28 184.74 -47.56 186.01 C-46.53 187.84 -45.5 189.67 -44.48 191.51 C-43.55 193.16 -43.55 193.16 -42.6 194.84 C-39.06 201.82 -37.82 207.88 -39.58 215.52 C-42.25 223.46 -47.5 228.65 -54.88 232.5 C-63.32 233.85 -70.68 233.78 -78 229 C-84.45 222.97 -88.75 215.82 -92.94 208.12 C-93.51 207.09 -94.09 206.06 -94.68 205 C-98.83 197.52 -98.83 197.52 -100 194 C-100.76 194.41 -101.52 194.82 -102.31 195.24 C-112.25 200.43 -120.75 203.65 -132 201 C-135.24 199.62 -138.29 198.08 -141.37 196.38 C-144.55 194.69 -144.55 194.69 -148 194 C-150.29 194.93 -150.29 194.93 -152.5 196.38 C-158.75 200.21 -164.86 201.05 -172.08 199.57 C-178.74 197.43 -183.89 192.93 -187.94 187.31 C-190.82 181.04 -191.27 173.22 -189.28 166.61 C-186.84 161.45 -183.59 157.36 -178.46 154.67 C-175.45 152.99 -173.27 151.61 -171 149 C-170.43 145.13 -170.63 141.62 -170.88 137.72 C-171.15 129.22 -167.01 123.4 -161.48 117.31 C-156.98 113.12 -151.7 110.36 -146.31 107.44 C-145.14 106.78 -143.97 106.12 -142.79 105.46 C-140.53 104.19 -138.26 102.92 -135.98 101.66 C-125.91 96.06 -117.11 89.85 -108.47 82.27 C-106.44 80.52 -104.35 78.85 -102.25 77.19 C-92.37 69.35 -82.67 61.29 -73.06 53.12 C-68.71 49.43 -64.3 45.82 -59.83 42.27 C-53.92 37.53 -48.1 32.68 -42.26 27.86 C-40.03 26.03 -37.81 24.2 -35.58 22.37 C-28.31 16.4 -21.06 10.42 -13.93 4.29 C-9.38 0.4 -6.07 -0.97 0 0 Z M-164 165 C-165.31 165.98 -166.63 166.96 -167.94 167.94 C-168.67 168.48 -169.4 169.03 -170.15 169.59 C-171.91 170.87 -171.91 170.87 -173 172 C-173.5 175.37 -173.5 175.37 -173 179 C-171.01 181.66 -171.01 181.66 -168 183 C-163 183 -159.94 180.91 -156 178 C-156.95 176.21 -157.91 174.41 -158.88 172.62 C-159.68 171.13 -159.68 171.13 -160.49 169.6 C-161.88 166.95 -161.88 166.95 -164 165 Z M-74 178 C-79.94 181.47 -79.94 181.47 -86 185 C-85.52 185.85 -85.03 186.7 -84.53 187.57 C-84.21 188.13 -83.89 188.69 -83.56 189.27 C-82.85 190.52 -82.13 191.77 -81.42 193.01 C-79.53 196.31 -77.66 199.61 -75.83 202.94 C-75.31 203.88 -75.31 203.88 -74.77 204.85 C-73.8 206.61 -72.83 208.37 -71.86 210.14 C-70.08 212.88 -68.84 214.43 -66 216 C-62.22 215.93 -59.93 215.78 -57 213.31 C-55.63 210.15 -56.23 208.34 -57 205 C-58.22 202.23 -58.22 202.23 -59.8 199.52 C-60.65 198.02 -60.65 198.02 -61.51 196.49 C-62.11 195.46 -62.7 194.43 -63.31 193.38 C-63.89 192.34 -64.48 191.3 -65.08 190.23 C-67.8 185.46 -70.06 181.94 -74 178 Z " fill="#0D88FF" transform="translate(262,184)"/>
<path d="M0 0 C1.06 -0.01 2.12 -0.01 3.21 -0.02 C6.72 -0.04 10.23 -0.04 13.73 -0.05 C16.17 -0.05 18.61 -0.06 21.05 -0.07 C26.17 -0.08 31.28 -0.08 36.4 -0.08 C42.94 -0.08 49.49 -0.11 56.04 -0.14 C61.08 -0.16 66.12 -0.17 71.16 -0.17 C73.57 -0.17 75.98 -0.18 78.4 -0.19 C81.78 -0.21 85.16 -0.21 88.54 -0.2 C89.53 -0.21 90.52 -0.22 91.54 -0.23 C98.83 -0.16 104.17 1.41 109.7 6.26 C110.24 6.91 110.78 7.56 111.34 8.23 C111.89 8.88 112.45 9.52 113.02 10.19 C115.93 14.42 116.71 18.12 116.75 23.21 C116.76 24.38 116.78 25.55 116.79 26.75 C116.79 28 116.8 29.25 116.8 30.54 C116.81 32.48 116.81 32.48 116.82 34.46 C116.83 37.19 116.83 39.92 116.83 42.66 C116.83 46.15 116.86 49.65 116.89 53.14 C116.92 56.49 116.92 59.83 116.92 63.17 C116.94 64.42 116.95 65.68 116.97 66.97 C116.96 68.13 116.95 69.3 116.95 70.5 C116.95 71.52 116.95 72.55 116.96 73.6 C116.33 76.99 115.12 78.17 112.46 80.29 C110.46 80.82 110.46 80.82 108.46 80.79 C107.47 80.81 107.47 80.81 106.46 80.82 C103.56 80.05 102.37 78.58 100.46 76.29 C99.96 73.87 99.96 73.87 99.95 71.14 C99.93 70.12 99.92 69.09 99.91 68.04 C99.91 66.39 99.91 66.39 99.92 64.7 C99.91 63.56 99.9 62.43 99.89 61.26 C99.85 57.62 99.84 53.99 99.84 50.35 C99.82 46.72 99.8 43.09 99.77 39.46 C99.75 37.2 99.74 34.94 99.74 32.68 C99.73 31.65 99.72 30.63 99.72 29.57 C99.72 28.67 99.71 27.77 99.71 26.84 C99.42 23.89 98.92 21.87 97.46 19.29 C93.13 16.54 88.12 17.01 83.16 17.03 C82.23 17.03 81.3 17.02 80.35 17.02 C77.28 17.01 74.21 17.02 71.15 17.02 C69.02 17.02 66.88 17.02 64.75 17.02 C60.28 17.02 55.81 17.02 51.34 17.03 C45.62 17.04 39.89 17.03 34.16 17.02 C29.76 17.02 25.36 17.02 20.95 17.02 C18.84 17.02 16.73 17.02 14.62 17.02 C11.66 17.01 8.71 17.02 5.76 17.03 C4.89 17.03 4.02 17.02 3.12 17.02 C-2.98 17.01 -2.98 17.01 -8.54 19.29 C-11.29 23.62 -10.82 28.63 -10.8 33.59 C-10.8 34.52 -10.8 35.45 -10.81 36.41 C-10.82 39.47 -10.81 42.54 -10.8 45.6 C-10.81 47.74 -10.81 49.87 -10.81 52 C-10.81 56.47 -10.81 60.94 -10.8 65.41 C-10.79 71.14 -10.79 76.86 -10.81 82.59 C-10.81 86.99 -10.81 91.4 -10.81 95.8 C-10.8 97.91 -10.81 100.02 -10.81 102.14 C-10.82 105.09 -10.81 108.04 -10.8 110.99 C-10.8 111.86 -10.81 112.73 -10.81 113.63 C-10.82 119.74 -10.82 119.74 -8.54 125.29 C-4.21 128.04 0.8 127.57 5.76 127.55 C6.69 127.55 7.62 127.56 8.58 127.56 C11.64 127.57 14.71 127.56 17.77 127.56 C19.91 127.56 22.04 127.56 24.17 127.56 C28.64 127.56 33.11 127.56 37.58 127.55 C43.31 127.54 49.03 127.55 54.76 127.56 C59.16 127.57 63.57 127.56 67.97 127.56 C70.08 127.56 72.2 127.56 74.31 127.56 C77.26 127.57 80.21 127.56 83.16 127.55 C84.03 127.55 84.9 127.56 85.8 127.56 C90.09 127.53 93.61 127.43 97.46 125.29 C100.72 120.25 99.82 113.3 99.85 107.51 C100.03 100.92 100.03 100.92 102.25 97.7 C104.57 96.22 105.74 95.75 108.46 95.79 C109.45 95.78 109.45 95.78 110.46 95.76 C113.4 96.54 114.56 97.95 116.46 100.29 C116.98 103.1 116.98 103.1 116.99 106.31 C117 108.06 117 108.06 117.01 109.85 C116.99 111.07 116.98 112.29 116.96 113.54 C116.98 115.34 116.98 115.34 117.01 117.19 C116.97 125.48 116.02 131.23 110.5 137.53 C109.85 138.07 109.19 138.61 108.52 139.17 C107.88 139.72 107.23 140.27 106.56 140.85 C100.89 144.75 95.59 144.59 88.92 144.58 C87.86 144.59 86.8 144.59 85.71 144.6 C82.2 144.62 78.7 144.62 75.19 144.63 C72.75 144.63 70.31 144.64 67.87 144.65 C62.76 144.66 57.64 144.66 52.53 144.66 C45.98 144.66 39.43 144.69 32.89 144.72 C27.85 144.74 22.81 144.75 17.77 144.75 C15.35 144.75 12.94 144.76 10.53 144.77 C7.15 144.79 3.77 144.79 0.39 144.78 C-1.1 144.79 -1.1 144.79 -2.62 144.81 C-9.9 144.74 -15.25 143.17 -20.78 138.33 C-21.59 137.35 -21.59 137.35 -22.41 136.35 C-22.97 135.7 -23.52 135.06 -24.09 134.39 C-28 128.72 -27.83 123.42 -27.83 116.75 C-27.84 115.69 -27.84 114.63 -27.85 113.54 C-27.87 110.03 -27.87 106.53 -27.87 103.02 C-27.88 100.58 -27.89 98.14 -27.89 95.7 C-27.91 90.59 -27.91 85.47 -27.91 80.36 C-27.91 73.81 -27.94 67.26 -27.97 60.72 C-27.99 55.68 -28 50.64 -28 45.59 C-28 43.18 -28.01 40.77 -28.02 38.36 C-28.04 34.98 -28.04 31.6 -28.02 28.22 C-28.04 27.23 -28.05 26.23 -28.06 25.21 C-27.99 17.93 -26.42 12.58 -21.57 7.05 C-20.92 6.51 -20.27 5.97 -19.6 5.42 C-18.95 4.86 -18.3 4.31 -17.64 3.74 C-11.96 -0.17 -6.67 -0.01 0 0 Z " fill="#0D88FF" transform="translate(379.538330078125,263.70947265625)"/>
<path d="M0 0 C1.06 -0.01 2.12 -0.01 3.21 -0.02 C6.72 -0.04 10.23 -0.04 13.73 -0.05 C16.17 -0.05 18.61 -0.06 21.05 -0.07 C26.17 -0.08 31.28 -0.08 36.4 -0.08 C42.94 -0.08 49.49 -0.11 56.04 -0.14 C61.08 -0.16 66.12 -0.17 71.16 -0.17 C73.57 -0.17 75.98 -0.18 78.4 -0.19 C81.78 -0.21 85.16 -0.21 88.54 -0.2 C89.53 -0.21 90.52 -0.22 91.54 -0.23 C98.83 -0.16 104.17 1.41 109.7 6.26 C110.24 6.91 110.78 7.56 111.34 8.23 C111.89 8.88 112.45 9.52 113.02 10.19 C116.92 15.86 116.76 21.16 116.75 27.83 C116.76 28.89 116.77 29.95 116.77 31.04 C116.79 34.55 116.8 38.05 116.8 41.56 C116.8 44 116.81 46.44 116.82 48.88 C116.83 54 116.83 59.11 116.83 64.23 C116.83 70.77 116.86 77.32 116.89 83.87 C116.92 88.91 116.92 93.95 116.92 98.99 C116.92 101.4 116.93 103.81 116.95 106.23 C116.97 109.61 116.96 112.98 116.95 116.36 C116.96 117.36 116.97 118.35 116.98 119.37 C116.92 126.66 115.34 132 110.5 137.53 C109.85 138.07 109.19 138.61 108.52 139.17 C107.88 139.72 107.23 140.27 106.56 140.85 C100.89 144.75 95.59 144.59 88.92 144.58 C87.86 144.59 86.8 144.59 85.71 144.6 C82.2 144.62 78.7 144.62 75.19 144.63 C72.75 144.63 70.31 144.64 67.87 144.65 C62.76 144.66 57.64 144.66 52.53 144.66 C45.98 144.66 39.43 144.69 32.89 144.72 C27.85 144.74 22.81 144.75 17.77 144.75 C15.35 144.75 12.94 144.76 10.53 144.77 C7.15 144.79 3.77 144.79 0.39 144.78 C-1.1 144.79 -1.1 144.79 -2.62 144.81 C-9.9 144.74 -15.25 143.17 -20.78 138.33 C-21.59 137.35 -21.59 137.35 -22.41 136.35 C-22.97 135.7 -23.52 135.06 -24.09 134.39 C-27.01 130.16 -27.79 126.46 -27.83 121.37 C-27.84 120.2 -27.85 119.03 -27.87 117.83 C-27.87 116.58 -27.87 115.33 -27.87 114.04 C-27.88 112.74 -27.89 111.45 -27.89 110.12 C-27.91 107.39 -27.91 104.66 -27.91 101.93 C-27.91 98.43 -27.94 94.93 -27.97 91.44 C-28 88.1 -28 84.75 -28 81.41 C-28.01 80.16 -28.03 78.9 -28.04 77.61 C-28.04 76.45 -28.03 75.28 -28.02 74.08 C-28.03 73.06 -28.03 72.03 -28.03 70.98 C-27.41 67.59 -26.2 66.41 -23.54 64.29 C-21.54 63.76 -21.54 63.76 -19.54 63.79 C-18.55 63.78 -18.55 63.78 -17.54 63.76 C-14.63 64.53 -13.45 66 -11.54 68.29 C-11.03 70.71 -11.03 70.71 -11.02 73.44 C-11 74.98 -11 74.98 -10.98 76.54 C-10.99 77.64 -10.99 78.75 -11 79.88 C-10.99 81.02 -10.98 82.15 -10.96 83.32 C-10.93 86.96 -10.92 90.59 -10.91 94.23 C-10.9 97.86 -10.87 101.49 -10.84 105.12 C-10.82 107.38 -10.81 109.64 -10.81 111.9 C-10.81 112.93 -10.8 113.95 -10.79 115.01 C-10.79 115.91 -10.79 116.81 -10.79 117.74 C-10.5 120.69 -10 122.71 -8.54 125.29 C-4.21 128.04 0.8 127.57 5.76 127.55 C6.69 127.55 7.62 127.56 8.58 127.56 C11.64 127.57 14.71 127.56 17.77 127.56 C19.91 127.56 22.04 127.56 24.17 127.56 C28.64 127.56 33.11 127.56 37.58 127.55 C43.31 127.54 49.03 127.55 54.76 127.56 C59.16 127.57 63.57 127.56 67.97 127.56 C70.08 127.56 72.2 127.56 74.31 127.56 C77.26 127.57 80.21 127.56 83.16 127.55 C84.03 127.55 84.9 127.56 85.8 127.56 C91.91 127.57 91.91 127.57 97.46 125.29 C100.21 120.96 99.74 115.95 99.72 110.99 C99.72 110.06 99.73 109.13 99.73 108.17 C99.74 105.11 99.73 102.04 99.73 98.98 C99.73 96.84 99.73 94.71 99.73 92.58 C99.74 88.11 99.73 83.64 99.72 79.17 C99.71 73.45 99.72 67.72 99.73 61.99 C99.74 57.59 99.73 53.18 99.73 48.78 C99.73 46.67 99.73 44.56 99.73 42.45 C99.74 39.49 99.73 36.54 99.72 33.59 C99.72 32.72 99.73 31.85 99.73 30.95 C99.75 24.85 99.75 24.85 97.46 19.29 C93.13 16.54 88.12 17.01 83.16 17.03 C82.23 17.03 81.3 17.02 80.35 17.02 C77.28 17.01 74.21 17.02 71.15 17.02 C69.02 17.02 66.88 17.02 64.75 17.02 C60.28 17.02 55.81 17.02 51.34 17.03 C45.62 17.04 39.89 17.03 34.16 17.02 C29.76 17.02 25.36 17.02 20.95 17.02 C18.84 17.02 16.73 17.02 14.62 17.02 C11.66 17.01 8.71 17.02 5.76 17.03 C4.89 17.03 4.02 17.02 3.12 17.02 C-1.17 17.05 -4.69 17.15 -8.54 19.29 C-11.79 24.33 -10.9 31.28 -10.93 37.07 C-11.11 43.66 -11.11 43.66 -13.33 46.88 C-15.65 48.36 -16.81 48.83 -19.54 48.79 C-20.53 48.81 -20.53 48.81 -21.54 48.82 C-24.47 48.04 -25.63 46.63 -27.54 44.29 C-28.06 41.48 -28.06 41.48 -28.07 38.27 C-28.07 37.11 -28.08 35.94 -28.09 34.73 C-28.06 32.9 -28.06 32.9 -28.04 31.04 C-28.05 29.84 -28.07 28.64 -28.09 27.4 C-28.05 19.1 -27.09 13.35 -21.57 7.05 C-20.92 6.51 -20.27 5.97 -19.6 5.42 C-18.95 4.86 -18.3 4.31 -17.64 3.74 C-11.96 -0.17 -6.67 -0.01 0 0 Z " fill="#0D88FF" transform="translate(379.538330078125,15.70947265625)"/>
<path d="M0 0 C0.87 -0.01 1.75 -0.02 2.65 -0.03 C4.08 -0.02 4.08 -0.02 5.54 -0.01 C6.54 -0.02 7.55 -0.02 8.59 -0.03 C11.93 -0.05 15.26 -0.04 18.6 -0.02 C20.91 -0.03 23.23 -0.03 25.55 -0.03 C30.4 -0.04 35.26 -0.03 40.11 -0.01 C46.34 0.01 52.57 -0 58.8 -0.03 C63.58 -0.04 68.36 -0.04 73.15 -0.03 C75.44 -0.02 77.74 -0.03 80.04 -0.04 C83.24 -0.05 86.45 -0.03 89.66 -0.01 C91.09 -0.02 91.09 -0.02 92.54 -0.03 C93.86 -0.02 93.86 -0.02 95.2 0 C95.95 0 96.71 0 97.49 0 C100.54 0.73 101.72 2.03 103.6 4.51 C104.1 7.11 104.1 7.11 104.11 10.13 C104.12 11.27 104.13 12.41 104.14 13.59 C104.13 14.84 104.12 16.09 104.12 17.38 C104.12 18.72 104.13 20.05 104.14 21.38 C104.15 25 104.15 28.62 104.13 32.24 C104.12 36.03 104.13 39.82 104.14 43.61 C104.15 49.97 104.14 56.33 104.12 62.7 C104.1 70.05 104.1 77.41 104.13 84.76 C104.14 91.08 104.15 97.39 104.14 103.71 C104.13 107.48 104.13 111.25 104.14 115.02 C104.15 118.57 104.15 122.11 104.12 125.66 C104.12 127.58 104.13 129.5 104.14 131.42 C104.12 133.14 104.12 133.14 104.11 134.89 C104.1 135.88 104.1 136.88 104.1 137.9 C103.45 141.28 102.33 142.46 99.6 144.51 C97.49 145.01 97.49 145.01 95.2 145.02 C93.88 145.03 93.88 145.03 92.54 145.05 C91.59 145.04 90.64 145.03 89.66 145.03 C88.65 145.03 87.64 145.04 86.6 145.05 C83.27 145.06 79.93 145.05 76.6 145.04 C74.28 145.04 71.96 145.05 69.65 145.05 C64.79 145.06 59.94 145.05 55.08 145.03 C48.85 145.01 42.63 145.02 36.4 145.04 C31.62 145.06 26.83 145.05 22.05 145.04 C19.75 145.04 17.46 145.04 15.16 145.05 C11.95 145.06 8.74 145.05 5.54 145.03 C4.58 145.03 3.63 145.04 2.65 145.05 C1.78 145.04 0.9 145.03 0 145.02 C-0.76 145.01 -1.52 145.01 -2.3 145.01 C-5.35 144.28 -6.53 142.99 -8.4 140.51 C-8.91 137.9 -8.91 137.9 -8.91 134.89 C-8.92 133.75 -8.93 132.6 -8.94 131.42 C-8.94 130.17 -8.93 128.92 -8.92 127.63 C-8.93 126.3 -8.93 124.96 -8.94 123.63 C-8.96 120.01 -8.95 116.39 -8.94 112.77 C-8.93 108.98 -8.94 105.19 -8.95 101.41 C-8.95 95.04 -8.94 88.68 -8.92 82.32 C-8.9 74.97 -8.91 67.61 -8.93 60.26 C-8.95 53.94 -8.95 47.63 -8.94 41.31 C-8.94 37.54 -8.93 33.77 -8.95 30 C-8.96 26.45 -8.95 22.9 -8.93 19.36 C-8.92 17.44 -8.93 15.51 -8.94 13.59 C-8.93 12.45 -8.92 11.3 -8.91 10.13 C-8.91 9.13 -8.91 8.14 -8.91 7.11 C-7.94 2.12 -4.94 0.01 0 0 Z M7.6 16.51 C7.6 53.47 7.6 90.43 7.6 128.51 C34 128.51 60.4 128.51 87.6 128.51 C87.6 91.55 87.6 54.59 87.6 16.51 C61.2 16.51 34.8 16.51 7.6 16.51 Z " fill="#0D88FF" transform="translate(24.40234375,87.4920654296875)"/>
<path d="M0 0 C14.36 11.71 26.07 27.89 28.31 46.72 C29.77 68.44 26.98 88.68 12.33 105.63 C-0.88 120.09 -17.33 130.11 -37.25 131.03 C-57.94 131.62 -76.5 127.61 -92.13 113.35 C-106.87 99.21 -115.5 82.71 -116.09 62.08 C-116.33 41.69 -111.23 23.74 -96.89 8.8 C-71.34 -16.79 -29.78 -22.5 0 0 Z M-77.69 14.72 C-78.4 15.22 -79.11 15.72 -79.84 16.24 C-89.61 23.87 -96.75 36.57 -98.69 48.72 C-100.24 65.37 -97.75 79.04 -87.69 92.72 C-87.19 93.43 -86.69 94.14 -86.18 94.86 C-78.55 104.63 -65.84 111.77 -53.69 113.72 C-37.04 115.27 -23.38 112.77 -9.69 102.72 C-8.99 102.22 -8.28 101.72 -7.55 101.2 C2.22 93.57 9.36 80.87 11.31 68.72 C12.85 52.07 10.36 38.4 0.31 24.72 C-0.19 24.01 -0.69 23.3 -1.21 22.58 C-8.84 12.81 -21.55 5.67 -33.69 3.72 C-50.35 2.17 -64.01 4.67 -77.69 14.72 Z " fill="#0D88FF" transform="translate(259.693359375,21.27978515625)"/>
<path d="M0 0 C8.34 4.98 13.53 11.86 16.11 21.26 C17.11 32.36 16.46 41.99 9.36 51.07 C3.7 57.13 -3.34 60.85 -11.62 61.59 C-22.35 61.84 -31.2 60.58 -39.36 52.96 C-46.75 44.74 -48.47 36.02 -48.2 25.25 C-47.73 16.86 -44.12 9.85 -37.89 4.26 C-27.15 -3.82 -12.32 -5.91 0 0 Z M-29.27 20.88 C-31.47 25.46 -31.69 29.26 -30.89 34.26 C-28.56 39.1 -25.73 41.93 -20.89 44.26 C-15.9 45.05 -12.09 44.84 -7.52 42.63 C-3.93 39.39 -1.3 36.79 -0.51 31.86 C-0.25 26.18 -0.95 22.61 -4.89 18.26 C-9.24 14.32 -12.81 13.62 -18.49 13.88 C-23.43 14.66 -26.02 17.3 -29.27 20.88 Z " fill="#0D88FF" transform="translate(439.890625,306.7421875)"/>
<path d="M0 0 C5.04 1 9.47 3.5 14.01 5.83 C15.65 6.65 15.65 6.65 17.32 7.49 C19.62 8.65 21.92 9.81 24.22 10.99 C27.74 12.78 31.27 14.55 34.8 16.32 C37.04 17.45 39.27 18.58 41.51 19.71 C42.57 20.24 43.63 20.77 44.72 21.32 C45.69 21.82 46.67 22.32 47.67 22.83 C48.53 23.27 49.39 23.71 50.28 24.16 C52.36 25.47 52.36 25.47 54.36 28.47 C54.9 34.1 54.9 34.1 54.36 36.47 C51.73 39.45 49.15 41.33 45.63 43.13 C44.69 43.61 43.76 44.09 42.79 44.58 C41.79 45.09 40.79 45.59 39.75 46.11 C38.71 46.64 37.67 47.16 36.6 47.71 C34.4 48.82 32.19 49.92 29.99 51.03 C26.63 52.71 23.28 54.42 19.93 56.13 C17.79 57.21 15.65 58.29 13.5 59.36 C12.51 59.87 11.51 60.39 10.48 60.91 C4.85 63.69 0.67 65.48 -5.64 64.47 C-8.3 62.41 -9.49 61.23 -10.15 57.89 C-10.15 56.92 -10.15 55.94 -10.16 54.94 C-10.17 53.83 -10.18 52.72 -10.2 51.58 C-10.19 50.39 -10.18 49.2 -10.17 47.97 C-10.17 46.74 -10.18 45.51 -10.18 44.25 C-10.19 41.65 -10.18 39.06 -10.16 36.46 C-10.14 32.48 -10.16 28.51 -10.19 24.53 C-10.18 22.01 -10.18 19.49 -10.17 16.97 C-10.18 15.78 -10.19 14.59 -10.2 13.36 C-10.18 12.25 -10.17 11.14 -10.16 10 C-10.15 9.03 -10.15 8.05 -10.15 7.05 C-9.06 1.53 -5.41 -0.3 0 0 Z M6.36 22.47 C6.36 29.07 6.36 35.67 6.36 42.47 C11.35 40.83 11.35 40.83 16.01 38.74 C16.62 38.43 17.23 38.12 17.86 37.81 C18.48 37.49 19.1 37.17 19.74 36.84 C20.38 36.52 21.02 36.19 21.68 35.86 C23.24 35.07 24.8 34.27 26.36 33.47 C26.36 32.81 26.36 32.15 26.36 31.47 C23.41 29.96 20.45 28.47 17.49 26.97 C16.64 26.54 15.8 26.11 14.93 25.67 C13.73 25.06 13.73 25.06 12.49 24.44 C11.75 24.06 11.01 23.68 10.24 23.3 C8.4 22.34 8.4 22.34 6.36 22.47 Z " fill="#0D88FF" transform="translate(201.63946533203125,47.530364990234375)"/>
<path d="M0 0 C1.23 -0.02 2.46 -0.05 3.73 -0.07 C5.51 -0.08 5.51 -0.08 7.32 -0.09 C8.39 -0.09 9.47 -0.1 10.58 -0.11 C14.1 0.49 15.26 1.61 17.44 4.38 C17.97 6.37 17.97 6.37 17.94 8.38 C17.95 9.37 17.95 9.37 17.97 10.38 C17.14 13.51 16.12 14.52 13.44 16.38 C10.13 16.96 6.85 16.98 3.5 17 C-4.31 16.89 -4.31 16.89 -11.56 19.38 C-13.92 23.38 -14.1 27.83 -14.56 32.38 C-13.74 32.33 -12.92 32.28 -12.08 32.23 C-11 32.2 -9.92 32.16 -8.81 32.12 C-7.21 32.06 -7.21 32.06 -5.58 31.98 C-2.56 32.38 -2.56 32.38 -0.2 34.14 C1.53 36.5 1.98 37.5 1.94 40.38 C1.95 41.03 1.96 41.69 1.97 42.38 C1.19 45.32 -0.2 46.48 -2.56 48.38 C-5.58 48.77 -5.58 48.77 -8.81 48.62 C-9.89 48.59 -10.97 48.55 -12.08 48.52 C-12.9 48.47 -13.72 48.42 -14.56 48.38 C-14.54 49.2 -14.52 50.03 -14.5 50.88 C-14.42 54.63 -14.36 58.38 -14.31 62.12 C-14.28 63.43 -14.25 64.73 -14.21 66.07 C-14.2 67.32 -14.19 68.57 -14.17 69.86 C-14.15 71.01 -14.13 72.16 -14.11 73.35 C-14.66 77.01 -15.68 78.14 -18.56 80.38 C-20.56 80.91 -20.56 80.91 -22.56 80.88 C-23.22 80.89 -23.88 80.9 -24.56 80.91 C-27.52 80.12 -28.66 78.75 -30.56 76.38 C-31.02 73.35 -31.02 73.35 -30.95 69.86 C-30.94 68.61 -30.93 67.36 -30.91 66.07 C-30.88 64.77 -30.85 63.47 -30.81 62.12 C-30.79 60.81 -30.78 59.49 -30.76 58.13 C-30.71 54.88 -30.64 51.63 -30.56 48.38 C-31.38 48.42 -32.2 48.47 -33.05 48.52 C-34.66 48.57 -34.66 48.57 -36.31 48.62 C-37.38 48.67 -38.45 48.72 -39.55 48.77 C-43.23 48.29 -44.31 47.26 -46.56 44.38 C-47.09 42.38 -47.09 42.38 -47.06 40.38 C-47.07 39.72 -47.08 39.06 -47.09 38.38 C-46.3 35.39 -45.02 34.21 -42.56 32.38 C-39.55 31.98 -39.55 31.98 -36.31 32.12 C-35.23 32.16 -34.16 32.2 -33.05 32.23 C-31.82 32.3 -31.82 32.3 -30.56 32.38 C-30.61 31.39 -30.66 30.39 -30.7 29.38 C-31.18 15.01 -31.18 15.01 -26.56 9.38 C-18.34 0.76 -11.61 0.01 0 0 Z " fill="#0D88FF" transform="translate(438.5625,47.625)"/>
<path d="M0 0 C1.77 2.96 2.01 5.45 2.12 8.88 C1.25 11.62 1.25 11.62 -0.88 13.88 C-7.97 16.63 -15.26 18.18 -22.71 19.66 C-24.68 20.06 -26.64 20.47 -28.6 20.89 C-45.08 24.22 -45.08 24.22 -51.88 22.88 C-55.64 19.76 -55.64 19.76 -56.41 16.88 C-56.4 16.22 -56.39 15.56 -56.38 14.88 C-56.39 13.88 -56.39 13.88 -56.41 12.88 C-55.63 9.96 -54.17 8.81 -51.88 6.88 C-49.09 5.92 -49.09 5.92 -45.89 5.28 C-44.71 5.03 -43.54 4.79 -42.33 4.54 C-40.46 4.18 -40.46 4.18 -38.56 3.81 C-37.3 3.56 -36.04 3.3 -34.73 3.04 C-32.24 2.54 -29.74 2.04 -27.24 1.55 C-24.46 0.99 -21.7 0.41 -18.94 -0.21 C-17.66 -0.49 -16.38 -0.77 -15.06 -1.06 C-14 -1.3 -12.95 -1.53 -11.86 -1.78 C-7.74 -2.26 -3.62 -2.17 0 0 Z " fill="#0D88FF" transform="translate(390.875,225.125)"/>
<path d="M0 0 C2.5 1.5 2.5 1.5 4 4 C4.77 9.42 4.77 9.42 4 12 C-0.28 17.1 -5.89 20.88 -11.19 24.88 C-12.08 25.56 -12.98 26.24 -13.9 26.94 C-16.59 28.98 -19.29 30.99 -22 33 C-22.91 33.67 -23.82 34.35 -24.75 35.04 C-26.06 35.99 -26.06 35.99 -27.4 36.96 C-28.57 37.82 -28.57 37.82 -29.77 38.69 C-33.49 40.88 -35.78 40.8 -40 40 C-42.5 38.5 -42.5 38.5 -44 36 C-44.77 30.58 -44.77 30.58 -44 28 C-39.72 22.9 -34.11 19.12 -28.81 15.12 C-27.92 14.44 -27.02 13.76 -26.1 13.06 C-23.41 11.02 -20.71 9.01 -18 7 C-16.64 5.99 -16.64 5.99 -15.25 4.96 C-13.94 4.01 -13.94 4.01 -12.6 3.04 C-11.43 2.18 -11.43 2.18 -10.23 1.31 C-6.51 -0.88 -4.22 -0.8 0 0 Z " fill="#0D88FF" transform="translate(356,176)"/>
<path d="M0 0 C2.5 1.5 2.5 1.5 4 4 C4.87 10.46 3.53 13.52 -0.37 18.65 C-0.99 19.42 -1.61 20.2 -2.25 21 C-2.88 21.82 -3.51 22.63 -4.15 23.47 C-5.45 25.16 -6.76 26.84 -8.07 28.51 C-9.92 30.9 -11.74 33.32 -13.53 35.76 C-14.07 36.5 -14.62 37.23 -15.18 37.99 C-16.21 39.39 -17.24 40.79 -18.27 42.19 C-21.77 46.89 -21.77 46.89 -24 48 C-31.05 48.57 -31.05 48.57 -34.5 46.5 C-36.6 43 -36.76 39.93 -36 36 C-34.29 32.7 -32.07 29.9 -29.75 27 C-29.12 26.18 -28.49 25.37 -27.85 24.53 C-26.55 22.84 -25.24 21.16 -23.93 19.49 C-22.08 17.1 -20.26 14.68 -18.47 12.24 C-17.93 11.5 -17.38 10.77 -16.82 10.01 C-15.79 8.61 -14.76 7.21 -13.73 5.81 C-9.64 0.33 -6.89 -0.94 0 0 Z " fill="#0D88FF" transform="translate(324,136)"/>
<path d="M0 0 C0.87 -0 1.75 -0.01 2.64 -0.01 C4.49 -0.01 6.33 -0.01 8.17 0.01 C10.99 0.03 13.81 0.01 16.62 -0.02 C18.42 -0.01 20.21 -0.01 22 0 C22.84 -0.01 23.68 -0.02 24.55 -0.02 C30.39 0.07 30.39 0.07 33.53 2.44 C35.12 4.7 35.54 5.79 35.5 8.53 C35.51 9.19 35.52 9.85 35.53 10.53 C34.72 13.58 33.53 14.62 31 16.53 C28 17.13 25.05 17.09 22 17.06 C21.13 17.07 20.25 17.07 19.36 17.07 C17.51 17.08 15.67 17.07 13.83 17.05 C11.01 17.03 8.19 17.05 5.38 17.08 C3.58 17.08 1.79 17.07 0 17.06 C-0.84 17.07 -1.68 17.08 -2.55 17.09 C-8.39 16.99 -8.39 16.99 -11.53 14.62 C-13.12 12.36 -13.54 11.27 -13.5 8.53 C-13.52 7.54 -13.52 7.54 -13.53 6.53 C-11.69 -0.4 -5.95 -0.06 0 0 Z " fill="#0D88FF" transform="translate(61,183.46875)"/>
<path d="M0 0 C0.87 -0 1.75 -0.01 2.64 -0.01 C4.49 -0.01 6.33 -0.01 8.17 0.01 C10.99 0.03 13.81 0.01 16.62 -0.02 C18.42 -0.01 20.21 -0.01 22 0 C22.84 -0.01 23.68 -0.02 24.55 -0.02 C30.39 0.07 30.39 0.07 33.53 2.44 C35.12 4.7 35.54 5.79 35.5 8.53 C35.51 9.19 35.52 9.85 35.53 10.53 C34.72 13.58 33.53 14.62 31 16.53 C28 17.13 25.05 17.09 22 17.06 C21.13 17.07 20.25 17.07 19.36 17.07 C17.51 17.08 15.67 17.07 13.83 17.05 C11.01 17.03 8.19 17.05 5.38 17.08 C3.58 17.08 1.79 17.07 0 17.06 C-0.84 17.07 -1.68 17.08 -2.55 17.09 C-8.39 16.99 -8.39 16.99 -11.53 14.62 C-13.12 12.36 -13.54 11.27 -13.5 8.53 C-13.52 7.54 -13.52 7.54 -13.53 6.53 C-11.69 -0.4 -5.95 -0.06 0 0 Z " fill="#0D88FF" transform="translate(61,151.46875)"/>
<path d="M0 0 C1.05 -0.01 2.1 -0.01 3.19 -0.02 C4.28 -0 5.37 0.02 6.5 0.03 C8.14 0.01 8.14 0.01 9.81 -0.02 C10.86 -0.01 11.92 -0.01 13 0 C14.44 0.01 14.44 0.01 15.91 0.01 C19.21 0.67 20.41 1.94 22.5 4.53 C23.03 6.53 23.03 6.53 23 8.53 C23.01 9.19 23.02 9.85 23.03 10.53 C22.26 13.45 20.81 14.62 18.5 16.53 C15.91 17.05 15.91 17.05 13 17.06 C11.95 17.07 10.9 17.07 9.81 17.08 C8.72 17.06 7.63 17.05 6.5 17.03 C4.86 17.05 4.86 17.05 3.19 17.08 C2.14 17.07 1.08 17.07 0 17.06 C-0.96 17.06 -1.92 17.05 -2.91 17.05 C-6.21 16.39 -7.41 15.12 -9.5 12.53 C-10.03 10.53 -10.03 10.53 -10 8.53 C-10.02 7.54 -10.02 7.54 -10.03 6.53 C-8.65 1.34 -4.94 0.02 0 0 Z " fill="#0D88FF" transform="translate(73.5,119.46875)"/>
</svg>
