<?xml version="1.0" encoding="UTF-8"?>
<!-- Generator: visioncortex VTracer 0.6.4 -->
<svg version="1.1" xmlns="http://www.w3.org/2000/svg" width="512" height="512">
<path d="M0 0 C9.9 10.39 13.85 23.94 14 38 C12.96 57.17 6.91 75.32 -7.3 88.8 C-12.59 93.12 -18.05 97 -25 97 C-24.61 97.43 -24.21 97.87 -23.81 98.32 C-20.22 102.35 -16.81 106.49 -13.5 110.76 C-7.81 118.05 -1.83 125.07 4.38 131.94 C4.93 132.56 5.49 133.17 6.07 133.81 C20.98 150.1 34.36 160.46 56.92 161.75 C70.3 162.29 83.91 161.47 97.2 159.86 C105.95 158.85 112.22 158.89 119.71 163.76 C126.06 169.57 130.54 175.55 131.17 184.37 C131.17 185.19 131.18 186.02 131.19 186.88 C131.2 187.7 131.22 188.52 131.23 189.37 C131 192 131 192 129 198 C136.92 198 144.84 198 153 198 C152.34 196.02 151.68 194.04 151 192 C149.85 183.73 151.87 176.6 156.54 169.73 C161.16 164.03 166.71 160.32 174 159 C176.08 159.17 178.15 159.43 180.22 159.73 C219.88 165.25 219.88 165.25 256.21 152.2 C265.28 145.17 273.27 137.01 281 128.56 C281.64 127.86 282.28 127.16 282.94 126.44 C296.3 112.69 296.3 112.69 307 97 C306.22 96.96 305.43 96.92 304.62 96.88 C293.15 94.1 284.32 85.13 278.25 75.38 C269.45 59.24 265.43 39.94 269.75 21.84 C271.8 15.08 274.75 9.62 279 4 C279.62 3.11 280.24 2.23 280.88 1.31 C289.93 -8.54 302.71 -14.03 315.93 -14.95 C330.52 -15.19 343.8 -10.27 354.56 -0.38 C363.78 9.69 368.4 22.39 368.38 35.94 C368.37 36.86 368.37 37.78 368.37 38.73 C368.22 47.28 366.66 54.9 364 63 C363.53 64.43 363.53 64.43 363.05 65.89 C360.88 71.84 357.71 76.88 354 82 C355.92 82.28 355.92 82.28 357.88 82.56 C366.53 84.52 373.4 90.28 378.42 97.46 C383.98 106.4 384.58 115.27 384.53 125.59 C384.54 127.02 384.55 128.45 384.56 129.89 C384.58 133.75 384.58 137.61 384.57 141.47 C384.57 144.69 384.57 147.92 384.58 151.15 C384.6 158.76 384.59 166.38 384.58 173.99 C384.56 181.84 384.58 189.69 384.61 197.53 C384.63 204.29 384.64 211.04 384.63 217.79 C384.63 221.82 384.63 225.85 384.65 229.87 C384.67 233.65 384.66 237.43 384.64 241.21 C384.63 242.6 384.64 243.99 384.65 245.37 C384.67 247.27 384.65 249.16 384.63 251.05 C384.63 252.11 384.63 253.17 384.63 254.26 C384 257 384 257 381.65 259.34 C378.39 261.38 376.78 261.63 373 261 C368.23 257.98 368.23 257.98 367.37 254.39 C367.37 252.9 367.37 252.9 367.37 251.38 C367.36 250.23 367.35 249.09 367.34 247.91 C367.35 246.03 367.35 246.03 367.37 244.11 C367.37 242.78 367.36 241.44 367.35 240.11 C367.33 237.23 367.33 234.36 367.35 231.48 C367.37 226.93 367.35 222.38 367.33 217.82 C367.3 210.62 367.3 203.41 367.31 196.2 C367.32 183.32 367.29 170.43 367.25 157.54 C367.24 153.02 367.24 148.5 367.25 143.99 C367.25 141.16 367.25 138.34 367.24 135.52 C367.24 133.6 367.25 131.69 367.26 129.77 C367.23 120.58 367.01 112.38 361 105 C355.14 99.59 349.92 98.52 342.12 98.7 C330.14 99.85 321.04 108.13 313.61 117.04 C311.52 119.61 309.44 122.19 307.36 124.77 C264.58 177.18 264.58 177.18 235.32 180.16 C219.21 181.4 202.82 180.41 186.82 178.25 C186.13 178.16 185.43 178.07 184.71 177.97 C182.85 177.72 180.99 177.43 179.13 177.15 C175.76 176.99 173.93 177.36 171 179 C168.68 183.53 168.73 187.12 170 192 C171.89 194.32 173.34 195.67 176 197 C178.65 197.11 181.28 197.17 183.93 197.18 C184.75 197.18 185.57 197.19 186.42 197.2 C189.14 197.22 191.86 197.23 194.58 197.24 C195.97 197.24 195.97 197.24 197.39 197.25 C202.31 197.27 207.22 197.29 212.14 197.3 C217.21 197.31 222.29 197.34 227.36 197.38 C231.27 197.41 235.17 197.41 239.07 197.42 C240.94 197.42 242.81 197.43 244.69 197.45 C247.31 197.48 249.93 197.48 252.55 197.47 C253.32 197.48 254.09 197.5 254.88 197.51 C262.91 197.43 267.02 193.23 272.42 187.79 C273.18 187.03 273.18 187.03 273.95 186.25 C275.6 184.6 277.25 182.93 278.89 181.27 C280.04 180.11 281.2 178.95 282.35 177.8 C285.37 174.76 288.39 171.72 291.4 168.68 C296.24 163.8 301.08 158.92 305.93 154.05 C307.62 152.35 309.31 150.64 311 148.94 C312.03 147.9 313.06 146.86 314.09 145.82 C315 144.91 315.9 144 316.83 143.07 C320.14 139.92 322.44 139.64 327.02 139.73 C329 140 329 140 331.5 141.5 C333.19 144.32 333.75 146.57 333.57 149.88 C331.93 156.03 325.63 160.38 320.78 164.02 C312.61 170.43 305.21 176.73 303.53 187.36 C302.46 197.18 302.92 207.08 303.39 216.92 C303.69 223.75 303.78 230.59 303.91 237.43 C303.97 239.8 304.07 242.17 304.18 244.54 C304.23 245.99 304.28 247.43 304.33 248.88 C304.41 250.77 304.41 250.77 304.5 252.69 C303.85 256.96 302.36 258.38 299 261 C295.13 261.55 292.22 261.3 289 259 C286.99 255.8 286.73 253.24 286.68 249.5 C286.66 248.4 286.64 247.3 286.62 246.16 C286.61 244.98 286.6 243.8 286.59 242.58 C286.56 240.76 286.56 240.76 286.53 238.9 C286.47 235.01 286.42 231.13 286.38 227.25 C286.34 224.62 286.3 221.99 286.26 219.36 C286.16 212.9 286.08 206.45 286 200 C285.46 200.55 284.91 201.11 284.36 201.68 C283.64 202.4 282.92 203.13 282.19 203.88 C281.48 204.59 280.77 205.31 280.04 206.05 C278 208 278 208 275 210 C274.56 212.02 274.56 212.02 274.65 214.37 C274.64 215.28 274.64 216.18 274.64 217.11 C274.65 218.09 274.65 219.07 274.66 220.08 C274.65 222.15 274.64 224.22 274.62 226.28 C274.62 229.55 274.63 232.81 274.64 236.08 C274.65 239.23 274.63 242.37 274.6 245.52 C274.61 246.49 274.63 247.47 274.64 248.47 C274.63 249.39 274.62 250.3 274.61 251.24 C274.61 252.04 274.62 252.84 274.62 253.67 C273.64 257.34 272.01 258.68 269 261 C265.57 261.74 262.21 261.67 258.71 261.63 C257.14 261.65 257.14 261.65 255.54 261.66 C252.03 261.68 248.52 261.66 245.01 261.65 C242.5 261.65 239.98 261.66 237.47 261.67 C231.34 261.69 225.22 261.69 219.09 261.68 C214.12 261.67 209.14 261.66 204.16 261.67 C203.45 261.67 202.74 261.67 202.02 261.67 C200.58 261.67 199.14 261.67 197.7 261.68 C184.2 261.69 170.71 261.67 157.22 261.65 C145.64 261.62 134.06 261.63 122.48 261.65 C109.03 261.68 95.59 261.69 82.14 261.67 C80.71 261.67 79.27 261.67 77.84 261.67 C77.13 261.67 76.43 261.67 75.7 261.67 C70.73 261.66 65.76 261.67 60.79 261.68 C54.09 261.7 47.4 261.69 40.71 261.66 C38.25 261.65 35.8 261.65 33.34 261.66 C29.99 261.68 26.64 261.66 23.29 261.63 C22.31 261.65 21.33 261.66 20.32 261.67 C15.69 261.6 13.66 261.51 9.89 258.6 C7.87 255.83 7.4 254.72 7.5 251.35 C7.51 250.46 7.52 249.57 7.54 248.65 C7.57 247.7 7.61 246.75 7.64 245.77 C7.66 243.73 7.68 241.69 7.69 239.65 C7.75 236.45 7.81 233.25 7.91 230.06 C8.9 217.69 8.9 217.69 4.76 206.58 C2.27 204.34 -0.08 202.61 -3 201 C-3.33 200.67 -3.66 200.34 -4 200 C-4.01 200.68 -4.02 201.36 -4.02 202.06 C-4.11 209.13 -4.21 216.21 -4.32 223.28 C-4.36 225.92 -4.39 228.56 -4.42 231.2 C-4.47 234.99 -4.53 238.79 -4.59 242.58 C-4.6 243.76 -4.61 244.94 -4.62 246.16 C-4.64 247.26 -4.66 248.36 -4.68 249.5 C-4.69 250.47 -4.71 251.43 -4.72 252.43 C-5.01 255.1 -5.58 256.74 -7 259 C-10.22 261.3 -13.13 261.55 -17 261 C-20.35 258.39 -21.86 256.99 -22.46 252.73 C-22.36 250.86 -22.36 250.86 -22.25 248.96 C-22.22 248.27 -22.18 247.58 -22.15 246.87 C-22.08 245.37 -22.01 243.87 -21.92 242.38 C-21.7 238.31 -21.63 234.24 -21.53 230.17 C-21.38 225.02 -21.2 219.87 -20.89 214.73 C-19.27 192.33 -19.27 192.33 -28.84 172.88 C-34.19 167.06 -40.16 161.93 -46.41 157.11 C-49 155 -49 155 -51 152 C-51.66 145.1 -51.66 145.1 -49.5 141.5 C-46.67 139.8 -44.42 139.25 -41.11 139.44 C-33.46 141.48 -26.84 151.06 -21.39 156.57 C-19.83 158.15 -18.26 159.72 -16.69 161.3 C-12.25 165.77 -7.81 170.24 -3.37 174.73 C-0.64 177.48 2.09 180.23 4.83 182.98 C5.86 184.02 6.9 185.07 7.93 186.11 C9.37 187.57 10.82 189.03 12.27 190.48 C13.09 191.3 13.91 192.13 14.75 192.98 C19.37 197.12 23.11 197.29 29.18 197.27 C30 197.28 30.82 197.28 31.67 197.29 C34.38 197.3 37.09 197.3 39.81 197.3 C41.7 197.3 43.58 197.31 45.47 197.31 C49.43 197.32 53.39 197.32 57.34 197.32 C62.41 197.31 67.48 197.33 72.55 197.35 C76.45 197.36 80.35 197.37 84.25 197.36 C86.11 197.36 87.98 197.37 89.85 197.38 C92.47 197.39 95.08 197.38 97.69 197.37 C98.46 197.38 99.23 197.39 100.03 197.4 C104.53 197.35 107.43 196.79 111 194 C113.53 189.86 112.94 186.64 112 182 C111.33 178.87 111.33 178.87 108.85 177.77 C105.34 176.82 102.93 177.17 99.34 177.74 C97.98 177.94 96.61 178.14 95.25 178.33 C94.53 178.43 93.81 178.54 93.07 178.64 C68.43 181.9 38.9 185.17 17.91 169.5 C0.05 155.38 -15.32 137.61 -29.64 119.98 C-37.73 110.05 -46.4 100.15 -59.88 98.69 C-66.43 98.42 -71.68 98.98 -77 103 C-83.08 108.82 -84.83 114.63 -85.09 122.81 C-85.13 126.31 -85.13 129.81 -85.13 133.31 C-85.13 134.65 -85.13 136 -85.13 137.34 C-85.14 140.22 -85.14 143.11 -85.14 145.99 C-85.14 150.55 -85.15 155.11 -85.17 159.67 C-85.17 160.44 -85.17 161.21 -85.18 162 C-85.18 163.58 -85.19 165.15 -85.19 166.73 C-85.23 177.34 -85.25 187.94 -85.25 198.55 C-85.25 205.72 -85.26 212.88 -85.3 220.05 C-85.32 223.84 -85.33 227.63 -85.32 231.42 C-85.31 234.98 -85.32 238.54 -85.35 242.1 C-85.36 244.03 -85.34 245.96 -85.33 247.89 C-85.34 249.03 -85.35 250.18 -85.37 251.37 C-85.37 252.86 -85.37 252.86 -85.37 254.39 C-86.24 258 -87.92 259.05 -91 261 C-94.78 261.63 -96.39 261.38 -99.65 259.34 C-102 257 -102 257 -102.63 254.26 C-102.63 253.2 -102.63 252.14 -102.63 251.05 C-102.64 249.83 -102.65 248.61 -102.67 247.36 C-102.66 246.01 -102.64 244.67 -102.63 243.32 C-102.64 241.9 -102.64 240.48 -102.65 239.05 C-102.67 235.19 -102.66 231.34 -102.64 227.48 C-102.62 223.43 -102.63 219.38 -102.64 215.33 C-102.64 208.53 -102.62 201.73 -102.6 194.92 C-102.56 187.08 -102.56 179.24 -102.58 171.39 C-102.6 163.83 -102.59 156.27 -102.57 148.71 C-102.57 145.5 -102.57 142.29 -102.58 139.08 C-102.58 135.29 -102.57 131.5 -102.54 127.71 C-102.53 125.67 -102.54 123.63 -102.55 121.59 C-102.43 109.55 -99.6 99.72 -91 91 C-85.03 85.83 -79.8 83.13 -72 82 C-72.67 81.05 -72.67 81.05 -73.36 80.09 C-84.82 63.13 -89.01 42.42 -85.31 22.25 C-84.41 19.35 -83.35 16.72 -82 14 C-81.58 13.14 -81.15 12.27 -80.71 11.38 C-74 -0.91 -63.95 -8.24 -51 -13 C-31.98 -18.32 -14.46 -12.62 0 0 Z M-61 13.11 C-69.21 23.04 -70 32.45 -69 45 C-67.49 55.75 -62.96 67.4 -55 75 C-46.94 80.48 -40.81 82.92 -31 82 C-23.73 80.07 -16.92 75.69 -12.91 69.24 C-5.57 56.24 -0.46 41.46 -4.15 26.41 C-7.6 16.62 -14.08 9.21 -23.38 4.62 C-36.75 -0.66 -51.11 2.7 -61 13.11 Z M294.96 11.86 C287.58 19.74 284.71 28.25 285 39 C286.27 52.13 290.43 67.21 301 76 C308.51 80.93 314.97 83.06 324 82 C334.56 78.28 340.81 71.73 346 62 C350.66 50.5 354.45 34.96 349.38 22.94 C348.28 20.9 348.28 20.9 347 19 C346.36 17.96 346.36 17.96 345.71 16.9 C339.94 8.32 332.51 4.67 322.6 2.45 C312.24 0.67 302.54 4.97 294.96 11.86 Z M25 215 C25 224.57 25 234.14 25 244 C101.56 244 178.12 244 257 244 C257 234.43 257 224.86 257 215 C180.44 215 103.88 215 25 215 Z " fill="#0CD68A" transform="translate(115,226)"/>
<path d="M0 0 C15.95 13.37 27.28 29.63 33.23 49.6 C33.55 50.64 33.87 51.68 34.2 52.75 C39.78 74.11 36.87 97.88 27.23 117.6 C26.81 118.49 26.39 119.37 25.96 120.28 C20.66 130.78 12.97 139.74 4.98 148.29 C-0.61 154.3 -5.41 161.07 -8.77 168.6 C-8.58 171.53 -7.71 172.67 -5.83 174.97 C-2.02 179.83 -1.25 184.52 -1.77 190.6 C-3.17 196.32 -5.41 199.57 -9.77 203.6 C-11.82 206.42 -11.77 207.64 -11.58 211.22 C-11.46 216.72 -13.66 221.16 -16.77 225.6 C-18.66 227.1 -18.66 227.1 -20.58 228.29 C-21.64 229.05 -22.69 229.81 -23.77 230.6 C-24.11 233.93 -24.11 233.93 -23.77 237.6 C-25.38 245.46 -29.09 250.15 -35.77 254.6 C-39.71 255.91 -43.49 255.78 -47.6 255.8 C-48.47 255.81 -49.34 255.81 -50.24 255.82 C-52.08 255.83 -53.92 255.84 -55.76 255.84 C-58.56 255.85 -61.37 255.88 -64.17 255.91 C-65.96 255.92 -67.75 255.92 -69.54 255.93 C-70.79 255.95 -70.79 255.95 -72.07 255.97 C-78.47 255.94 -82.56 254.55 -87.46 250.22 C-92.93 244.01 -93.77 238.69 -93.77 230.6 C-95.42 229.23 -95.42 229.23 -97.52 227.97 C-102.17 224.63 -104.42 221.18 -105.77 215.6 C-105.81 213.83 -105.79 212.06 -105.71 210.29 C-105.54 207.81 -105.54 207.81 -105.77 205.6 C-107.98 203.32 -107.98 203.32 -110.77 201.6 C-114.98 195.77 -116.24 190.7 -115.77 183.6 C-114.73 179.49 -113.59 176.4 -110.52 173.41 C-109.94 172.81 -109.37 172.22 -108.77 171.6 C-109.84 161.46 -118.22 153.56 -124.61 146.23 C-137.02 132 -147.38 117.29 -151.77 98.6 C-151.99 97.71 -152.22 96.82 -152.45 95.9 C-157.84 70.16 -152.03 43.42 -137.77 21.6 C-134.95 17.76 -131.96 14.15 -128.77 10.6 C-128.15 9.89 -127.52 9.19 -126.88 8.46 C-94.59 -26 -36.65 -28.98 0 0 Z M-109.77 16.6 C-110.74 17.37 -111.71 18.14 -112.7 18.94 C-126.7 30.62 -135.32 50.05 -136.99 68 C-138.38 90.17 -132.11 111.18 -117.43 128.15 C-115.6 130.17 -113.74 132.16 -111.87 134.15 C-103.79 142.77 -97.7 151.87 -92.77 162.6 C-91.78 164.58 -91.78 164.58 -90.77 166.6 C-86.48 166.6 -82.19 166.6 -77.77 166.6 C-77.77 145.15 -77.77 123.7 -77.77 101.6 C-82.72 100.94 -87.67 100.28 -92.77 99.6 C-99.58 97.17 -103.18 93.88 -106.77 87.6 C-109.52 80.61 -109.65 74.48 -107.21 67.47 C-104.44 61.12 -100.4 58.11 -94.52 54.72 C-86.98 52.46 -79.85 52.67 -72.77 56.28 C-66.88 60.17 -63.31 65.76 -61.77 72.6 C-61.27 76.59 -60.97 80.58 -60.77 84.6 C-59.45 84.6 -58.13 84.6 -56.77 84.6 C-56.68 83.54 -56.6 82.48 -56.51 81.38 C-55.59 71.61 -54.33 64.59 -46.83 57.72 C-40.56 53.37 -34.26 52.62 -26.77 53.6 C-19.48 56 -14.34 59.58 -10.81 66.48 C-7.73 73.71 -8.1 80.24 -10.8 87.49 C-13.87 94.16 -18.17 97.1 -24.77 99.6 C-32.2 100.59 -32.2 100.59 -39.77 101.6 C-39.77 123.05 -39.77 144.5 -39.77 166.6 C-35.48 166.6 -31.19 166.6 -26.77 166.6 C-26.27 165.55 -25.78 164.5 -25.27 163.42 C-21.44 155.46 -17.63 148.27 -11.77 141.6 C7.64 119.2 21.38 98.61 19.45 67.98 C17.97 51.9 10.79 36.71 0.23 24.6 C-0.93 23.15 -0.93 23.15 -2.11 21.67 C-14.17 7.22 -33.62 -0.79 -52 -2.62 C-73.35 -4.1 -93.61 2.5 -109.77 16.6 Z M-91.77 72.6 C-92.94 75.46 -92.94 75.46 -92.77 78.6 C-91 81.35 -89.71 83.13 -86.77 84.6 C-85.23 84.67 -83.69 84.68 -82.15 84.66 C-81.33 84.65 -80.51 84.64 -79.67 84.63 C-79.04 84.62 -78.42 84.61 -77.77 84.6 C-77.11 77.64 -77.11 77.64 -79.96 71.47 C-82.58 69.47 -82.58 69.47 -85.33 69.1 C-88.32 69.71 -89.68 70.36 -91.77 72.6 Z M-37.71 71.41 C-40.57 75.83 -40.22 79.48 -39.77 84.6 C-35.2 84.96 -31.84 85.2 -27.77 82.91 C-25.51 80.29 -24.77 79.06 -24.77 75.6 C-25.62 72.74 -25.62 72.74 -27.77 70.6 C-32.05 69.17 -33.83 69.02 -37.71 71.41 Z M-60.77 101.6 C-60.77 123.05 -60.77 144.5 -60.77 166.6 C-59.45 166.6 -58.13 166.6 -56.77 166.6 C-56.77 145.15 -56.77 123.7 -56.77 101.6 C-58.09 101.6 -59.41 101.6 -60.77 101.6 Z M-98.77 185.6 C-98.37 188.38 -98.37 188.38 -96.77 190.6 C-94.41 190.71 -92.08 190.75 -89.71 190.74 C-88.97 190.75 -88.24 190.75 -87.48 190.76 C-85.02 190.76 -82.57 190.77 -80.12 190.77 C-78.42 190.77 -76.72 190.77 -75.03 190.78 C-71.46 190.78 -67.9 190.79 -64.33 190.78 C-59.76 190.78 -55.19 190.8 -50.61 190.82 C-47.1 190.83 -43.6 190.83 -40.09 190.83 C-38.4 190.83 -36.71 190.83 -35.03 190.84 C-32.67 190.85 -30.31 190.85 -27.96 190.84 C-26.91 190.85 -26.91 190.85 -25.83 190.86 C-21.86 190.94 -21.86 190.94 -18.77 188.6 C-19.18 185.82 -19.18 185.82 -20.77 183.6 C-23.13 183.49 -25.47 183.45 -27.83 183.45 C-28.57 183.45 -29.31 183.45 -30.07 183.44 C-32.52 183.43 -34.97 183.43 -37.42 183.43 C-39.12 183.43 -40.82 183.43 -42.52 183.42 C-46.08 183.42 -49.64 183.41 -53.21 183.41 C-57.78 183.41 -62.36 183.4 -66.93 183.38 C-70.44 183.37 -73.95 183.37 -77.45 183.37 C-79.14 183.37 -80.83 183.37 -82.52 183.36 C-84.87 183.35 -87.23 183.35 -89.58 183.36 C-90.64 183.35 -90.64 183.35 -91.71 183.34 C-95.68 183.26 -95.68 183.26 -98.77 185.6 Z M-88.77 209.6 C-88.37 212.38 -88.37 212.38 -86.77 214.6 C-85.03 214.7 -83.29 214.74 -81.55 214.74 C-79.88 214.75 -79.88 214.75 -78.17 214.76 C-76.96 214.77 -75.74 214.77 -74.49 214.77 C-73.26 214.77 -72.02 214.77 -70.75 214.78 C-68.12 214.78 -65.5 214.79 -62.88 214.78 C-60.18 214.78 -57.49 214.79 -54.79 214.81 C-50.92 214.82 -47.05 214.83 -43.18 214.83 C-41.36 214.84 -41.36 214.84 -39.51 214.85 C-38.39 214.85 -37.27 214.85 -36.12 214.84 C-35.14 214.84 -34.15 214.85 -33.13 214.85 C-30.58 214.83 -30.58 214.83 -28.77 212.6 C-29.18 209.82 -29.18 209.82 -30.77 207.6 C-32.51 207.5 -34.25 207.46 -35.99 207.45 C-37.67 207.44 -37.67 207.44 -39.37 207.44 C-40.58 207.43 -41.8 207.43 -43.05 207.43 C-44.29 207.43 -45.52 207.42 -46.8 207.42 C-49.42 207.42 -52.04 207.41 -54.66 207.41 C-57.36 207.41 -60.05 207.41 -62.75 207.39 C-66.62 207.38 -70.49 207.37 -74.36 207.37 C-75.57 207.36 -76.78 207.35 -78.03 207.35 C-79.15 207.35 -80.27 207.35 -81.42 207.36 C-82.41 207.36 -83.39 207.35 -84.41 207.35 C-86.96 207.37 -86.96 207.37 -88.77 209.6 Z M-75.69 233.12 C-76.05 233.61 -76.4 234.1 -76.77 234.6 C-76.11 235.92 -75.45 237.24 -74.77 238.6 C-64.21 238.6 -53.65 238.6 -42.77 238.6 C-42.11 237.28 -41.45 235.96 -40.77 234.6 C-41.85 232.98 -41.85 232.98 -43.77 231.6 C-46.92 231.13 -46.92 231.13 -50.52 231.2 C-51.18 231.2 -51.83 231.2 -52.5 231.19 C-53.89 231.19 -55.27 231.2 -56.65 231.21 C-58.76 231.22 -60.88 231.21 -62.99 231.19 C-64.33 231.19 -65.68 231.2 -67.02 231.2 C-68.24 231.2 -69.47 231.21 -70.72 231.21 C-73.78 231.33 -73.78 231.33 -75.69 233.12 Z " fill="#0CD68A" transform="translate(314.77099609375,94.400390625)"/>
<path d="M0 0 C2.75 2.24 2.96 3.77 3.62 7.25 C2.72 12.7 -0.16 15.19 -4 19 C-4.86 19.89 -5.73 20.78 -6.62 21.7 C-14.65 29.87 -14.65 29.87 -19.38 30.31 C-23 30 -23 30 -25.38 28.44 C-27.56 25.15 -28 22.95 -28 19 C-25.28 14.26 -21.86 10.55 -18 6.75 C-17.48 6.22 -16.96 5.69 -16.42 5.15 C-11.01 -0.24 -7.43 -2.15 0 0 Z " fill="#0CD68A" transform="translate(358,66)"/>
<path d="M0 0 C2.96 2.04 5.45 4.47 8 7 C8.73 7.69 9.46 8.39 10.21 9.1 C16.53 15.2 16.53 15.2 18 19 C17.86 22.82 17.51 25.24 15.38 28.44 C11.89 30.73 10.11 30.75 6 30 C2.97 28.03 0.54 25.56 -2 23 C-2.89 22.14 -3.78 21.27 -4.7 20.38 C-12.9 12.32 -12.9 12.32 -13.25 7.62 C-12.99 3.86 -12.67 2.57 -10 0 C-6.05 -1.32 -4.05 -1.06 0 0 Z " fill="#0CD68A" transform="translate(164,66)"/>
<path d="M0 0 C1.24 -0.04 2.47 -0.07 3.75 -0.11 C13.93 -0.21 13.93 -0.21 17.01 2.68 C19.22 6.22 19.36 8.27 18.69 12.38 C16.82 14.74 15.37 16.04 12.69 17.38 C8.76 17.64 4.81 17.61 0.88 17.62 C-0.77 17.66 -0.77 17.66 -2.44 17.69 C-4.03 17.7 -4.03 17.7 -5.64 17.7 C-6.61 17.71 -7.58 17.72 -8.57 17.73 C-11.85 17.31 -13.69 16.35 -16.31 14.38 C-18.2 10.21 -18.66 8.32 -17.06 4 C-13.29 -1.65 -6.19 0.07 0 0 Z " fill="#0CD68A" transform="translate(382.3125,161.625)"/>
<path d="M0 0 C1.85 -0.02 1.85 -0.02 3.73 -0.03 C12.79 0.04 12.79 0.04 15.77 2.45 C17.74 4.94 18.28 6.39 18.44 9.56 C17.65 12.86 16.96 14.18 14.2 16.19 C11.14 17.71 9.24 17.94 5.84 17.93 C4.79 17.93 3.74 17.92 2.66 17.92 C1.58 17.91 0.49 17.89 -0.62 17.88 C-1.71 17.88 -2.8 17.88 -3.92 17.88 C-13.11 17.82 -13.11 17.82 -16.56 15.56 C-19.06 11.81 -19.1 10 -18.56 5.56 C-14.23 -1.38 -7.47 -0.15 0 0 Z " fill="#0CD68A" transform="translate(129.5625,161.4375)"/>
<path d="M0 0 C2.65 1.62 2.65 1.62 5 4 C5.62 7.07 5.62 7.07 5.59 10.63 C5.59 11.91 5.59 13.19 5.59 14.51 C5.57 15.18 5.56 15.84 5.54 16.53 C5.5 18.56 5.5 20.59 5.51 22.62 C5.41 32.43 5.41 32.43 3.68 34.85 C0.87 36.77 -1.65 36.88 -5 37 C-7.38 35.86 -9.14 34.86 -11 33 C-11.29 28.92 -11.31 24.84 -11.35 20.75 C-11.37 19.38 -11.39 18.01 -11.43 16.64 C-11.49 14.66 -11.51 12.68 -11.52 10.7 C-11.54 9.51 -11.56 8.32 -11.58 7.1 C-11 4 -11 4 -8.65 1.61 C-5.39 -0.37 -3.76 -0.63 0 0 Z " fill="#0CD68A" transform="translate(259,25)"/>
</svg>
