<?xml version="1.0" encoding="UTF-8"?>
<!-- Generator: visioncortex VTracer 0.6.4 -->
<svg version="1.1" xmlns="http://www.w3.org/2000/svg" width="512" height="512">
<path d="M0 0 C0.7 -0.01 1.39 -0.01 2.11 -0.02 C4.41 -0.04 6.7 -0.03 9 -0.01 C10.6 -0.02 12.2 -0.02 13.8 -0.03 C17.15 -0.03 20.49 -0.02 23.84 -0 C28.13 0.02 32.42 0.01 36.72 -0.02 C40.02 -0.03 43.32 -0.03 46.62 -0.02 C48.2 -0.02 49.78 -0.02 51.37 -0.03 C53.58 -0.04 55.79 -0.02 58 0 C59.89 0 59.89 0 61.81 0.01 C65.72 0.63 66.65 1.38 69 4.52 C69.38 7.2 69.52 9.46 69.48 12.14 C69.48 12.91 69.49 13.68 69.49 14.47 C69.5 17.06 69.48 19.64 69.45 22.23 C69.45 24.08 69.45 25.94 69.46 27.79 C69.46 32.82 69.43 37.85 69.41 42.89 C69.38 48.14 69.38 53.4 69.37 58.66 C69.36 68.62 69.33 78.58 69.29 88.54 C69.24 99.87 69.22 111.21 69.2 122.55 C69.16 145.87 69.09 169.19 69 192.52 C90.12 192.52 111.24 192.52 133 192.52 C133 197.8 133 203.08 133 208.52 C-25.4 208.52 -183.8 208.52 -347 208.52 C-347 203.24 -347 197.96 -347 192.52 C-325.88 192.52 -304.76 192.52 -283 192.52 C-283.07 184.36 -283.07 184.36 -283.14 176.03 C-283.16 172.59 -283.18 169.14 -283.2 165.7 C-283.22 160.23 -283.25 154.76 -283.3 149.29 C-283.35 144.88 -283.37 140.47 -283.38 136.06 C-283.39 134.38 -283.4 132.7 -283.42 131.02 C-283.45 128.66 -283.46 126.3 -283.45 123.95 C-283.48 122.9 -283.48 122.9 -283.5 121.84 C-283.47 118.67 -283.16 116.76 -281.41 114.09 C-278.14 111.96 -275.89 112.01 -272 112 C-271.3 111.99 -270.61 111.99 -269.89 111.98 C-267.59 111.96 -265.3 111.97 -263 111.99 C-261.4 111.98 -259.8 111.98 -258.2 111.97 C-254.85 111.97 -251.51 111.98 -248.16 112 C-243.87 112.02 -239.58 112.01 -235.28 111.98 C-231.98 111.97 -228.68 111.97 -225.38 111.98 C-223.8 111.98 -222.22 111.98 -220.63 111.97 C-218.42 111.96 -216.21 111.98 -214 112 C-212.11 112 -212.11 112 -210.19 112.01 C-207 112.52 -207 112.52 -204.59 114.09 C-202.45 117.35 -202.47 120.17 -202.55 123.95 C-202.55 124.69 -202.54 125.43 -202.54 126.2 C-202.55 128.64 -202.58 131.09 -202.61 133.53 C-202.62 135.23 -202.62 136.93 -202.63 138.63 C-202.64 143.09 -202.68 147.56 -202.73 152.02 C-202.77 157.38 -202.79 162.74 -202.82 168.1 C-202.85 176.24 -202.93 184.38 -203 192.52 C-184.52 192.52 -166.04 192.52 -147 192.52 C-147.02 188.54 -147.04 184.56 -147.06 180.46 C-147.13 167.34 -147.17 154.22 -147.21 141.09 C-147.23 133.13 -147.26 125.17 -147.3 117.22 C-147.34 110.28 -147.37 103.34 -147.38 96.41 C-147.38 92.73 -147.39 89.06 -147.42 85.39 C-147.46 81.29 -147.46 77.19 -147.45 73.09 C-147.47 71.87 -147.48 70.65 -147.5 69.39 C-147.49 68.28 -147.49 67.16 -147.48 66.01 C-147.48 65.04 -147.49 64.07 -147.49 63.07 C-146.85 59.75 -145.64 58.57 -143 56.52 C-139.81 56.01 -139.81 56.01 -136 56 C-134.96 55.99 -134.96 55.99 -133.89 55.98 C-131.59 55.96 -129.3 55.97 -127 55.99 C-125.4 55.98 -123.8 55.98 -122.2 55.97 C-118.85 55.97 -115.51 55.98 -112.16 56 C-107.87 56.02 -103.58 56.01 -99.28 55.98 C-95.98 55.97 -92.68 55.97 -89.38 55.98 C-87.8 55.98 -86.22 55.98 -84.63 55.97 C-82.42 55.96 -80.21 55.98 -78 56 C-76.11 56 -76.11 56 -74.19 56.01 C-70.33 56.62 -69.39 57.5 -67 60.52 C-66.51 63.07 -66.51 63.07 -66.52 66.01 C-66.51 67.68 -66.51 67.68 -66.5 69.39 C-66.52 71.22 -66.52 71.22 -66.55 73.09 C-66.55 74.38 -66.54 75.66 -66.54 76.99 C-66.54 80.52 -66.57 84.05 -66.59 87.58 C-66.62 91.27 -66.62 94.96 -66.63 98.64 C-66.64 105.63 -66.67 112.61 -66.71 119.6 C-66.76 127.55 -66.78 135.5 -66.8 143.45 C-66.84 159.81 -66.91 176.16 -67 192.52 C-48.52 192.52 -30.04 192.52 -11 192.52 C-11.02 186.84 -11.04 181.17 -11.06 175.32 C-11.13 156.61 -11.17 137.9 -11.21 119.19 C-11.23 107.84 -11.26 96.49 -11.3 85.14 C-11.34 75.25 -11.37 65.36 -11.38 55.47 C-11.38 50.23 -11.39 45 -11.42 39.76 C-11.45 34.83 -11.46 29.9 -11.45 24.97 C-11.45 23.16 -11.46 21.35 -11.48 19.54 C-11.5 17.07 -11.49 14.6 -11.48 12.14 C-11.49 11.42 -11.5 10.7 -11.52 9.95 C-11.48 6.59 -11.21 4.8 -9.17 2.07 C-6.07 -0.15 -3.79 0.01 0 0 Z M5 16.52 C5 74.6 5 132.68 5 192.52 C20.84 192.52 36.68 192.52 53 192.52 C53 134.44 53 76.36 53 16.52 C37.16 16.52 21.32 16.52 5 16.52 Z M-131 72.52 C-131 112.12 -131 151.72 -131 192.52 C-115.16 192.52 -99.32 192.52 -83 192.52 C-83 152.92 -83 113.32 -83 72.52 C-98.84 72.52 -114.68 72.52 -131 72.52 Z M-267 128.52 C-267 149.64 -267 170.76 -267 192.52 C-251.16 192.52 -235.32 192.52 -219 192.52 C-219 171.4 -219 150.28 -219 128.52 C-234.84 128.52 -250.68 128.52 -267 128.52 Z " fill="#5A58E9" transform="translate(363,119.482421875)"/>
<path d="M0 0 C5.61 0 11.22 0 17 0 C17.11 3 17.19 6 17.25 9 C17.3 10.26 17.3 10.26 17.35 11.54 C17.46 18.56 15.87 23.67 11.25 29.02 C7.97 31.65 5.09 33.76 1 35 C0.69 39.91 1.63 43.19 3.59 47.68 C3.85 48.29 4.12 48.9 4.39 49.53 C5.23 51.46 6.08 53.39 6.94 55.31 C7.51 56.63 8.08 57.94 8.65 59.25 C10.73 65.02 10.73 65.02 14 70 C15.88 69.86 17.75 69.71 19.63 69.53 C28.53 68.7 35.68 68.67 42.95 74.58 C46.38 77.88 49.35 81.59 52.39 85.25 C54.18 87.2 56.1 88.86 58.12 90.56 C62.39 94.19 65.2 97.61 67 103 C67.1 105.12 67.13 107.25 67.12 109.38 C67.13 111.06 67.13 111.06 67.13 112.77 C67 116 67 116 66.3 118.73 C65.73 121 65.73 121 67.12 122.47 C71.36 125.91 76.88 127.59 81.88 129.69 C83.65 130.45 83.65 130.45 85.46 131.24 C86.61 131.72 87.75 132.2 88.93 132.7 C90.5 133.36 90.5 133.36 92.09 134.04 C94.98 134.99 96.99 135.38 100 135 C102.11 132.72 102.11 132.72 103.88 129.75 C107.67 124.18 110.57 121.12 117.26 119.43 C122.63 118.59 128.08 118.73 133.5 118.7 C134.95 118.69 136.4 118.67 137.85 118.64 C156.85 118.26 156.85 118.26 163.89 124.74 C166.24 127.32 167.91 129.83 169.5 132.94 C170 133.62 170.49 134.3 171 135 C175.73 135.49 179.11 134.44 183.46 132.63 C184.65 132.14 185.85 131.65 187.08 131.14 C188.32 130.61 189.57 130.09 190.81 129.56 C192.08 129.04 193.34 128.52 194.61 128 C200.17 126.1 200.17 126.1 205 123 C204.88 121.09 204.75 119.18 204.58 117.27 C203.3 102.6 203.3 102.6 208.41 96.24 C213.11 90.93 217.92 85.76 222.88 80.69 C223.63 79.89 224.38 79.09 225.15 78.27 C231 72.31 236.06 69.36 244.44 68.75 C248.97 69.07 253.48 69.49 258 70 C261.25 63.7 264.1 57.29 266.81 50.75 C267.23 49.77 267.65 48.79 268.08 47.78 C268.67 46.37 268.67 46.37 269.27 44.92 C269.63 44.07 269.98 43.22 270.35 42.35 C271.07 39.74 271.01 38.49 270 36 C268.06 34.39 268.06 34.39 265.69 33.06 C259.81 29.32 256.56 25.49 254.46 18.82 C253.49 12.89 254.41 6.94 255 1 C260.61 1 266.22 1 272 1 C271.97 4.29 271.93 7.58 271.9 10.86 C271.85 14.03 271.85 14.03 273 17 C274.7 18.24 274.7 18.24 276.75 19.31 C282.5 22.73 286.65 27.36 288.55 33.9 C290.31 45.05 284.4 55.79 280.19 65.81 C279.79 66.79 279.38 67.77 278.97 68.78 C275.72 76.29 271.85 82.58 264.81 87 C258.45 88.67 251.98 88.65 245.56 87.25 C242.87 86.73 242.87 86.73 240.44 88.56 C238.32 90.68 236.51 92.88 234.66 95.23 C231.6 98.49 227.91 101.07 224.33 103.75 C221.73 106.26 221.16 107.44 221 111 C221.33 111.99 221.66 112.98 222 114 C222.68 121.56 222.51 127.74 218 134 C212.83 139.61 206.51 142.32 199.56 145.19 C198.56 145.61 197.57 146.04 196.54 146.47 C193.7 147.67 190.85 148.84 188 150 C187.25 150.31 186.5 150.63 185.73 150.95 C178.51 153.87 170.91 154.33 163.5 151.81 C158.72 148.35 155.47 144.49 152.5 139.45 C148.2 135.29 138.95 136.78 133.31 136.75 C132.27 136.73 131.22 136.71 130.15 136.69 C129.15 136.68 128.14 136.68 127.11 136.67 C125.75 136.66 125.75 136.66 124.36 136.64 C121.52 137.07 120.74 137.77 119 140 C118.4 140.95 117.8 141.9 117.19 142.88 C113.71 147.84 109.83 151.06 104 153 C94.89 154.23 87.65 151.91 79.38 148.31 C78.32 147.88 77.27 147.44 76.18 146.99 C54.35 137.88 54.35 137.88 49.86 128.65 C48.89 125.65 48.77 123.22 48.81 120.06 C48.82 119.01 48.83 117.96 48.84 116.88 C49 114 49 114 49.81 110.56 C49.91 109.29 49.91 109.29 50 108 C48.4 106.27 46.72 104.61 45 103 C34 92 34 92 31.32 89.14 C30.55 88.44 29.79 87.73 29 87 C26.27 87.13 26.27 87.13 23 88 C15.4 88.62 9.31 88.52 3 84 C-3.21 77.94 -6.08 70.64 -9.31 62.75 C-9.85 61.46 -10.4 60.17 -10.94 58.88 C-14.91 49.41 -18.8 39.79 -15.09 29.48 C-12.48 25.1 -9.15 21.91 -5 19 C-3.68 18.67 -2.36 18.34 -1 18 C-0.5 9.09 -0.5 9.09 0 0 Z " fill="#5A58E9" transform="translate(120,343)"/>
<path d="M0 0 C6.05 0.66 11.62 2.25 17.42 4.05 C18.4 4.36 19.39 4.66 20.4 4.97 C22.46 5.61 24.53 6.25 26.59 6.89 C29.75 7.88 32.92 8.84 36.08 9.81 C38.09 10.43 40.1 11.05 42.11 11.68 C43.53 12.11 43.53 12.11 44.98 12.55 C46.3 12.97 46.3 12.97 47.64 13.39 C48.8 13.75 48.8 13.75 49.98 14.11 C52.25 15.11 53.45 16.07 55 18 C56.44 23.02 56 26.01 53.5 30.59 C53.11 31.26 52.72 31.93 52.31 32.62 C51.91 33.34 51.51 34.06 51.1 34.8 C49.75 37.21 48.38 39.61 47 42 C45.97 43.82 44.93 45.64 43.9 47.46 C41.88 51.02 39.84 54.58 37.8 58.12 C35.15 62.72 32.56 67.35 30 72 C24.2 70.51 19.82 67.41 15 64 C15.5 58.68 18.34 54.65 21.06 50.19 C21.53 49.4 22.01 48.61 22.49 47.8 C23.66 45.86 24.83 43.93 26 42 C22.42 42 19.12 43.85 15.83 45.17 C14.98 45.51 14.12 45.86 13.24 46.21 C10.36 47.36 7.48 48.52 4.6 49.68 C2.54 50.5 0.48 51.32 -1.58 52.15 C-7.19 54.39 -12.8 56.64 -18.41 58.9 C-23.13 60.79 -27.85 62.68 -32.57 64.57 C-71.95 80.35 -111.31 96.17 -150.66 111.99 C-180.47 123.98 -210.28 135.93 -240.11 147.85 C-252.38 152.75 -264.66 157.66 -276.94 162.57 C-278.5 163.2 -278.5 163.2 -280.08 163.83 C-285.33 165.93 -290.57 168.03 -295.81 170.13 C-304.83 173.73 -313.85 177.34 -322.87 180.95 C-327.17 182.67 -331.47 184.39 -335.77 186.11 C-337.19 186.67 -338.6 187.24 -340.02 187.81 C-341 188.2 -341.99 188.59 -343 189 C-345.45 186.55 -346.34 184.24 -347.69 181.06 C-348.15 180 -348.6 178.94 -349.07 177.85 C-350 175 -350 175 -349 172 C-346.37 170.64 -346.37 170.64 -342.78 169.22 C-342.12 168.96 -341.46 168.69 -340.78 168.42 C-338.55 167.53 -336.31 166.66 -334.07 165.78 C-332.46 165.14 -330.85 164.5 -329.24 163.86 C-325.74 162.47 -322.23 161.08 -318.72 159.7 C-313.05 157.47 -307.39 155.23 -301.73 152.98 C-299.76 152.2 -297.79 151.41 -295.82 150.63 C-294.82 150.23 -293.82 149.84 -292.8 149.43 C-289.7 148.2 -286.6 146.97 -283.5 145.74 C-261.02 136.83 -238.59 127.81 -216.16 118.78 C-204.69 114.16 -193.21 109.55 -181.73 104.94 C-180.64 104.5 -179.54 104.05 -178.41 103.6 C-160.45 96.38 -142.48 89.18 -124.5 82 C-97.65 71.27 -70.82 60.51 -43.99 49.74 C-43.37 49.49 -42.76 49.24 -42.12 48.99 C-41.51 48.74 -40.89 48.49 -40.26 48.24 C-35.94 46.5 -31.62 44.77 -27.3 43.04 C-21.47 40.7 -15.63 38.35 -9.8 36.01 C-7.62 35.13 -5.44 34.26 -3.26 33.38 C-0.26 32.18 2.75 30.97 5.76 29.76 C6.64 29.41 7.52 29.05 8.43 28.69 C9.25 28.36 10.06 28.03 10.89 27.7 C11.95 27.28 11.95 27.28 13.02 26.85 C15.05 25.98 17.03 24.99 19 24 C11.08 21.69 3.16 19.38 -5 17 C-2.75 5.75 -2.75 5.75 0 0 Z " fill="#5A58E9" transform="translate(401,16)"/>
<path d="M0 0 C5.61 0 11.22 0 17 0 C17.23 2.33 17.45 4.66 17.69 7.06 C20.03 26.85 28.72 43.16 44 56 C59.02 67.19 77.91 72.56 96.61 70.61 C116.47 67.06 134.06 57.47 146.17 41.06 C154.65 28.07 157.53 15.13 159 0 C164.61 0 170.22 0 176 0 C176.73 17.4 172.52 30.99 164 46 C163.52 46.85 163.03 47.7 162.54 48.58 C150.16 68.49 129.55 81.56 107 87 C83.86 91.33 62.18 87.56 42 76 C41.15 75.52 40.3 75.03 39.42 74.54 C18.39 61.49 6.21 40.13 0.41 16.59 C-0.45 11.13 -0.05 5.51 0 0 Z " fill="#5A58E9" transform="translate(168,344)"/>
</svg>
